<?xml version="1.0" encoding="utf-8" standalone="no"?>
<!DOCTYPE svg PUBLIC "-//W3C//DTD SVG 1.1//EN"
  "http://www.w3.org/Graphics/SVG/1.1/DTD/svg11.dtd">
<svg height="216.72pt" version="1.1" viewBox="0 0 628.56 216.72" width="628.56pt" xmlns="http://www.w3.org/2000/svg" xmlns:xlink="http://www.w3.org/1999/xlink">
 <metadata>
  <rdf:RDF xmlns:cc="http://creativecommons.org/ns#" xmlns:dc="http://purl.org/dc/elements/1.1/" xmlns:rdf="http://www.w3.org/1999/02/22-rdf-syntax-ns#">
   <cc:Work>
    <dc:type rdf:resource="http://purl.org/dc/dcmitype/StillImage"/>
    <dc:date>2021-10-14T14:37:35.190014</dc:date>
    <dc:format>image/svg+xml</dc:format>
    <dc:creator>
     <cc:Agent>
      <dc:title>Matplotlib v3.4.3, https://matplotlib.org/</dc:title>
     </cc:Agent>
    </dc:creator>
   </cc:Work>
  </rdf:RDF>
 </metadata>
 <defs>
  <style type="text/css">*{stroke-linecap:butt;stroke-linejoin:round;}</style>
 </defs>
 <g id="figure_1">
  <g id="patch_1">
   <path d="M 0 216.72 
L 628.56 216.72 
L 628.56 0 
L 0 0 
z
" style="fill:#ffffff;"/>
  </g>
  <g id="axes_1">
   <g id="patch_2">
    <path d="M 78.57 192.8808 
L 565.704 192.8808 
L 565.704 26.0064 
L 78.57 26.0064 
z
" style="fill:#ffffff;"/>
   </g>
   <g id="matplotlib.axis_1">
    <g id="xtick_1">
     <g id="line2d_1">
      <path clip-path="url(#pf6b3b39eb5)" d="M 100.712455 192.8808 
L 100.712455 26.0064 
" style="fill:none;stroke:#b0b0b0;stroke-linecap:square;stroke-width:0.8;"/>
     </g>
     <g id="line2d_2">
      <defs>
       <path d="M 0 0 
L 0 3.5 
" id="mb92f1b1dfb" style="stroke:#000000;stroke-width:0.8;"/>
      </defs>
      <g>
       <use style="stroke:#000000;stroke-width:0.8;" x="100.712455" xlink:href="#mb92f1b1dfb" y="192.8808"/>
      </g>
     </g>
     <g id="text_1">
      <!-- 0 -->
      <g transform="translate(97.531205 207.479237)scale(0.1 -0.1)">
       <defs>
        <path d="M 2034 4250 
Q 1547 4250 1301 3770 
Q 1056 3291 1056 2328 
Q 1056 1369 1301 889 
Q 1547 409 2034 409 
Q 2525 409 2770 889 
Q 3016 1369 3016 2328 
Q 3016 3291 2770 3770 
Q 2525 4250 2034 4250 
z
M 2034 4750 
Q 2819 4750 3233 4129 
Q 3647 3509 3647 2328 
Q 3647 1150 3233 529 
Q 2819 -91 2034 -91 
Q 1250 -91 836 529 
Q 422 1150 422 2328 
Q 422 3509 836 4129 
Q 1250 4750 2034 4750 
z
" id="DejaVuSans-30" transform="scale(0.015625)"/>
       </defs>
       <use xlink:href="#DejaVuSans-30"/>
      </g>
     </g>
    </g>
    <g id="xtick_2">
     <g id="line2d_3">
      <path clip-path="url(#pf6b3b39eb5)" d="M 179.962471 192.8808 
L 179.962471 26.0064 
" style="fill:none;stroke:#b0b0b0;stroke-linecap:square;stroke-width:0.8;"/>
     </g>
     <g id="line2d_4">
      <g>
       <use style="stroke:#000000;stroke-width:0.8;" x="179.962471" xlink:href="#mb92f1b1dfb" y="192.8808"/>
      </g>
     </g>
     <g id="text_2">
      <!-- 500 -->
      <g transform="translate(170.418721 207.479237)scale(0.1 -0.1)">
       <defs>
        <path d="M 691 4666 
L 3169 4666 
L 3169 4134 
L 1269 4134 
L 1269 2991 
Q 1406 3038 1543 3061 
Q 1681 3084 1819 3084 
Q 2600 3084 3056 2656 
Q 3513 2228 3513 1497 
Q 3513 744 3044 326 
Q 2575 -91 1722 -91 
Q 1428 -91 1123 -41 
Q 819 9 494 109 
L 494 744 
Q 775 591 1075 516 
Q 1375 441 1709 441 
Q 2250 441 2565 725 
Q 2881 1009 2881 1497 
Q 2881 1984 2565 2268 
Q 2250 2553 1709 2553 
Q 1456 2553 1204 2497 
Q 953 2441 691 2322 
L 691 4666 
z
" id="DejaVuSans-35" transform="scale(0.015625)"/>
       </defs>
       <use xlink:href="#DejaVuSans-35"/>
       <use x="63.623047" xlink:href="#DejaVuSans-30"/>
       <use x="127.246094" xlink:href="#DejaVuSans-30"/>
      </g>
     </g>
    </g>
    <g id="xtick_3">
     <g id="line2d_5">
      <path clip-path="url(#pf6b3b39eb5)" d="M 259.212487 192.8808 
L 259.212487 26.0064 
" style="fill:none;stroke:#b0b0b0;stroke-linecap:square;stroke-width:0.8;"/>
     </g>
     <g id="line2d_6">
      <g>
       <use style="stroke:#000000;stroke-width:0.8;" x="259.212487" xlink:href="#mb92f1b1dfb" y="192.8808"/>
      </g>
     </g>
     <g id="text_3">
      <!-- 1000 -->
      <g transform="translate(246.487487 207.479237)scale(0.1 -0.1)">
       <defs>
        <path d="M 794 531 
L 1825 531 
L 1825 4091 
L 703 3866 
L 703 4441 
L 1819 4666 
L 2450 4666 
L 2450 531 
L 3481 531 
L 3481 0 
L 794 0 
L 794 531 
z
" id="DejaVuSans-31" transform="scale(0.015625)"/>
       </defs>
       <use xlink:href="#DejaVuSans-31"/>
       <use x="63.623047" xlink:href="#DejaVuSans-30"/>
       <use x="127.246094" xlink:href="#DejaVuSans-30"/>
       <use x="190.869141" xlink:href="#DejaVuSans-30"/>
      </g>
     </g>
    </g>
    <g id="xtick_4">
     <g id="line2d_7">
      <path clip-path="url(#pf6b3b39eb5)" d="M 338.462503 192.8808 
L 338.462503 26.0064 
" style="fill:none;stroke:#b0b0b0;stroke-linecap:square;stroke-width:0.8;"/>
     </g>
     <g id="line2d_8">
      <g>
       <use style="stroke:#000000;stroke-width:0.8;" x="338.462503" xlink:href="#mb92f1b1dfb" y="192.8808"/>
      </g>
     </g>
     <g id="text_4">
      <!-- 1500 -->
      <g transform="translate(325.737503 207.479237)scale(0.1 -0.1)">
       <use xlink:href="#DejaVuSans-31"/>
       <use x="63.623047" xlink:href="#DejaVuSans-35"/>
       <use x="127.246094" xlink:href="#DejaVuSans-30"/>
       <use x="190.869141" xlink:href="#DejaVuSans-30"/>
      </g>
     </g>
    </g>
    <g id="xtick_5">
     <g id="line2d_9">
      <path clip-path="url(#pf6b3b39eb5)" d="M 417.71252 192.8808 
L 417.71252 26.0064 
" style="fill:none;stroke:#b0b0b0;stroke-linecap:square;stroke-width:0.8;"/>
     </g>
     <g id="line2d_10">
      <g>
       <use style="stroke:#000000;stroke-width:0.8;" x="417.71252" xlink:href="#mb92f1b1dfb" y="192.8808"/>
      </g>
     </g>
     <g id="text_5">
      <!-- 2000 -->
      <g transform="translate(404.98752 207.479237)scale(0.1 -0.1)">
       <defs>
        <path d="M 1228 531 
L 3431 531 
L 3431 0 
L 469 0 
L 469 531 
Q 828 903 1448 1529 
Q 2069 2156 2228 2338 
Q 2531 2678 2651 2914 
Q 2772 3150 2772 3378 
Q 2772 3750 2511 3984 
Q 2250 4219 1831 4219 
Q 1534 4219 1204 4116 
Q 875 4013 500 3803 
L 500 4441 
Q 881 4594 1212 4672 
Q 1544 4750 1819 4750 
Q 2544 4750 2975 4387 
Q 3406 4025 3406 3419 
Q 3406 3131 3298 2873 
Q 3191 2616 2906 2266 
Q 2828 2175 2409 1742 
Q 1991 1309 1228 531 
z
" id="DejaVuSans-32" transform="scale(0.015625)"/>
       </defs>
       <use xlink:href="#DejaVuSans-32"/>
       <use x="63.623047" xlink:href="#DejaVuSans-30"/>
       <use x="127.246094" xlink:href="#DejaVuSans-30"/>
       <use x="190.869141" xlink:href="#DejaVuSans-30"/>
      </g>
     </g>
    </g>
    <g id="xtick_6">
     <g id="line2d_11">
      <path clip-path="url(#pf6b3b39eb5)" d="M 496.962536 192.8808 
L 496.962536 26.0064 
" style="fill:none;stroke:#b0b0b0;stroke-linecap:square;stroke-width:0.8;"/>
     </g>
     <g id="line2d_12">
      <g>
       <use style="stroke:#000000;stroke-width:0.8;" x="496.962536" xlink:href="#mb92f1b1dfb" y="192.8808"/>
      </g>
     </g>
     <g id="text_6">
      <!-- 2500 -->
      <g transform="translate(484.237536 207.479237)scale(0.1 -0.1)">
       <use xlink:href="#DejaVuSans-32"/>
       <use x="63.623047" xlink:href="#DejaVuSans-35"/>
       <use x="127.246094" xlink:href="#DejaVuSans-30"/>
       <use x="190.869141" xlink:href="#DejaVuSans-30"/>
      </g>
     </g>
    </g>
   </g>
   <g id="matplotlib.axis_2">
    <g id="ytick_1">
     <g id="line2d_13">
      <path clip-path="url(#pf6b3b39eb5)" d="M 78.57 188.313402 
L 565.704 188.313402 
" style="fill:none;stroke:#b0b0b0;stroke-linecap:square;stroke-width:0.8;"/>
     </g>
     <g id="line2d_14">
      <defs>
       <path d="M 0 0 
L -3.5 0 
" id="mcccdb3a3f8" style="stroke:#000000;stroke-width:0.8;"/>
      </defs>
      <g>
       <use style="stroke:#000000;stroke-width:0.8;" x="78.57" xlink:href="#mcccdb3a3f8" y="188.313402"/>
      </g>
     </g>
     <g id="text_7">
      <!-- −10 -->
      <g transform="translate(50.465313 192.112621)scale(0.1 -0.1)">
       <defs>
        <path d="M 678 2272 
L 4684 2272 
L 4684 1741 
L 678 1741 
L 678 2272 
z
" id="DejaVuSans-2212" transform="scale(0.015625)"/>
       </defs>
       <use xlink:href="#DejaVuSans-2212"/>
       <use x="83.789062" xlink:href="#DejaVuSans-31"/>
       <use x="147.412109" xlink:href="#DejaVuSans-30"/>
      </g>
     </g>
    </g>
    <g id="ytick_2">
     <g id="line2d_15">
      <path clip-path="url(#pf6b3b39eb5)" d="M 78.57 157.379832 
L 565.704 157.379832 
" style="fill:none;stroke:#b0b0b0;stroke-linecap:square;stroke-width:0.8;"/>
     </g>
     <g id="line2d_16">
      <g>
       <use style="stroke:#000000;stroke-width:0.8;" x="78.57" xlink:href="#mcccdb3a3f8" y="157.379832"/>
      </g>
     </g>
     <g id="text_8">
      <!-- −5 -->
      <g transform="translate(56.827813 161.179051)scale(0.1 -0.1)">
       <use xlink:href="#DejaVuSans-2212"/>
       <use x="83.789062" xlink:href="#DejaVuSans-35"/>
      </g>
     </g>
    </g>
    <g id="ytick_3">
     <g id="line2d_17">
      <path clip-path="url(#pf6b3b39eb5)" d="M 78.57 126.446262 
L 565.704 126.446262 
" style="fill:none;stroke:#b0b0b0;stroke-linecap:square;stroke-width:0.8;"/>
     </g>
     <g id="line2d_18">
      <g>
       <use style="stroke:#000000;stroke-width:0.8;" x="78.57" xlink:href="#mcccdb3a3f8" y="126.446262"/>
      </g>
     </g>
     <g id="text_9">
      <!-- 0 -->
      <g transform="translate(65.2075 130.245481)scale(0.1 -0.1)">
       <use xlink:href="#DejaVuSans-30"/>
      </g>
     </g>
    </g>
    <g id="ytick_4">
     <g id="line2d_19">
      <path clip-path="url(#pf6b3b39eb5)" d="M 78.57 95.512692 
L 565.704 95.512692 
" style="fill:none;stroke:#b0b0b0;stroke-linecap:square;stroke-width:0.8;"/>
     </g>
     <g id="line2d_20">
      <g>
       <use style="stroke:#000000;stroke-width:0.8;" x="78.57" xlink:href="#mcccdb3a3f8" y="95.512692"/>
      </g>
     </g>
     <g id="text_10">
      <!-- 5 -->
      <g transform="translate(65.2075 99.311911)scale(0.1 -0.1)">
       <use xlink:href="#DejaVuSans-35"/>
      </g>
     </g>
    </g>
    <g id="ytick_5">
     <g id="line2d_21">
      <path clip-path="url(#pf6b3b39eb5)" d="M 78.57 64.579123 
L 565.704 64.579123 
" style="fill:none;stroke:#b0b0b0;stroke-linecap:square;stroke-width:0.8;"/>
     </g>
     <g id="line2d_22">
      <g>
       <use style="stroke:#000000;stroke-width:0.8;" x="78.57" xlink:href="#mcccdb3a3f8" y="64.579123"/>
      </g>
     </g>
     <g id="text_11">
      <!-- 10 -->
      <g transform="translate(58.845 68.378341)scale(0.1 -0.1)">
       <use xlink:href="#DejaVuSans-31"/>
       <use x="63.623047" xlink:href="#DejaVuSans-30"/>
      </g>
     </g>
    </g>
    <g id="ytick_6">
     <g id="line2d_23">
      <path clip-path="url(#pf6b3b39eb5)" d="M 78.57 33.645553 
L 565.704 33.645553 
" style="fill:none;stroke:#b0b0b0;stroke-linecap:square;stroke-width:0.8;"/>
     </g>
     <g id="line2d_24">
      <g>
       <use style="stroke:#000000;stroke-width:0.8;" x="78.57" xlink:href="#mcccdb3a3f8" y="33.645553"/>
      </g>
     </g>
     <g id="text_12">
      <!-- 15 -->
      <g transform="translate(58.845 37.444771)scale(0.1 -0.1)">
       <use xlink:href="#DejaVuSans-31"/>
       <use x="63.623047" xlink:href="#DejaVuSans-35"/>
      </g>
     </g>
    </g>
   </g>
   <g id="line2d_25">
    <path clip-path="url(#pf6b3b39eb5)" d="M 100.712455 108.74928 
L 101.029455 98.885775 
L 102.297455 78.068592 
L 103.089955 67.878707 
L 103.248455 67.595913 
L 104.516455 67.610549 
L 130.193461 67.673505 
L 130.668961 72.443324 
L 131.461461 82.389317 
L 132.253961 94.998045 
L 133.838961 126.016116 
L 133.997461 127.2852 
L 134.155961 127.11718 
L 134.472961 125.756633 
L 134.631462 126.120727 
L 134.789962 126.804102 
L 134.948462 126.966263 
L 135.265462 126.198224 
L 135.423962 126.142963 
L 135.740962 126.593006 
L 136.057962 126.433668 
L 136.533462 126.396524 
L 136.850462 126.537156 
L 137.325962 126.437054 
L 138.276962 126.578479 
L 138.593962 126.26534 
L 139.069462 126.617498 
L 139.544963 126.309229 
L 140.020463 126.557254 
L 140.337463 126.396552 
L 140.495963 126.291758 
L 141.129963 126.524372 
L 141.446963 126.334196 
L 141.763963 126.405128 
L 142.080963 126.595268 
L 142.239463 126.545934 
L 142.556463 126.21104 
L 143.031963 126.704534 
L 143.507463 126.170673 
L 143.824463 126.676818 
L 143.982963 126.701759 
L 144.458464 126.154499 
L 144.933964 126.740853 
L 145.250964 126.137989 
L 145.409464 126.160135 
L 145.726464 126.750142 
L 145.884964 126.651548 
L 146.201964 126.236781 
L 146.360464 126.282974 
L 146.677464 126.629222 
L 146.835964 126.627332 
L 147.311464 126.227294 
L 147.786964 126.641 
L 148.262464 126.256091 
L 148.579464 126.525551 
L 148.737964 126.653835 
L 148.896464 126.610359 
L 149.213465 126.190333 
L 149.371965 126.248546 
L 149.688965 126.73212 
L 149.847465 126.594643 
L 150.164465 126.138125 
L 150.639965 126.73667 
L 151.115465 126.177834 
L 151.590965 126.73624 
L 152.066465 126.161407 
L 152.383465 126.668541 
L 152.541965 126.65363 
L 152.858965 126.271338 
L 153.175965 126.44919 
L 153.492965 126.566465 
L 153.968465 126.334976 
L 154.602466 126.524892 
L 154.919466 126.325662 
L 155.236466 126.471735 
L 155.553466 126.578592 
L 156.028966 126.280881 
L 156.345966 126.683205 
L 156.504466 126.610306 
L 156.821466 126.192717 
L 157.296966 126.663648 
L 157.772466 126.254442 
L 158.247966 126.606968 
L 158.723466 126.306034 
L 159.040467 126.61159 
L 159.674467 126.404014 
L 159.832967 126.535834 
L 160.942467 126.451031 
L 163.319967 126.351659 
L 163.478467 126.306929 
L 163.795467 126.613707 
L 163.953968 126.559792 
L 164.270968 126.267323 
L 164.746468 126.62298 
L 165.221968 126.290473 
L 165.697468 126.612085 
L 166.172968 126.291624 
L 166.489968 126.63403 
L 166.965468 126.259653 
L 167.440968 126.578438 
L 167.916468 126.356127 
L 168.391968 126.531852 
L 169.025969 126.386179 
L 169.342969 126.520275 
L 169.818469 126.398328 
L 169.976969 126.329281 
L 170.610969 126.524728 
L 170.927969 126.223441 
L 171.403469 126.645674 
L 171.720469 126.24578 
L 171.878969 126.250383 
L 172.195969 126.668923 
L 172.354469 126.624111 
L 172.671469 126.223238 
L 172.829969 126.266265 
L 173.146969 126.699704 
L 173.305469 126.584345 
L 173.62247 126.208959 
L 174.09797 126.640089 
L 174.57347 126.314452 
L 175.04897 126.566388 
L 175.68297 126.374108 
L 175.99997 126.551778 
L 176.31697 126.44139 
L 176.63397 126.3288 
L 177.10947 126.607588 
L 177.58497 126.248541 
L 178.06047 126.642805 
L 178.37747 126.215519 
L 178.535971 126.257082 
L 178.852971 126.686899 
L 179.011471 126.612391 
L 179.328471 126.211062 
L 179.486971 126.304164 
L 179.803971 126.686879 
L 179.962471 126.573234 
L 180.279471 126.198216 
L 180.754971 126.636842 
L 181.230471 126.294398 
L 181.547471 126.577917 
L 182.339971 126.427113 
L 182.656971 126.533552 
L 183.290971 126.390242 
L 183.607972 126.556812 
L 183.924972 126.43468 
L 184.241972 126.317157 
L 184.558972 126.617994 
L 184.717472 126.594465 
L 185.034472 126.229078 
L 185.192972 126.301852 
L 185.509972 126.66903 
L 185.985472 126.228271 
L 186.460972 126.651435 
L 186.936472 126.24966 
L 187.411972 126.601503 
L 187.728972 126.253624 
L 188.045972 126.502156 
L 188.204473 126.615872 
L 188.679973 126.314026 
L 189.155473 126.559195 
L 189.789473 126.375152 
L 190.106473 126.540312 
L 190.423473 126.446022 
L 190.740473 126.343566 
L 191.215973 126.581428 
L 191.849973 126.387374 
L 192.166973 126.632304 
L 192.642473 126.255948 
L 192.959473 126.645738 
L 193.117974 126.616109 
L 193.434974 126.241707 
L 193.593474 126.285186 
L 193.910474 126.656481 
L 194.068974 126.581358 
L 194.385974 126.228549 
L 194.861474 126.639909 
L 195.336974 126.276014 
L 195.812474 126.57237 
L 196.287974 126.337113 
L 196.763474 126.550003 
L 197.397474 126.389301 
L 197.714474 126.563063 
L 198.031475 126.419381 
L 198.348475 126.326442 
L 198.665475 126.600403 
L 198.823975 126.588057 
L 199.140975 126.252952 
L 199.299475 126.287599 
L 199.616475 126.653024 
L 199.774975 126.576152 
L 200.091975 126.234439 
L 200.408975 126.559795 
L 200.567475 126.661706 
L 201.042975 126.229105 
L 201.518475 126.645883 
L 201.993975 126.260482 
L 202.310975 126.611255 
L 202.627975 126.431725 
L 202.786475 126.301251 
L 203.103476 126.466626 
L 203.261976 126.579091 
L 203.578976 126.441874 
L 203.895976 126.341447 
L 204.371476 126.550888 
L 204.846976 126.319558 
L 205.322476 126.588145 
L 205.956476 126.361836 
L 206.273476 126.630453 
L 206.748976 126.240392 
L 207.224476 126.639733 
L 207.699977 126.253364 
L 208.175477 126.620168 
L 208.492477 126.248461 
L 208.650977 126.27546 
L 208.967977 126.647122 
L 209.284977 126.38511 
L 209.443477 126.253292 
L 210.077477 126.518046 
L 210.394477 126.301893 
L 211.028477 126.515165 
L 211.345477 126.313955 
L 211.662477 126.500698 
L 211.979477 126.537543 
L 212.454977 126.31954 
L 212.930478 126.592909 
L 213.405978 126.277868 
L 213.722978 126.629368 
L 213.881478 126.599497 
L 214.198478 126.249516 
L 214.356978 126.298156 
L 214.673978 126.652524 
L 214.832478 126.581713 
L 215.149478 126.230773 
L 215.307978 126.319733 
L 215.624978 126.653715 
L 216.100478 126.23325 
L 216.575978 126.610212 
L 217.051478 126.284345 
L 217.526979 126.589682 
L 217.843979 126.363786 
L 218.002479 126.249507 
L 218.477979 126.577442 
L 219.111979 126.400461 
L 219.428979 126.515728 
L 220.062979 126.370102 
L 220.379979 126.610733 
L 221.013979 126.364519 
L 221.330979 126.636629 
L 221.806479 126.248548 
L 222.28198 126.6214 
L 222.75748 126.275583 
L 223.23298 126.603574 
L 223.54998 126.286197 
L 223.86698 126.47346 
L 224.02548 126.603568 
L 224.34248 126.416309 
L 224.50098 126.314508 
L 224.81798 126.447707 
L 225.13498 126.560245 
L 225.61048 126.333418 
L 225.92748 126.588444 
L 226.08598 126.561867 
L 226.40298 126.318941 
L 226.71998 126.447322 
L 227.03698 126.581718 
L 227.512481 126.280143 
L 227.987981 126.61226 
L 228.304981 126.268494 
L 228.463481 126.288627 
L 228.780481 126.619484 
L 228.938981 126.595819 
L 229.255981 126.268765 
L 229.414481 126.294379 
L 229.731481 126.63668 
L 229.889981 126.59282 
L 230.206981 126.23376 
L 230.365481 126.308097 
L 230.682481 126.640426 
L 231.316481 126.354052 
L 231.633481 126.607144 
L 232.267482 126.345798 
L 232.584482 126.610237 
L 233.218482 126.359282 
L 233.535482 126.606919 
L 234.169482 126.335509 
L 234.486482 126.615872 
L 234.803482 126.394595 
L 234.961982 126.261897 
L 235.120482 126.327208 
L 235.437482 126.626188 
L 236.071482 126.3547 
L 236.388482 126.621646 
L 237.022483 126.363125 
L 237.339483 126.621286 
L 237.814983 126.26476 
L 238.290483 126.60252 
L 238.765983 126.295048 
L 239.241483 126.592274 
L 239.716983 126.286705 
L 240.192483 126.575248 
L 240.667983 126.302897 
L 241.143483 126.591093 
L 241.618983 126.279736 
L 242.094484 126.608839 
L 242.569984 126.26799 
L 243.045484 126.60259 
L 243.520984 126.28352 
L 243.996484 126.60016 
L 244.471984 126.283028 
L 244.788984 126.618931 
L 244.947484 126.579025 
L 245.264484 126.276924 
L 245.422984 126.320386 
L 245.739984 126.619121 
L 246.056984 126.403527 
L 246.215484 126.283549 
L 246.373984 126.333276 
L 246.690985 126.612895 
L 247.007985 126.392764 
L 247.166485 126.275521 
L 247.483485 126.510116 
L 247.641985 126.611542 
L 247.958985 126.396699 
L 248.117485 126.283364 
L 248.434485 126.501715 
L 248.592985 126.60905 
L 248.909985 126.410522 
L 249.068485 126.276223 
L 249.226985 126.32749 
L 249.543985 126.618103 
L 249.860985 126.401317 
L 250.019485 126.256886 
L 250.177985 126.323653 
L 250.494985 126.632753 
L 250.811985 126.391469 
L 250.970485 126.260452 
L 251.287485 126.52626 
L 251.445985 126.625642 
L 252.079986 126.354946 
L 252.396986 126.622404 
L 252.872486 126.263874 
L 253.347986 126.613899 
L 253.823486 126.272195 
L 254.298986 126.60177 
L 254.774486 126.284854 
L 255.249986 126.591562 
L 255.725486 126.287122 
L 256.200986 126.599014 
L 256.676487 126.275902 
L 257.151987 126.604199 
L 257.627487 126.274945 
L 258.102987 126.606928 
L 258.578487 126.271457 
L 259.053987 126.601555 
L 259.529487 126.28235 
L 260.004987 126.592884 
L 260.480487 126.296145 
L 260.797487 126.611876 
L 261.114487 126.432662 
L 261.272988 126.283741 
L 261.431488 126.309299 
L 261.748488 126.611269 
L 262.065488 126.425939 
L 262.223988 126.284958 
L 262.382488 126.310153 
L 262.699488 126.609568 
L 263.016488 126.425713 
L 263.174988 126.284789 
L 263.333488 126.309107 
L 263.650488 126.612671 
L 263.967488 126.423161 
L 264.125988 126.280332 
L 264.284488 126.309611 
L 264.601488 126.619185 
L 264.918488 126.419161 
L 265.076988 126.271787 
L 265.235488 126.30914 
L 265.552488 126.622802 
L 265.869488 126.409414 
L 266.027988 126.270818 
L 266.186489 126.317788 
L 266.503489 126.621703 
L 266.820489 126.39323 
L 266.978989 126.264629 
L 267.295989 126.517376 
L 267.454489 126.625597 
L 268.088489 126.347358 
L 268.405489 126.62147 
L 269.039489 126.354509 
L 269.356489 126.613778 
L 269.990489 126.359461 
L 270.307489 126.612137 
L 270.941489 126.366959 
L 271.25849 126.616604 
L 271.73399 126.26461 
L 272.20949 126.620235 
L 272.68499 126.264335 
L 273.16049 126.619421 
L 273.63599 126.262737 
L 274.11149 126.618377 
L 274.58699 126.268918 
L 275.06249 126.609253 
L 275.53799 126.280154 
L 276.013491 126.598277 
L 276.488991 126.284531 
L 276.964491 126.595669 
L 277.439991 126.288797 
L 277.915491 126.591963 
L 278.390991 126.289552 
L 278.707991 126.606801 
L 278.866491 126.590207 
L 279.341991 126.291785 
L 279.658991 126.613004 
L 279.817491 126.587134 
L 280.292991 126.294916 
L 280.609991 126.618317 
L 280.768492 126.58283 
L 281.085492 126.276898 
L 281.243992 126.299611 
L 281.560992 126.623871 
L 281.877992 126.420083 
L 282.036492 126.268013 
L 282.194992 126.305782 
L 282.511992 126.626098 
L 282.828992 126.409224 
L 282.987492 126.266784 
L 283.145992 126.31606 
L 283.462992 126.625835 
L 283.779992 126.400021 
L 283.938492 126.263684 
L 284.096992 126.322176 
L 284.413992 126.625493 
L 284.730992 126.386565 
L 284.889492 126.260278 
L 285.206492 126.52038 
L 285.364992 126.624354 
L 285.681993 126.386907 
L 285.840493 126.262101 
L 286.157493 126.524129 
L 286.315993 126.623817 
L 286.949993 126.347762 
L 287.266993 126.615233 
L 287.900993 126.352682 
L 288.217993 126.610664 
L 288.851993 126.357298 
L 289.168993 126.603039 
L 289.802993 126.371585 
L 290.119993 126.600152 
L 290.595494 126.276351 
L 291.070994 126.611898 
L 291.546494 126.272558 
L 292.021994 126.612828 
L 292.497494 126.278182 
L 292.972994 126.610958 
L 293.448494 126.279384 
L 293.923994 126.606375 
L 294.399494 126.283539 
L 294.874994 126.601135 
L 295.350495 126.289666 
L 295.825995 126.594177 
L 296.301495 126.290019 
L 296.618495 126.609269 
L 296.776995 126.592397 
L 297.252495 126.293291 
L 297.569495 126.613101 
L 297.727995 126.587355 
L 298.044995 126.277452 
L 298.203495 126.297008 
L 298.520495 126.619176 
L 298.678995 126.580304 
L 298.995995 126.274532 
L 299.154495 126.30376 
L 299.471495 126.622493 
L 299.788495 126.416706 
L 299.946995 126.27106 
L 300.105495 126.310293 
L 300.422496 126.625241 
L 300.739496 126.40896 
L 300.897996 126.268289 
L 301.056496 126.316109 
L 301.373496 126.624484 
L 301.690496 126.404833 
L 301.848996 126.268297 
L 302.007496 126.325411 
L 302.324496 126.625555 
L 302.641496 126.394421 
L 302.799996 126.266561 
L 303.116996 126.515934 
L 303.275496 126.624059 
L 303.909496 126.339857 
L 304.226496 126.624645 
L 304.860496 126.346644 
L 305.177497 126.623493 
L 305.811497 126.35372 
L 306.128497 126.621455 
L 306.762497 126.362159 
L 307.079497 126.619808 
L 307.554997 126.263513 
L 308.030497 126.617092 
L 308.505997 126.265843 
L 308.981497 126.615446 
L 309.456997 126.266976 
L 309.932497 126.611798 
L 310.407998 126.268459 
L 310.883498 126.610576 
L 311.358998 126.270478 
L 311.834498 126.606685 
L 312.309998 126.273802 
L 312.785498 126.602109 
L 313.260998 126.278672 
L 313.736498 126.598243 
L 314.211998 126.282637 
L 314.528998 126.608174 
L 314.687498 126.590959 
L 315.162999 126.290901 
L 315.479999 126.613532 
L 315.638499 126.585315 
L 316.113999 126.295978 
L 316.430999 126.618035 
L 316.747999 126.429912 
L 316.906499 126.279047 
L 317.064999 126.303207 
L 317.381999 126.620913 
L 317.698999 126.422162 
L 317.857499 126.275833 
L 318.015999 126.308827 
L 318.332999 126.623254 
L 318.649999 126.412635 
L 318.808499 126.270184 
L 318.966999 126.314346 
L 319.283999 126.626227 
L 319.600999 126.401336 
L 319.7595 126.267222 
L 319.918 126.321202 
L 320.235 126.627593 
L 320.552 126.392939 
L 320.7105 126.266063 
L 320.869 126.327907 
L 321.186 126.625205 
L 321.503 126.385568 
L 321.6615 126.263494 
L 321.9785 126.524204 
L 322.137 126.623377 
L 322.771 126.347244 
L 323.088 126.618088 
L 323.722 126.367235 
L 324.039 126.611279 
L 324.1975 126.554442 
L 324.5145 126.258601 
L 325.148501 126.514878 
L 325.465501 126.287182 
L 325.941001 126.585597 
L 326.416501 126.283911 
L 326.892001 126.607505 
L 327.367501 126.264825 
L 327.843001 126.610036 
L 328.318501 126.277572 
L 328.794001 126.608711 
L 329.269501 126.279679 
L 329.745002 126.603811 
L 330.220502 126.282035 
L 330.696002 126.595865 
L 331.171502 126.292397 
L 331.647002 126.595923 
L 332.122502 126.290278 
L 332.439502 126.612571 
L 332.598002 126.589722 
L 332.915002 126.282315 
L 333.073502 126.296488 
L 333.390502 126.613568 
L 333.549002 126.586453 
L 333.866002 126.280166 
L 334.024502 126.299151 
L 334.341503 126.617447 
L 334.500003 126.580001 
L 334.817003 126.274365 
L 334.975503 126.303225 
L 335.292503 126.621343 
L 335.609503 126.419531 
L 335.768003 126.274675 
L 335.926503 126.309891 
L 336.243503 126.623068 
L 336.560503 126.41377 
L 336.719003 126.26864 
L 336.877503 126.313361 
L 337.194503 126.626753 
L 337.511503 126.404931 
L 337.670003 126.266123 
L 337.828503 126.322086 
L 338.145503 126.627984 
L 338.462503 126.398698 
L 338.621003 126.264796 
L 338.938003 126.510834 
L 339.096503 126.627501 
L 339.413504 126.387143 
L 339.572004 126.260759 
L 339.889004 126.523203 
L 340.047504 126.627047 
L 340.681504 126.344055 
L 340.998504 126.623798 
L 341.632504 126.350938 
L 341.949504 126.623513 
L 342.583504 126.361786 
L 342.900504 126.621494 
L 343.376004 126.262565 
L 343.851504 126.618866 
L 344.327005 126.260888 
L 344.802505 126.617048 
L 345.278005 126.263069 
L 345.753505 126.613935 
L 346.229005 126.264134 
L 346.704505 126.612732 
L 347.180005 126.268956 
L 347.655505 126.607682 
L 348.131005 126.274695 
L 348.606505 126.600722 
L 349.082006 126.281864 
L 349.557506 126.595351 
L 350.033006 126.286099 
L 350.350006 126.604926 
L 350.508506 126.591921 
L 350.984006 126.290144 
L 351.301006 126.610206 
L 351.459506 126.585084 
L 351.935006 126.296961 
L 352.252006 126.616313 
L 352.569006 126.432946 
L 352.727506 126.282128 
L 352.886006 126.30367 
L 353.203006 126.620697 
L 353.520006 126.422661 
L 353.678506 126.274474 
L 353.837007 126.309038 
L 354.154007 126.625999 
L 354.471007 126.413674 
L 354.629507 126.270553 
L 354.788007 126.314935 
L 355.105007 126.626361 
L 355.422007 126.404866 
L 355.580507 126.270462 
L 355.739007 126.323699 
L 356.056007 126.624778 
L 356.373007 126.394087 
L 356.531507 126.267212 
L 356.848507 126.513487 
L 357.007007 126.627034 
L 357.641007 126.338145 
L 357.958007 126.626718 
L 358.592007 126.348022 
L 358.909008 126.617842 
L 359.543008 126.353545 
L 359.860008 126.613973 
L 360.494008 126.371563 
L 360.811008 126.583247 
L 361.128008 126.412151 
L 361.286508 126.305663 
L 361.920508 126.49166 
L 362.237508 126.292143 
L 362.713008 126.584386 
L 363.188508 126.302141 
L 363.664009 126.595446 
L 364.139509 126.284996 
L 364.615009 126.612267 
L 365.090509 126.277908 
L 365.566009 126.617724 
L 365.883009 126.30904 
L 366.041509 126.300437 
L 366.517009 126.59139 
L 366.992509 126.308187 
L 367.468009 126.586824 
L 367.943509 126.310004 
L 368.260509 126.595508 
L 368.41901 126.588295 
L 368.89451 126.305483 
L 369.21151 126.602519 
L 369.37001 126.593194 
L 369.84551 126.295736 
L 370.16251 126.609329 
L 370.32101 126.591505 
L 370.63801 126.27709 
L 370.79651 126.298492 
L 371.11351 126.6114 
L 371.27201 126.589231 
L 371.58901 126.274325 
L 371.74751 126.299767 
L 372.06451 126.6154 
L 372.22301 126.577111 
L 372.54001 126.272846 
L 372.69851 126.310725 
L 373.01551 126.617037 
L 373.332511 126.408492 
L 373.491011 126.273686 
L 373.649511 126.320208 
L 373.966511 126.619023 
L 374.283511 126.404432 
L 374.442011 126.270404 
L 374.600511 126.32905 
L 374.917511 126.619957 
L 375.234511 126.398113 
L 375.393011 126.270407 
L 375.710011 126.514668 
L 375.868511 126.61783 
L 376.502511 126.342138 
L 376.819511 126.619089 
L 377.453511 126.350878 
L 377.770511 126.620338 
L 378.404512 126.360828 
L 378.721512 126.615439 
L 379.197012 126.267736 
L 379.672512 126.634861 
L 380.148012 126.423508 
L 380.465012 127.965267 
L 380.623512 127.616163 
L 380.782012 125.757863 
L 380.940512 125.354572 
L 381.099012 125.701675 
L 381.257512 125.590882 
L 381.574512 126.460955 
L 381.733012 126.555018 
L 381.891512 126.299097 
L 382.050012 126.451371 
L 383.001012 126.501022 
L 383.159513 126.602457 
L 383.793513 126.333642 
L 384.269013 126.478021 
L 384.586013 126.363064 
L 384.903013 126.648638 
L 385.061513 126.542363 
L 385.378513 126.115348 
L 385.695513 126.674859 
L 385.854013 126.63145 
L 386.171013 126.263273 
L 386.329513 126.349752 
L 386.646513 126.671687 
L 387.122013 126.237037 
L 387.597513 126.62783 
L 387.914514 126.322913 
L 388.390014 126.54822 
L 388.707014 126.32461 
L 389.024014 126.56814 
L 389.341014 126.353357 
L 389.975014 126.487241 
L 390.133514 126.317234 
L 390.292014 126.318669 
L 390.609014 126.605992 
L 390.926014 126.406893 
L 391.084514 126.255129 
L 391.243014 126.300011 
L 391.560014 126.710832 
L 392.035514 126.209994 
L 392.352514 126.740195 
L 392.511014 126.63822 
L 392.828015 126.165129 
L 393.145015 126.635395 
L 393.303515 126.635433 
L 393.620515 126.235979 
L 393.779015 126.31017 
L 394.096015 126.622057 
L 394.571515 126.265098 
L 395.047015 126.586975 
L 395.364015 126.239862 
L 395.839515 126.615087 
L 396.156515 126.224632 
L 396.473515 126.630302 
L 396.632015 126.572811 
L 396.949015 126.286322 
L 397.424515 126.597129 
L 397.741516 126.294784 
L 398.058516 126.494055 
L 398.217016 126.633779 
L 398.375516 126.549382 
L 398.692516 126.228149 
L 399.009516 126.686195 
L 399.168016 126.583699 
L 399.485016 126.179513 
L 399.802016 126.715533 
L 399.960516 126.62797 
L 400.277516 126.200408 
L 400.753016 126.658857 
L 401.070016 126.215358 
L 401.228516 126.287084 
L 401.545516 126.697803 
L 401.704016 126.582457 
L 402.021016 126.150765 
L 402.338016 126.718659 
L 402.496516 126.666716 
L 402.813517 126.164514 
L 403.289017 126.680708 
L 403.606017 126.233605 
L 404.081517 126.589325 
L 404.398517 126.309867 
L 404.557017 126.351218 
L 404.874017 126.607786 
L 405.349517 126.281116 
L 405.666517 126.678221 
L 405.825017 126.547244 
L 405.983517 126.246394 
L 406.142017 126.187864 
L 406.459017 126.729319 
L 406.617517 126.647087 
L 406.934517 126.127432 
L 407.410018 126.685461 
L 407.727018 126.158586 
L 407.885518 126.260145 
L 408.202518 126.772722 
L 408.678018 126.150414 
L 408.995018 126.716313 
L 409.153518 126.69332 
L 409.470518 126.140358 
L 409.946018 126.675773 
L 410.263018 126.213196 
L 410.421518 126.340825 
L 410.580018 126.619559 
L 410.738518 126.661336 
L 411.055518 126.252563 
L 411.531018 126.609546 
L 411.848018 126.279387 
L 412.006518 126.320757 
L 412.323519 126.667507 
L 412.799019 126.191763 
L 413.116019 126.737665 
L 413.274519 126.649487 
L 413.591519 126.114718 
L 414.067019 126.733842 
L 414.384019 126.119638 
L 414.542519 126.25759 
L 414.859519 126.747702 
L 415.335019 126.182409 
L 415.652019 126.747919 
L 415.810519 126.647578 
L 416.127519 126.152565 
L 416.603019 126.670942 
L 416.920019 126.237358 
L 417.078519 126.351233 
L 417.23702 126.643618 
L 417.39552 126.640751 
L 417.71252 126.169736 
L 418.18802 126.705641 
L 418.50502 126.23743 
L 418.66352 126.282314 
L 418.98052 126.668752 
L 419.45602 126.229359 
L 419.77302 126.718356 
L 419.93152 126.621702 
L 420.24852 126.12832 
L 420.72402 126.728995 
L 421.04102 126.109474 
L 421.19952 126.264211 
L 421.51652 126.753743 
L 421.83352 126.190168 
L 421.99202 126.215592 
L 422.309021 126.74204 
L 422.467521 126.587218 
L 422.784521 126.179118 
L 423.101521 126.684643 
L 423.260021 126.672364 
L 423.577021 126.167117 
L 424.052521 126.685759 
L 424.369521 126.199959 
L 424.528021 126.302601 
L 424.845021 126.699387 
L 425.162021 126.206809 
L 425.320521 126.282201 
L 425.637521 126.697966 
L 426.113021 126.221461 
L 426.430021 126.724553 
L 426.588521 126.609301 
L 426.905522 126.139727 
L 427.381022 126.71401 
L 427.698022 126.120398 
L 427.856522 126.270502 
L 428.173522 126.763249 
L 428.490522 126.162808 
L 428.649022 126.212294 
L 428.966022 126.743682 
L 429.441522 126.176102 
L 429.758522 126.740313 
L 429.917022 126.659073 
L 430.234022 126.143508 
L 430.709522 126.720386 
L 431.026522 126.169031 
L 431.185022 126.276969 
L 431.502022 126.718837 
L 431.819023 126.205156 
L 431.977523 126.251914 
L 432.294523 126.721762 
L 432.770023 126.216612 
L 433.087023 126.713345 
L 433.245523 126.593184 
L 433.562523 126.164521 
L 433.879523 126.7114 
L 434.038023 126.674484 
L 434.355023 126.128254 
L 434.513523 126.301786 
L 434.672023 126.668006 
L 434.830523 126.753343 
L 435.147523 126.145736 
L 435.306023 126.215823 
L 435.623023 126.772046 
L 436.098523 126.162534 
L 436.415523 126.758826 
L 436.574023 126.633878 
L 436.891024 126.12875 
L 437.366524 126.723884 
L 437.683524 126.142131 
L 437.842024 126.281778 
L 438.159024 126.733252 
L 438.476024 126.186629 
L 438.634524 126.239213 
L 438.951524 126.739423 
L 439.427024 126.200229 
L 439.744024 126.729852 
L 439.902524 126.59726 
L 440.219524 126.162016 
L 440.536524 126.72332 
L 440.695024 126.664901 
L 441.012024 126.117956 
L 441.487525 126.74702 
L 441.804525 126.12712 
L 441.963025 126.217272 
L 442.280025 126.787714 
L 442.755525 126.155273 
L 443.072525 126.768829 
L 443.231025 126.630751 
L 443.548025 126.127947 
L 443.865025 126.72599 
L 444.023525 126.703253 
L 444.340525 126.12493 
L 444.816025 126.746205 
L 445.133025 126.160463 
L 445.291525 126.239928 
L 445.608525 126.751128 
L 446.084025 126.194985 
L 446.401026 126.753853 
L 446.559526 126.604688 
L 446.876526 126.143361 
L 447.193526 126.738727 
L 447.352026 126.674921 
L 447.669026 126.112756 
L 448.144526 126.744801 
L 448.461526 126.120114 
L 448.620026 126.232821 
L 448.937026 126.781438 
L 449.412526 126.163788 
L 449.729526 126.780624 
L 449.888026 126.619019 
L 450.205026 126.128151 
L 450.522026 126.737224 
L 450.680526 126.68814 
L 450.997526 126.116939 
L 451.473027 126.744205 
L 451.790027 126.137086 
L 451.948527 126.251068 
L 452.265527 126.770999 
L 452.582527 126.167836 
L 452.741027 126.191503 
L 453.058027 126.775493 
L 453.216527 126.596816 
L 453.375027 126.218709 
L 453.533527 126.132138 
L 453.850527 126.75658 
L 454.009027 126.683481 
L 454.326027 126.109021 
L 454.801527 126.743038 
L 455.118527 126.116934 
L 455.277027 126.245356 
L 455.594027 126.778264 
L 455.911027 126.153159 
L 456.069527 126.179518 
L 456.386528 126.786359 
L 456.545028 126.597524 
L 456.862028 126.132116 
L 457.179028 126.755074 
L 457.337528 126.676266 
L 457.654528 126.114214 
L 458.130028 126.732851 
L 458.447028 126.123916 
L 458.605528 126.267858 
L 458.922528 126.772917 
L 459.239528 126.149563 
L 459.398028 126.19402 
L 459.715028 126.789681 
L 460.190528 126.132824 
L 460.507528 126.773771 
L 460.666028 126.673419 
L 460.983029 126.103254 
L 461.458529 126.738129 
L 461.775529 126.10701 
L 461.934029 126.261749 
L 462.251029 126.777777 
L 462.568029 126.147877 
L 462.726529 126.185324 
L 463.043529 126.782738 
L 463.519029 126.141195 
L 463.836029 126.769409 
L 463.994529 126.658568 
L 464.311529 126.112232 
L 464.787029 126.725903 
L 465.104029 126.113036 
L 465.262529 126.28307 
L 465.579529 126.770227 
L 465.89653 126.138251 
L 466.05503 126.20092 
L 466.37203 126.789943 
L 466.84753 126.142831 
L 467.16453 126.778204 
L 467.32303 126.65629 
L 467.64003 126.10839 
L 468.11553 126.726898 
L 468.43253 126.105879 
L 468.59103 126.28106 
L 468.90803 126.771367 
L 469.22503 126.136667 
L 469.38353 126.201032 
L 469.70053 126.786517 
L 470.17603 126.149928 
L 470.49303 126.776902 
L 470.65153 126.646009 
L 470.968531 126.114494 
L 471.285531 126.736239 
L 471.444031 126.716134 
L 471.761031 126.109513 
L 471.919531 126.29735 
L 472.078031 126.67645 
L 472.236531 126.7641 
L 472.553531 126.130428 
L 472.712031 126.214774 
L 473.029031 126.788726 
L 473.504531 126.152905 
L 473.821531 126.782502 
L 473.980031 126.638412 
L 474.297031 126.113861 
L 474.614031 126.745759 
L 474.772531 126.714328 
L 475.089531 126.103199 
L 475.248031 126.302138 
L 475.406531 126.685373 
L 475.565031 126.764327 
L 475.882032 126.126078 
L 476.040532 126.217306 
L 476.357532 126.787985 
L 476.833032 126.15815 
L 477.150032 126.778715 
L 477.308532 126.629862 
L 477.625532 126.121885 
L 477.942532 126.746974 
L 478.101032 126.703907 
L 478.418032 126.105965 
L 478.893532 126.758733 
L 479.210532 126.122095 
L 479.369032 126.227612 
L 479.686032 126.785996 
L 480.161532 126.164982 
L 480.478533 126.783885 
L 480.637033 126.621802 
L 480.954033 126.122485 
L 481.271033 126.752097 
L 481.429533 126.698097 
L 481.746533 126.106234 
L 482.222033 126.752666 
L 482.539033 126.122063 
L 482.697533 126.237661 
L 483.014533 126.783335 
L 483.490033 126.16984 
L 483.807033 126.781253 
L 483.965533 126.610019 
L 484.282533 126.131345 
L 484.599533 126.757911 
L 484.758033 126.686892 
L 485.075033 126.10101 
L 485.550534 126.754519 
L 485.867534 126.115751 
L 486.026034 126.242077 
L 486.343034 126.784681 
L 486.660034 126.156458 
L 486.818534 126.175232 
L 487.135534 126.785353 
L 487.294034 126.602554 
L 487.611034 126.127561 
L 487.928034 126.76826 
L 488.086534 126.68532 
L 488.403534 126.103886 
L 488.879034 126.744696 
L 489.196034 126.113855 
L 489.354534 126.255302 
L 489.671534 126.777032 
L 489.988534 126.158516 
L 490.147034 126.182271 
L 490.464035 126.784051 
L 490.622535 126.591192 
L 490.781035 126.212867 
L 490.939535 126.136267 
L 491.256535 126.765532 
L 491.415035 126.675846 
L 491.732035 126.106283 
L 492.207535 126.737182 
L 492.524535 126.112455 
L 492.683035 126.263887 
L 493.000035 126.781784 
L 493.317035 126.148083 
L 493.475535 126.180482 
L 493.792535 126.784126 
L 493.951035 126.587749 
L 494.109535 126.212771 
L 494.268035 126.140754 
L 494.585035 126.764166 
L 494.743535 126.666825 
L 495.060535 126.110651 
L 495.536036 126.731673 
L 495.853036 126.115199 
L 496.011536 126.270169 
L 496.328536 126.769478 
L 496.645536 126.148505 
L 496.804036 126.199434 
L 497.121036 126.78053 
L 497.596536 126.146408 
L 497.913536 126.778941 
L 498.072036 126.661724 
L 498.389036 126.104726 
L 498.864536 126.729459 
L 499.181536 126.112263 
L 499.340036 126.275738 
L 499.657036 126.769629 
L 499.974037 126.143645 
L 500.132537 126.201014 
L 500.449537 126.785007 
L 500.925037 126.148141 
L 501.242037 126.766944 
L 501.400537 126.648082 
L 501.717537 126.115845 
L 502.034537 126.737716 
L 502.193037 126.718103 
L 502.510037 126.107145 
L 502.668537 126.290977 
L 502.985537 126.767142 
L 503.302537 126.13475 
L 503.461037 126.207831 
L 503.778037 126.785757 
L 504.253537 126.145525 
L 504.570537 126.77049 
L 504.729037 126.645179 
L 505.046038 126.118133 
L 505.363038 126.741056 
L 505.521538 126.713889 
L 505.838538 126.105899 
L 505.997038 126.298838 
L 506.155538 126.677822 
L 506.314038 126.767 
L 506.631038 126.130555 
L 506.789538 126.2134 
L 507.106538 126.790135 
L 507.582038 126.150546 
L 507.899038 126.782034 
L 508.057538 126.639103 
L 508.374538 126.11373 
L 508.691538 126.746023 
L 508.850038 126.712535 
L 509.167038 126.105446 
L 509.325538 126.303864 
L 509.484038 126.683173 
L 509.642538 126.756036 
L 509.959539 126.182394 
L 510.118039 126.240906 
L 510.435039 126.684583 
L 510.910539 126.292857 
L 511.227539 126.564218 
L 511.386039 126.579148 
L 511.703039 126.325853 
L 512.178539 126.545423 
L 512.495539 126.157255 
L 512.971039 126.772965 
L 513.288039 126.156035 
L 513.446539 126.205412 
L 513.763539 126.580019 
L 514.239039 126.362773 
L 514.55604 126.672723 
L 514.71454 126.554307 
L 515.03154 126.189638 
L 515.66554 126.689412 
L 515.98254 126.21819 
L 516.29954 126.497763 
L 516.77504 126.398328 
L 517.09204 126.598512 
L 517.40904 126.290964 
L 517.56754 126.33096 
L 517.88454 126.643151 
L 518.36004 126.274279 
L 518.67704 126.662236 
L 518.83554 126.60557 
L 519.15254 126.182368 
L 519.628041 126.646543 
L 519.945041 126.328896 
L 520.103541 126.345765 
L 520.420541 126.656844 
L 520.579041 126.545267 
L 520.737541 126.287118 
L 520.896041 126.270529 
L 521.213041 126.566441 
L 521.371541 126.521741 
L 521.688541 126.231009 
L 522.164041 126.616861 
L 522.481041 126.31625 
L 522.639541 126.377932 
L 522.956541 126.606267 
L 523.273541 126.272144 
L 523.590541 126.511024 
L 523.749041 126.607085 
L 524.224541 126.294344 
L 524.541542 126.63973 
L 524.700042 126.568981 
L 525.017042 126.2468 
L 525.492542 126.571343 
L 525.809542 126.275224 
L 526.285042 126.636418 
L 526.602042 126.276642 
L 526.760542 126.330844 
L 527.077542 126.614934 
L 527.553042 126.265899 
L 527.870042 126.653039 
L 528.028542 126.565109 
L 528.345542 126.255711 
L 528.821042 126.640303 
L 529.138042 126.215274 
L 529.613543 126.654034 
L 530.089043 126.272444 
L 530.406043 126.660012 
L 530.881543 126.255656 
L 531.198543 126.638812 
L 531.357043 126.583703 
L 531.674043 126.246847 
L 532.149543 126.611276 
L 532.466543 126.234057 
L 532.942043 126.63245 
L 533.259043 126.251417 
L 533.417543 126.310459 
L 533.734543 126.669956 
L 534.210044 126.268772 
L 534.527044 126.688232 
L 534.685544 126.599083 
L 535.002544 126.240438 
L 535.161044 126.542357 
L 535.319544 127.829695 
L 535.478044 131.470088 
L 535.795044 148.142552 
L 535.953544 185.271687 
L 536.112044 185.285999 
L 536.270544 182.615399 
L 536.587544 146.44252 
L 536.746044 139.0958 
L 537.380044 83.492646 
L 537.538544 77.145644 
L 537.855544 91.891862 
L 538.014044 93.612836 
L 538.648044 115.581822 
L 539.123545 131.687205 
L 539.440545 123.951902 
L 539.599045 124.631844 
L 539.757545 127.779363 
L 540.550045 162.420246 
L 541.025545 185.2956 
L 542.135045 185.284495 
L 542.452045 173.384878 
L 542.610545 177.044478 
L 542.769045 174.194032 
L 542.927545 150.641835 
L 543.244545 96.104357 
L 543.403045 67.92365 
L 543.561545 67.823243 
L 543.561545 67.823243 
" style="fill:none;stroke:#1f77b4;stroke-linecap:square;stroke-width:1.5;"/>
   </g>
   <g id="line2d_26">
    <path clip-path="url(#pf6b3b39eb5)" d="M 100.712455 126.446262 
L 101.187955 125.749421 
L 101.821955 124.366803 
L 102.614455 122.065911 
L 103.882455 117.484274 
L 115.452958 74.92668 
L 117.513458 68.566634 
L 119.732458 62.425181 
L 122.268459 56.06341 
L 125.12146 49.53596 
L 128.13296 43.201625 
L 131.461461 36.721142 
L 132.887961 34.215213 
L 133.363461 33.794538 
L 133.838961 33.641392 
L 137.642962 33.645751 
L 242.252984 33.646933 
L 285.047992 33.644853 
L 300.580996 33.646045 
L 315.162999 33.645518 
L 326.575001 33.64447 
L 355.263507 33.646049 
L 369.84551 33.64546 
L 380.465012 33.654982 
L 381.416012 33.648071 
L 386.646513 33.645197 
L 394.413015 33.647138 
L 412.165018 33.643958 
L 430.234022 33.646935 
L 436.257023 33.642927 
L 493.475535 33.645274 
L 499.815536 33.647878 
L 535.636544 33.709995 
L 535.953544 34.046462 
L 536.587544 36.108644 
L 536.904544 36.435102 
L 537.063044 36.399285 
L 537.380044 35.913038 
L 538.648044 33.739463 
L 538.965045 33.5916 
L 539.599045 33.659379 
L 539.916045 33.654566 
L 540.233045 33.870833 
L 540.550045 34.364487 
L 541.025545 35.692173 
L 542.927545 42.393583 
L 543.086045 42.635539 
L 543.403045 42.163499 
L 543.561545 41.847407 
L 543.561545 41.847407 
" style="fill:none;stroke:#ff7f0e;stroke-linecap:square;stroke-width:1.5;"/>
   </g>
   <g id="patch_3">
    <path d="M 78.57 192.8808 
L 78.57 26.0064 
" style="fill:none;stroke:#000000;stroke-linecap:square;stroke-linejoin:miter;stroke-width:0.8;"/>
   </g>
   <g id="patch_4">
    <path d="M 565.704 192.8808 
L 565.704 26.0064 
" style="fill:none;stroke:#000000;stroke-linecap:square;stroke-linejoin:miter;stroke-width:0.8;"/>
   </g>
   <g id="patch_5">
    <path d="M 78.57 192.8808 
L 565.704 192.8808 
" style="fill:none;stroke:#000000;stroke-linecap:square;stroke-linejoin:miter;stroke-width:0.8;"/>
   </g>
   <g id="patch_6">
    <path d="M 78.57 26.0064 
L 565.704 26.0064 
" style="fill:none;stroke:#000000;stroke-linecap:square;stroke-linejoin:miter;stroke-width:0.8;"/>
   </g>
   <g id="legend_1">
    <g id="patch_7">
     <path d="M 85.57 187.8808 
L 147.7825 187.8808 
Q 149.7825 187.8808 149.7825 185.8808 
L 149.7825 157.52455 
Q 149.7825 155.52455 147.7825 155.52455 
L 85.57 155.52455 
Q 83.57 155.52455 83.57 157.52455 
L 83.57 185.8808 
Q 83.57 187.8808 85.57 187.8808 
z
" style="fill:#ffffff;opacity:0.8;stroke:#cccccc;stroke-linejoin:miter;"/>
    </g>
    <g id="line2d_27">
     <path d="M 87.57 163.622987 
L 107.57 163.622987 
" style="fill:none;stroke:#1f77b4;stroke-linecap:square;stroke-width:1.5;"/>
    </g>
    <g id="line2d_28"/>
    <g id="text_13">
     <!-- acc -->
     <g transform="translate(115.57 167.122987)scale(0.1 -0.1)">
      <defs>
       <path d="M 2194 1759 
Q 1497 1759 1228 1600 
Q 959 1441 959 1056 
Q 959 750 1161 570 
Q 1363 391 1709 391 
Q 2188 391 2477 730 
Q 2766 1069 2766 1631 
L 2766 1759 
L 2194 1759 
z
M 3341 1997 
L 3341 0 
L 2766 0 
L 2766 531 
Q 2569 213 2275 61 
Q 1981 -91 1556 -91 
Q 1019 -91 701 211 
Q 384 513 384 1019 
Q 384 1609 779 1909 
Q 1175 2209 1959 2209 
L 2766 2209 
L 2766 2266 
Q 2766 2663 2505 2880 
Q 2244 3097 1772 3097 
Q 1472 3097 1187 3025 
Q 903 2953 641 2809 
L 641 3341 
Q 956 3463 1253 3523 
Q 1550 3584 1831 3584 
Q 2591 3584 2966 3190 
Q 3341 2797 3341 1997 
z
" id="DejaVuSans-61" transform="scale(0.015625)"/>
       <path d="M 3122 3366 
L 3122 2828 
Q 2878 2963 2633 3030 
Q 2388 3097 2138 3097 
Q 1578 3097 1268 2742 
Q 959 2388 959 1747 
Q 959 1106 1268 751 
Q 1578 397 2138 397 
Q 2388 397 2633 464 
Q 2878 531 3122 666 
L 3122 134 
Q 2881 22 2623 -34 
Q 2366 -91 2075 -91 
Q 1284 -91 818 406 
Q 353 903 353 1747 
Q 353 2603 823 3093 
Q 1294 3584 2113 3584 
Q 2378 3584 2631 3529 
Q 2884 3475 3122 3366 
z
" id="DejaVuSans-63" transform="scale(0.015625)"/>
      </defs>
      <use xlink:href="#DejaVuSans-61"/>
      <use x="61.279297" xlink:href="#DejaVuSans-63"/>
      <use x="116.259766" xlink:href="#DejaVuSans-63"/>
     </g>
    </g>
    <g id="line2d_29">
     <path d="M 87.57 178.301112 
L 107.57 178.301112 
" style="fill:none;stroke:#ff7f0e;stroke-linecap:square;stroke-width:1.5;"/>
    </g>
    <g id="line2d_30"/>
    <g id="text_14">
     <!-- speed -->
     <g transform="translate(115.57 181.801112)scale(0.1 -0.1)">
      <defs>
       <path d="M 2834 3397 
L 2834 2853 
Q 2591 2978 2328 3040 
Q 2066 3103 1784 3103 
Q 1356 3103 1142 2972 
Q 928 2841 928 2578 
Q 928 2378 1081 2264 
Q 1234 2150 1697 2047 
L 1894 2003 
Q 2506 1872 2764 1633 
Q 3022 1394 3022 966 
Q 3022 478 2636 193 
Q 2250 -91 1575 -91 
Q 1294 -91 989 -36 
Q 684 19 347 128 
L 347 722 
Q 666 556 975 473 
Q 1284 391 1588 391 
Q 1994 391 2212 530 
Q 2431 669 2431 922 
Q 2431 1156 2273 1281 
Q 2116 1406 1581 1522 
L 1381 1569 
Q 847 1681 609 1914 
Q 372 2147 372 2553 
Q 372 3047 722 3315 
Q 1072 3584 1716 3584 
Q 2034 3584 2315 3537 
Q 2597 3491 2834 3397 
z
" id="DejaVuSans-73" transform="scale(0.015625)"/>
       <path d="M 1159 525 
L 1159 -1331 
L 581 -1331 
L 581 3500 
L 1159 3500 
L 1159 2969 
Q 1341 3281 1617 3432 
Q 1894 3584 2278 3584 
Q 2916 3584 3314 3078 
Q 3713 2572 3713 1747 
Q 3713 922 3314 415 
Q 2916 -91 2278 -91 
Q 1894 -91 1617 61 
Q 1341 213 1159 525 
z
M 3116 1747 
Q 3116 2381 2855 2742 
Q 2594 3103 2138 3103 
Q 1681 3103 1420 2742 
Q 1159 2381 1159 1747 
Q 1159 1113 1420 752 
Q 1681 391 2138 391 
Q 2594 391 2855 752 
Q 3116 1113 3116 1747 
z
" id="DejaVuSans-70" transform="scale(0.015625)"/>
       <path d="M 3597 1894 
L 3597 1613 
L 953 1613 
Q 991 1019 1311 708 
Q 1631 397 2203 397 
Q 2534 397 2845 478 
Q 3156 559 3463 722 
L 3463 178 
Q 3153 47 2828 -22 
Q 2503 -91 2169 -91 
Q 1331 -91 842 396 
Q 353 884 353 1716 
Q 353 2575 817 3079 
Q 1281 3584 2069 3584 
Q 2775 3584 3186 3129 
Q 3597 2675 3597 1894 
z
M 3022 2063 
Q 3016 2534 2758 2815 
Q 2500 3097 2075 3097 
Q 1594 3097 1305 2825 
Q 1016 2553 972 2059 
L 3022 2063 
z
" id="DejaVuSans-65" transform="scale(0.015625)"/>
       <path d="M 2906 2969 
L 2906 4863 
L 3481 4863 
L 3481 0 
L 2906 0 
L 2906 525 
Q 2725 213 2448 61 
Q 2172 -91 1784 -91 
Q 1150 -91 751 415 
Q 353 922 353 1747 
Q 353 2572 751 3078 
Q 1150 3584 1784 3584 
Q 2172 3584 2448 3432 
Q 2725 3281 2906 2969 
z
M 947 1747 
Q 947 1113 1208 752 
Q 1469 391 1925 391 
Q 2381 391 2643 752 
Q 2906 1113 2906 1747 
Q 2906 2381 2643 2742 
Q 2381 3103 1925 3103 
Q 1469 3103 1208 2742 
Q 947 2381 947 1747 
z
" id="DejaVuSans-64" transform="scale(0.015625)"/>
      </defs>
      <use xlink:href="#DejaVuSans-73"/>
      <use x="52.099609" xlink:href="#DejaVuSans-70"/>
      <use x="115.576172" xlink:href="#DejaVuSans-65"/>
      <use x="177.099609" xlink:href="#DejaVuSans-65"/>
      <use x="238.623047" xlink:href="#DejaVuSans-64"/>
     </g>
    </g>
   </g>
  </g>
 </g>
 <defs>
  <clipPath id="pf6b3b39eb5">
   <rect height="166.8744" width="487.134" x="78.57" y="26.0064"/>
  </clipPath>
 </defs>
</svg>
