<?xml version="1.0" encoding="utf-8" standalone="no"?>
<!DOCTYPE svg PUBLIC "-//W3C//DTD SVG 1.1//EN"
  "http://www.w3.org/Graphics/SVG/1.1/DTD/svg11.dtd">
<svg height="227.52pt" version="1.1" viewBox="0 0 486 227.52" width="486pt" xmlns="http://www.w3.org/2000/svg" xmlns:xlink="http://www.w3.org/1999/xlink">
 <metadata>
  <rdf:RDF xmlns:cc="http://creativecommons.org/ns#" xmlns:dc="http://purl.org/dc/elements/1.1/" xmlns:rdf="http://www.w3.org/1999/02/22-rdf-syntax-ns#">
   <cc:Work>
    <dc:type rdf:resource="http://purl.org/dc/dcmitype/StillImage"/>
    <dc:date>2021-10-14T14:38:07.973721</dc:date>
    <dc:format>image/svg+xml</dc:format>
    <dc:creator>
     <cc:Agent>
      <dc:title>Matplotlib v3.4.3, https://matplotlib.org/</dc:title>
     </cc:Agent>
    </dc:creator>
   </cc:Work>
  </rdf:RDF>
 </metadata>
 <defs>
  <style type="text/css">*{stroke-linecap:butt;stroke-linejoin:round;}</style>
 </defs>
 <g id="figure_1">
  <g id="patch_1">
   <path d="M 0 227.52 
L 486 227.52 
L 486 0 
L 0 0 
z
" style="fill:#ffffff;"/>
  </g>
  <g id="axes_1">
   <g id="patch_2">
    <path d="M 60.75 202.4928 
L 437.4 202.4928 
L 437.4 27.3024 
L 60.75 27.3024 
z
" style="fill:#ffffff;"/>
   </g>
   <g id="matplotlib.axis_1">
    <g id="xtick_1">
     <g id="line2d_1">
      <defs>
       <path d="M 0 0 
L 0 3.5 
" id="mc9fe2deb1e" style="stroke:#000000;stroke-width:0.8;"/>
      </defs>
      <g>
       <use style="stroke:#000000;stroke-width:0.8;" x="77.870455" xlink:href="#mc9fe2deb1e" y="202.4928"/>
      </g>
     </g>
     <g id="text_1">
      <!-- 0 -->
      <g transform="translate(74.689205 217.091238)scale(0.1 -0.1)">
       <defs>
        <path d="M 2034 4250 
Q 1547 4250 1301 3770 
Q 1056 3291 1056 2328 
Q 1056 1369 1301 889 
Q 1547 409 2034 409 
Q 2525 409 2770 889 
Q 3016 1369 3016 2328 
Q 3016 3291 2770 3770 
Q 2525 4250 2034 4250 
z
M 2034 4750 
Q 2819 4750 3233 4129 
Q 3647 3509 3647 2328 
Q 3647 1150 3233 529 
Q 2819 -91 2034 -91 
Q 1250 -91 836 529 
Q 422 1150 422 2328 
Q 422 3509 836 4129 
Q 1250 4750 2034 4750 
z
" id="DejaVuSans-30" transform="scale(0.015625)"/>
       </defs>
       <use xlink:href="#DejaVuSans-30"/>
      </g>
     </g>
    </g>
    <g id="xtick_2">
     <g id="line2d_2">
      <g>
       <use style="stroke:#000000;stroke-width:0.8;" x="139.14624" xlink:href="#mc9fe2deb1e" y="202.4928"/>
      </g>
     </g>
     <g id="text_2">
      <!-- 500 -->
      <g transform="translate(129.60249 217.091238)scale(0.1 -0.1)">
       <defs>
        <path d="M 691 4666 
L 3169 4666 
L 3169 4134 
L 1269 4134 
L 1269 2991 
Q 1406 3038 1543 3061 
Q 1681 3084 1819 3084 
Q 2600 3084 3056 2656 
Q 3513 2228 3513 1497 
Q 3513 744 3044 326 
Q 2575 -91 1722 -91 
Q 1428 -91 1123 -41 
Q 819 9 494 109 
L 494 744 
Q 775 591 1075 516 
Q 1375 441 1709 441 
Q 2250 441 2565 725 
Q 2881 1009 2881 1497 
Q 2881 1984 2565 2268 
Q 2250 2553 1709 2553 
Q 1456 2553 1204 2497 
Q 953 2441 691 2322 
L 691 4666 
z
" id="DejaVuSans-35" transform="scale(0.015625)"/>
       </defs>
       <use xlink:href="#DejaVuSans-35"/>
       <use x="63.623047" xlink:href="#DejaVuSans-30"/>
       <use x="127.246094" xlink:href="#DejaVuSans-30"/>
      </g>
     </g>
    </g>
    <g id="xtick_3">
     <g id="line2d_3">
      <g>
       <use style="stroke:#000000;stroke-width:0.8;" x="200.422026" xlink:href="#mc9fe2deb1e" y="202.4928"/>
      </g>
     </g>
     <g id="text_3">
      <!-- 1000 -->
      <g transform="translate(187.697026 217.091238)scale(0.1 -0.1)">
       <defs>
        <path d="M 794 531 
L 1825 531 
L 1825 4091 
L 703 3866 
L 703 4441 
L 1819 4666 
L 2450 4666 
L 2450 531 
L 3481 531 
L 3481 0 
L 794 0 
L 794 531 
z
" id="DejaVuSans-31" transform="scale(0.015625)"/>
       </defs>
       <use xlink:href="#DejaVuSans-31"/>
       <use x="63.623047" xlink:href="#DejaVuSans-30"/>
       <use x="127.246094" xlink:href="#DejaVuSans-30"/>
       <use x="190.869141" xlink:href="#DejaVuSans-30"/>
      </g>
     </g>
    </g>
    <g id="xtick_4">
     <g id="line2d_4">
      <g>
       <use style="stroke:#000000;stroke-width:0.8;" x="261.697812" xlink:href="#mc9fe2deb1e" y="202.4928"/>
      </g>
     </g>
     <g id="text_4">
      <!-- 1500 -->
      <g transform="translate(248.972812 217.091238)scale(0.1 -0.1)">
       <use xlink:href="#DejaVuSans-31"/>
       <use x="63.623047" xlink:href="#DejaVuSans-35"/>
       <use x="127.246094" xlink:href="#DejaVuSans-30"/>
       <use x="190.869141" xlink:href="#DejaVuSans-30"/>
      </g>
     </g>
    </g>
    <g id="xtick_5">
     <g id="line2d_5">
      <g>
       <use style="stroke:#000000;stroke-width:0.8;" x="322.973598" xlink:href="#mc9fe2deb1e" y="202.4928"/>
      </g>
     </g>
     <g id="text_5">
      <!-- 2000 -->
      <g transform="translate(310.248598 217.091238)scale(0.1 -0.1)">
       <defs>
        <path d="M 1228 531 
L 3431 531 
L 3431 0 
L 469 0 
L 469 531 
Q 828 903 1448 1529 
Q 2069 2156 2228 2338 
Q 2531 2678 2651 2914 
Q 2772 3150 2772 3378 
Q 2772 3750 2511 3984 
Q 2250 4219 1831 4219 
Q 1534 4219 1204 4116 
Q 875 4013 500 3803 
L 500 4441 
Q 881 4594 1212 4672 
Q 1544 4750 1819 4750 
Q 2544 4750 2975 4387 
Q 3406 4025 3406 3419 
Q 3406 3131 3298 2873 
Q 3191 2616 2906 2266 
Q 2828 2175 2409 1742 
Q 1991 1309 1228 531 
z
" id="DejaVuSans-32" transform="scale(0.015625)"/>
       </defs>
       <use xlink:href="#DejaVuSans-32"/>
       <use x="63.623047" xlink:href="#DejaVuSans-30"/>
       <use x="127.246094" xlink:href="#DejaVuSans-30"/>
       <use x="190.869141" xlink:href="#DejaVuSans-30"/>
      </g>
     </g>
    </g>
    <g id="xtick_6">
     <g id="line2d_6">
      <g>
       <use style="stroke:#000000;stroke-width:0.8;" x="384.249383" xlink:href="#mc9fe2deb1e" y="202.4928"/>
      </g>
     </g>
     <g id="text_6">
      <!-- 2500 -->
      <g transform="translate(371.524383 217.091238)scale(0.1 -0.1)">
       <use xlink:href="#DejaVuSans-32"/>
       <use x="63.623047" xlink:href="#DejaVuSans-35"/>
       <use x="127.246094" xlink:href="#DejaVuSans-30"/>
       <use x="190.869141" xlink:href="#DejaVuSans-30"/>
      </g>
     </g>
    </g>
   </g>
   <g id="matplotlib.axis_2">
    <g id="ytick_1">
     <g id="line2d_7">
      <defs>
       <path d="M 0 0 
L -3.5 0 
" id="m94e270d5d1" style="stroke:#000000;stroke-width:0.8;"/>
      </defs>
      <g>
       <use style="stroke:#000000;stroke-width:0.8;" x="60.75" xlink:href="#m94e270d5d1" y="197.447579"/>
      </g>
     </g>
     <g id="text_7">
      <!-- 0 -->
      <g transform="translate(47.3875 201.246798)scale(0.1 -0.1)">
       <use xlink:href="#DejaVuSans-30"/>
      </g>
     </g>
    </g>
    <g id="ytick_2">
     <g id="line2d_8">
      <g>
       <use style="stroke:#000000;stroke-width:0.8;" x="60.75" xlink:href="#m94e270d5d1" y="172.089142"/>
      </g>
     </g>
     <g id="text_8">
      <!-- 1 -->
      <g transform="translate(47.3875 175.888361)scale(0.1 -0.1)">
       <use xlink:href="#DejaVuSans-31"/>
      </g>
     </g>
    </g>
    <g id="ytick_3">
     <g id="line2d_9">
      <g>
       <use style="stroke:#000000;stroke-width:0.8;" x="60.75" xlink:href="#m94e270d5d1" y="146.730706"/>
      </g>
     </g>
     <g id="text_9">
      <!-- 2 -->
      <g transform="translate(47.3875 150.529925)scale(0.1 -0.1)">
       <use xlink:href="#DejaVuSans-32"/>
      </g>
     </g>
    </g>
    <g id="ytick_4">
     <g id="line2d_10">
      <g>
       <use style="stroke:#000000;stroke-width:0.8;" x="60.75" xlink:href="#m94e270d5d1" y="121.372269"/>
      </g>
     </g>
     <g id="text_10">
      <!-- 3 -->
      <g transform="translate(47.3875 125.171488)scale(0.1 -0.1)">
       <defs>
        <path d="M 2597 2516 
Q 3050 2419 3304 2112 
Q 3559 1806 3559 1356 
Q 3559 666 3084 287 
Q 2609 -91 1734 -91 
Q 1441 -91 1130 -33 
Q 819 25 488 141 
L 488 750 
Q 750 597 1062 519 
Q 1375 441 1716 441 
Q 2309 441 2620 675 
Q 2931 909 2931 1356 
Q 2931 1769 2642 2001 
Q 2353 2234 1838 2234 
L 1294 2234 
L 1294 2753 
L 1863 2753 
Q 2328 2753 2575 2939 
Q 2822 3125 2822 3475 
Q 2822 3834 2567 4026 
Q 2313 4219 1838 4219 
Q 1578 4219 1281 4162 
Q 984 4106 628 3988 
L 628 4550 
Q 988 4650 1302 4700 
Q 1616 4750 1894 4750 
Q 2613 4750 3031 4423 
Q 3450 4097 3450 3541 
Q 3450 3153 3228 2886 
Q 3006 2619 2597 2516 
z
" id="DejaVuSans-33" transform="scale(0.015625)"/>
       </defs>
       <use xlink:href="#DejaVuSans-33"/>
      </g>
     </g>
    </g>
    <g id="ytick_5">
     <g id="line2d_11">
      <g>
       <use style="stroke:#000000;stroke-width:0.8;" x="60.75" xlink:href="#m94e270d5d1" y="96.013832"/>
      </g>
     </g>
     <g id="text_11">
      <!-- 4 -->
      <g transform="translate(47.3875 99.813051)scale(0.1 -0.1)">
       <defs>
        <path d="M 2419 4116 
L 825 1625 
L 2419 1625 
L 2419 4116 
z
M 2253 4666 
L 3047 4666 
L 3047 1625 
L 3713 1625 
L 3713 1100 
L 3047 1100 
L 3047 0 
L 2419 0 
L 2419 1100 
L 313 1100 
L 313 1709 
L 2253 4666 
z
" id="DejaVuSans-34" transform="scale(0.015625)"/>
       </defs>
       <use xlink:href="#DejaVuSans-34"/>
      </g>
     </g>
    </g>
    <g id="ytick_6">
     <g id="line2d_12">
      <g>
       <use style="stroke:#000000;stroke-width:0.8;" x="60.75" xlink:href="#m94e270d5d1" y="70.655396"/>
      </g>
     </g>
     <g id="text_12">
      <!-- 5 -->
      <g transform="translate(47.3875 74.454615)scale(0.1 -0.1)">
       <use xlink:href="#DejaVuSans-35"/>
      </g>
     </g>
    </g>
    <g id="ytick_7">
     <g id="line2d_13">
      <g>
       <use style="stroke:#000000;stroke-width:0.8;" x="60.75" xlink:href="#m94e270d5d1" y="45.296959"/>
      </g>
     </g>
     <g id="text_13">
      <!-- 6 -->
      <g transform="translate(47.3875 49.096178)scale(0.1 -0.1)">
       <defs>
        <path d="M 2113 2584 
Q 1688 2584 1439 2293 
Q 1191 2003 1191 1497 
Q 1191 994 1439 701 
Q 1688 409 2113 409 
Q 2538 409 2786 701 
Q 3034 994 3034 1497 
Q 3034 2003 2786 2293 
Q 2538 2584 2113 2584 
z
M 3366 4563 
L 3366 3988 
Q 3128 4100 2886 4159 
Q 2644 4219 2406 4219 
Q 1781 4219 1451 3797 
Q 1122 3375 1075 2522 
Q 1259 2794 1537 2939 
Q 1816 3084 2150 3084 
Q 2853 3084 3261 2657 
Q 3669 2231 3669 1497 
Q 3669 778 3244 343 
Q 2819 -91 2113 -91 
Q 1303 -91 875 529 
Q 447 1150 447 2328 
Q 447 3434 972 4092 
Q 1497 4750 2381 4750 
Q 2619 4750 2861 4703 
Q 3103 4656 3366 4563 
z
" id="DejaVuSans-36" transform="scale(0.015625)"/>
       </defs>
       <use xlink:href="#DejaVuSans-36"/>
      </g>
     </g>
    </g>
   </g>
   <g id="line2d_14">
    <path clip-path="url(#p44efb0626a)" d="M 77.870455 92.346189 
L 79.09597 92.454209 
L 79.708728 92.727062 
L 80.444038 93.337775 
L 81.42445 94.510999 
L 83.875482 97.608634 
L 84.365688 97.865056 
L 84.855894 97.859124 
L 85.3461 97.615455 
L 86.08141 96.923459 
L 89.267751 93.425402 
L 90.615818 92.488228 
L 92.208988 91.669992 
L 94.537468 90.757834 
L 97.233603 89.670333 
L 99.194428 88.876398 
L 99.929737 88.812599 
L 100.542495 88.987062 
L 101.155253 89.414948 
L 102.748424 90.641714 
L 103.973939 91.286273 
L 105.812213 92.159409 
L 106.424971 92.784381 
L 106.792625 92.784912 
L 109.121105 92.027782 
L 109.611312 92.054418 
L 109.978966 92.266195 
L 110.591724 92.701119 
L 110.959379 92.714068 
L 113.41041 92.236259 
L 114.14572 92.385774 
L 114.881029 92.816276 
L 115.73889 93.573753 
L 116.596751 94.640025 
L 118.06737 96.937724 
L 120.273298 100.290948 
L 124.072397 105.623936 
L 125.543016 107.27956 
L 126.891083 108.455633 
L 128.116599 109.241158 
L 129.464666 109.836509 
L 129.954872 110.054474 
L 130.322527 110.493557 
L 130.812733 111.143243 
L 131.180388 111.229304 
L 131.793146 110.937119 
L 132.773559 110.502421 
L 133.141213 110.521894 
L 133.63142 110.891827 
L 133.999074 111.073737 
L 134.366729 111.011508 
L 135.592245 110.588762 
L 135.959899 110.717088 
L 136.695209 111.120165 
L 137.185415 110.994854 
L 138.165828 110.674244 
L 138.533482 110.7785 
L 139.268792 111.215004 
L 139.636447 111.166966 
L 140.984514 110.767855 
L 141.352169 110.943469 
L 141.964926 111.315257 
L 142.332581 111.273293 
L 143.680648 110.837813 
L 144.048303 110.984645 
L 144.661061 111.368277 
L 145.028716 111.340953 
L 146.499335 110.891495 
L 146.866989 111.084556 
L 147.479747 111.421893 
L 147.969953 111.300426 
L 148.950366 110.931275 
L 149.318021 110.992477 
L 150.175882 111.455437 
L 150.666088 111.29056 
L 151.523949 110.978702 
L 151.891604 111.140398 
L 152.38181 111.412078 
L 152.749465 111.356004 
L 153.97498 110.873967 
L 155.077945 111.18081 
L 156.426012 110.697752 
L 157.528976 111.028225 
L 159.122146 110.473342 
L 159.612353 110.738699 
L 160.102559 110.941962 
L 160.592765 110.803838 
L 161.082972 110.618258 
L 161.450626 110.747815 
L 161.940833 111.043325 
L 162.431039 110.969452 
L 162.798694 110.99113 
L 163.656555 111.405588 
L 164.024209 111.826936 
L 164.514416 112.821377 
L 165.127173 114.769996 
L 165.862483 118.049772 
L 166.842895 123.681389 
L 170.029236 143.244855 
L 170.519443 144.983291 
L 170.764546 145.256998 
L 170.887097 145.176081 
L 171.1322 144.532924 
L 171.744958 141.390183 
L 172.480268 138.153206 
L 172.970474 136.8577 
L 173.46068 136.173241 
L 173.950887 135.911499 
L 174.563644 135.921452 
L 177.749985 136.71054 
L 178.240192 137.203586 
L 178.485295 137.22441 
L 178.85295 136.943491 
L 179.220604 136.701324 
L 180.44612 136.564078 
L 181.181429 136.055735 
L 181.794187 135.18935 
L 182.284394 134.109765 
L 182.897151 132.160667 
L 183.755012 128.30308 
L 184.735425 123.76131 
L 185.10308 122.916436 
L 185.470734 122.510759 
L 186.69625 121.800848 
L 187.063905 121.237681 
L 187.921766 119.286771 
L 188.779627 117.25683 
L 189.392385 116.354221 
L 190.127694 115.370518 
L 190.6179 114.356042 
L 191.230658 112.543779 
L 192.211071 108.612867 
L 193.068932 105.284084 
L 193.436587 104.415627 
L 193.926793 103.917196 
L 194.416999 103.733801 
L 194.907205 103.565578 
L 195.397412 103.207747 
L 195.765066 102.658187 
L 196.500376 101.024784 
L 197.480788 98.6456 
L 198.216098 97.399644 
L 199.441614 95.157502 
L 201.279887 90.900494 
L 206.304502 79.207329 
L 207.652569 76.333135 
L 208.878085 73.038124 
L 210.348703 69.071389 
L 210.83891 68.171875 
L 212.309529 66.625485 
L 212.799735 66.342158 
L 213.16739 66.415424 
L 213.902699 66.733118 
L 214.392905 66.582918 
L 215.250766 66.271952 
L 215.618421 66.413365 
L 216.231179 66.774269 
L 216.721385 66.763627 
L 217.334143 66.772205 
L 217.701798 66.969448 
L 218.192004 67.554217 
L 218.68221 68.561891 
L 219.294968 70.427992 
L 220.030278 73.502276 
L 221.01069 78.785612 
L 224.074479 96.557473 
L 224.809789 99.139066 
L 225.422547 100.668283 
L 226.035305 101.68053 
L 226.648062 102.284064 
L 227.015717 102.639728 
L 227.99613 103.916515 
L 228.363784 103.856387 
L 229.956955 103.259408 
L 230.937367 103.221456 
L 232.285435 103.440721 
L 232.653089 103.630088 
L 233.633502 104.523281 
L 234.001157 104.422506 
L 235.716879 103.676068 
L 236.207085 103.658818 
L 236.57474 103.899223 
L 237.064946 104.26268 
L 237.432601 104.268157 
L 239.638529 103.604793 
L 240.006184 103.826841 
L 240.618942 104.226791 
L 240.986596 104.183869 
L 242.82487 103.590741 
L 243.192525 103.713066 
L 244.050386 104.248108 
L 244.785695 104.137657 
L 245.275901 104.205384 
L 245.643556 104.47115 
L 246.133762 105.204387 
L 246.623969 106.389763 
L 247.236726 108.492432 
L 247.972036 111.854783 
L 248.952448 117.471137 
L 252.138789 136.813516 
L 252.99665 140.22806 
L 253.73196 142.320296 
L 254.467269 143.704924 
L 255.202579 144.573355 
L 256.06044 145.213547 
L 257.163404 145.756717 
L 257.898713 146.120202 
L 258.879126 147.183854 
L 259.24678 147.091995 
L 260.594848 146.53182 
L 261.330157 146.497193 
L 262.065467 146.672736 
L 262.678224 147.012596 
L 263.413534 147.703981 
L 264.393946 149.010222 
L 265.619462 151.056182 
L 267.702839 155.130998 
L 269.173458 157.697593 
L 270.276422 159.205074 
L 271.256834 160.184233 
L 272.237247 160.857393 
L 273.340211 161.53531 
L 274.688278 163.546867 
L 275.178485 164.546788 
L 275.791243 166.405062 
L 276.526552 169.510143 
L 277.506965 174.844173 
L 278.977583 182.67995 
L 279.835444 186.085222 
L 280.570754 188.202963 
L 281.306063 189.660178 
L 282.041373 190.632121 
L 283.021785 191.498477 
L 284.247301 192.498971 
L 284.860059 193.352334 
L 285.227714 193.472508 
L 286.208126 193.278641 
L 287.188539 193.231434 
L 288.291503 193.423792 
L 290.37488 193.902782 
L 291.232741 193.837706 
L 292.213153 193.524282 
L 292.703359 193.384621 
L 293.071014 193.585594 
L 293.438669 193.768677 
L 294.173978 193.86656 
L 294.419081 194.492646 
L 295.031839 196.733188 
L 295.276942 196.858015 
L 295.399494 196.744287 
L 295.644597 196.003872 
L 296.257355 192.105979 
L 301.649624 156.816132 
L 302.262382 154.490294 
L 302.630037 153.804113 
L 302.87514 153.699118 
L 303.242795 153.787457 
L 303.978104 154.218138 
L 304.345759 153.997542 
L 304.590862 153.612974 
L 304.958517 152.605258 
L 305.938929 149.582192 
L 306.551687 148.455159 
L 307.041893 147.987949 
L 307.5321 147.810538 
L 308.144857 147.823767 
L 308.757615 147.986339 
L 309.12527 148.335995 
L 309.738028 149.01855 
L 310.105683 149.047563 
L 312.189059 148.475467 
L 313.78223 148.64763 
L 315.865606 148.488747 
L 317.091122 148.555701 
L 317.458777 148.810218 
L 317.948983 149.505788 
L 318.439189 150.628387 
L 319.051947 152.623205 
L 319.787257 155.838275 
L 320.767669 161.310627 
L 323.708907 178.991695 
L 324.566768 182.361359 
L 325.302078 184.408311 
L 326.037387 185.766565 
L 326.772696 186.651127 
L 327.875661 187.607855 
L 330.816898 190.097311 
L 335.718961 194.708744 
L 338.047441 196.230839 
L 339.885715 197.4096 
L 340.008266 38.158513 
L 342.581849 39.724252 
L 346.503499 41.841313 
L 349.199634 43.871502 
L 350.057495 44.16158 
L 350.42515 44.317686 
L 350.915356 44.93105 
L 351.528114 45.565903 
L 351.895769 45.759407 
L 352.140872 45.684486 
L 352.631078 45.178654 
L 353.366387 44.459354 
L 353.979145 44.197388 
L 354.591903 44.220069 
L 355.327213 44.524531 
L 358.26845 46.096943 
L 361.822446 47.331991 
L 363.170513 47.576886 
L 364.028374 48.238286 
L 364.51858 48.103045 
L 366.234302 47.582947 
L 366.969612 47.581854 
L 367.950024 47.83687 
L 369.788298 48.375886 
L 370.401056 48.536987 
L 371.50402 49.305336 
L 372.361881 49.19865 
L 373.219742 48.551099 
L 374.200155 48.060268 
L 374.935464 47.283877 
L 375.548222 46.380531 
L 376.651186 44.347362 
L 377.509047 42.78153 
L 378.121805 42.114316 
L 378.857114 41.669084 
L 379.224769 41.580026 
L 379.592424 41.767988 
L 380.205182 42.179439 
L 381.185594 42.510454 
L 381.553249 42.457076 
L 381.920904 42.130655 
L 382.778765 40.710303 
L 383.636626 39.31299 
L 384.249383 38.767821 
L 384.984693 38.195128 
L 385.107244 197.3963 
L 385.597451 196.6584 
L 386.33276 194.927935 
L 387.06807 193.18357 
L 387.680827 192.418031 
L 388.416137 191.734721 
L 389.151446 191.261171 
L 389.764204 190.761217 
L 390.131859 190.750064 
L 390.499514 191.040009 
L 390.867168 191.637191 
L 391.357375 192.897556 
L 391.970132 195.168222 
L 392.337787 196.86285 
L 392.460339 38.1456 
L 393.440751 43.776599 
L 397.975159 71.906346 
L 398.220263 72.124926 
L 398.342814 71.962502 
L 398.587917 71.04373 
L 399.445778 65.444691 
L 403.48998 38.615205 
L 403.612532 197.132203 
L 407.289079 173.701431 
L 407.779285 172.255668 
L 408.269491 171.520816 
L 408.759698 171.183963 
L 409.372456 171.074295 
L 410.352868 171.205714 
L 413.661761 171.959941 
L 414.029415 171.976718 
L 414.274518 172.397202 
L 414.764725 173.83535 
L 415.377483 176.928197 
L 415.622586 177.360768 
L 415.745137 177.037091 
L 416.357895 173.062928 
L 420.279545 146.630517 
L 420.279545 146.630517 
" style="fill:none;stroke:#1f77b4;stroke-linecap:square;stroke-width:1.5;"/>
   </g>
   <g id="patch_3">
    <path d="M 60.75 202.4928 
L 60.75 27.3024 
" style="fill:none;stroke:#000000;stroke-linecap:square;stroke-linejoin:miter;stroke-width:0.8;"/>
   </g>
   <g id="patch_4">
    <path d="M 437.4 202.4928 
L 437.4 27.3024 
" style="fill:none;stroke:#000000;stroke-linecap:square;stroke-linejoin:miter;stroke-width:0.8;"/>
   </g>
   <g id="patch_5">
    <path d="M 60.75 202.4928 
L 437.4 202.4928 
" style="fill:none;stroke:#000000;stroke-linecap:square;stroke-linejoin:miter;stroke-width:0.8;"/>
   </g>
   <g id="patch_6">
    <path d="M 60.75 27.3024 
L 437.4 27.3024 
" style="fill:none;stroke:#000000;stroke-linecap:square;stroke-linejoin:miter;stroke-width:0.8;"/>
   </g>
   <g id="legend_1">
    <g id="patch_7">
     <path d="M 67.75 49.980525 
L 161.173438 49.980525 
Q 163.173438 49.980525 163.173438 47.980525 
L 163.173438 34.3024 
Q 163.173438 32.3024 161.173438 32.3024 
L 67.75 32.3024 
Q 65.75 32.3024 65.75 34.3024 
L 65.75 47.980525 
Q 65.75 49.980525 67.75 49.980525 
z
" style="fill:#ffffff;opacity:0.8;stroke:#cccccc;stroke-linejoin:miter;"/>
    </g>
    <g id="line2d_15">
     <path d="M 69.75 40.400837 
L 89.75 40.400837 
" style="fill:none;stroke:#1f77b4;stroke-linecap:square;stroke-width:1.5;"/>
    </g>
    <g id="line2d_16"/>
    <g id="text_14">
     <!-- global angle -->
     <g transform="translate(97.75 43.900837)scale(0.1 -0.1)">
      <defs>
       <path d="M 2906 1791 
Q 2906 2416 2648 2759 
Q 2391 3103 1925 3103 
Q 1463 3103 1205 2759 
Q 947 2416 947 1791 
Q 947 1169 1205 825 
Q 1463 481 1925 481 
Q 2391 481 2648 825 
Q 2906 1169 2906 1791 
z
M 3481 434 
Q 3481 -459 3084 -895 
Q 2688 -1331 1869 -1331 
Q 1566 -1331 1297 -1286 
Q 1028 -1241 775 -1147 
L 775 -588 
Q 1028 -725 1275 -790 
Q 1522 -856 1778 -856 
Q 2344 -856 2625 -561 
Q 2906 -266 2906 331 
L 2906 616 
Q 2728 306 2450 153 
Q 2172 0 1784 0 
Q 1141 0 747 490 
Q 353 981 353 1791 
Q 353 2603 747 3093 
Q 1141 3584 1784 3584 
Q 2172 3584 2450 3431 
Q 2728 3278 2906 2969 
L 2906 3500 
L 3481 3500 
L 3481 434 
z
" id="DejaVuSans-67" transform="scale(0.015625)"/>
       <path d="M 603 4863 
L 1178 4863 
L 1178 0 
L 603 0 
L 603 4863 
z
" id="DejaVuSans-6c" transform="scale(0.015625)"/>
       <path d="M 1959 3097 
Q 1497 3097 1228 2736 
Q 959 2375 959 1747 
Q 959 1119 1226 758 
Q 1494 397 1959 397 
Q 2419 397 2687 759 
Q 2956 1122 2956 1747 
Q 2956 2369 2687 2733 
Q 2419 3097 1959 3097 
z
M 1959 3584 
Q 2709 3584 3137 3096 
Q 3566 2609 3566 1747 
Q 3566 888 3137 398 
Q 2709 -91 1959 -91 
Q 1206 -91 779 398 
Q 353 888 353 1747 
Q 353 2609 779 3096 
Q 1206 3584 1959 3584 
z
" id="DejaVuSans-6f" transform="scale(0.015625)"/>
       <path d="M 3116 1747 
Q 3116 2381 2855 2742 
Q 2594 3103 2138 3103 
Q 1681 3103 1420 2742 
Q 1159 2381 1159 1747 
Q 1159 1113 1420 752 
Q 1681 391 2138 391 
Q 2594 391 2855 752 
Q 3116 1113 3116 1747 
z
M 1159 2969 
Q 1341 3281 1617 3432 
Q 1894 3584 2278 3584 
Q 2916 3584 3314 3078 
Q 3713 2572 3713 1747 
Q 3713 922 3314 415 
Q 2916 -91 2278 -91 
Q 1894 -91 1617 61 
Q 1341 213 1159 525 
L 1159 0 
L 581 0 
L 581 4863 
L 1159 4863 
L 1159 2969 
z
" id="DejaVuSans-62" transform="scale(0.015625)"/>
       <path d="M 2194 1759 
Q 1497 1759 1228 1600 
Q 959 1441 959 1056 
Q 959 750 1161 570 
Q 1363 391 1709 391 
Q 2188 391 2477 730 
Q 2766 1069 2766 1631 
L 2766 1759 
L 2194 1759 
z
M 3341 1997 
L 3341 0 
L 2766 0 
L 2766 531 
Q 2569 213 2275 61 
Q 1981 -91 1556 -91 
Q 1019 -91 701 211 
Q 384 513 384 1019 
Q 384 1609 779 1909 
Q 1175 2209 1959 2209 
L 2766 2209 
L 2766 2266 
Q 2766 2663 2505 2880 
Q 2244 3097 1772 3097 
Q 1472 3097 1187 3025 
Q 903 2953 641 2809 
L 641 3341 
Q 956 3463 1253 3523 
Q 1550 3584 1831 3584 
Q 2591 3584 2966 3190 
Q 3341 2797 3341 1997 
z
" id="DejaVuSans-61" transform="scale(0.015625)"/>
       <path id="DejaVuSans-20" transform="scale(0.015625)"/>
       <path d="M 3513 2113 
L 3513 0 
L 2938 0 
L 2938 2094 
Q 2938 2591 2744 2837 
Q 2550 3084 2163 3084 
Q 1697 3084 1428 2787 
Q 1159 2491 1159 1978 
L 1159 0 
L 581 0 
L 581 3500 
L 1159 3500 
L 1159 2956 
Q 1366 3272 1645 3428 
Q 1925 3584 2291 3584 
Q 2894 3584 3203 3211 
Q 3513 2838 3513 2113 
z
" id="DejaVuSans-6e" transform="scale(0.015625)"/>
       <path d="M 3597 1894 
L 3597 1613 
L 953 1613 
Q 991 1019 1311 708 
Q 1631 397 2203 397 
Q 2534 397 2845 478 
Q 3156 559 3463 722 
L 3463 178 
Q 3153 47 2828 -22 
Q 2503 -91 2169 -91 
Q 1331 -91 842 396 
Q 353 884 353 1716 
Q 353 2575 817 3079 
Q 1281 3584 2069 3584 
Q 2775 3584 3186 3129 
Q 3597 2675 3597 1894 
z
M 3022 2063 
Q 3016 2534 2758 2815 
Q 2500 3097 2075 3097 
Q 1594 3097 1305 2825 
Q 1016 2553 972 2059 
L 3022 2063 
z
" id="DejaVuSans-65" transform="scale(0.015625)"/>
      </defs>
      <use xlink:href="#DejaVuSans-67"/>
      <use x="63.476562" xlink:href="#DejaVuSans-6c"/>
      <use x="91.259766" xlink:href="#DejaVuSans-6f"/>
      <use x="152.441406" xlink:href="#DejaVuSans-62"/>
      <use x="215.917969" xlink:href="#DejaVuSans-61"/>
      <use x="277.197266" xlink:href="#DejaVuSans-6c"/>
      <use x="304.980469" xlink:href="#DejaVuSans-20"/>
      <use x="336.767578" xlink:href="#DejaVuSans-61"/>
      <use x="398.046875" xlink:href="#DejaVuSans-6e"/>
      <use x="461.425781" xlink:href="#DejaVuSans-67"/>
      <use x="524.902344" xlink:href="#DejaVuSans-6c"/>
      <use x="552.685547" xlink:href="#DejaVuSans-65"/>
     </g>
    </g>
   </g>
  </g>
 </g>
 <defs>
  <clipPath id="p44efb0626a">
   <rect height="175.1904" width="376.65" x="60.75" y="27.3024"/>
  </clipPath>
 </defs>
</svg>
