<?xml version="1.0" encoding="utf-8" standalone="no"?>
<!DOCTYPE svg PUBLIC "-//W3C//DTD SVG 1.1//EN"
  "http://www.w3.org/Graphics/SVG/1.1/DTD/svg11.dtd">
<svg height="319.68pt" version="1.1" viewBox="0 0 648 319.68" width="648pt" xmlns="http://www.w3.org/2000/svg" xmlns:xlink="http://www.w3.org/1999/xlink">
 <metadata>
  <rdf:RDF xmlns:cc="http://creativecommons.org/ns#" xmlns:dc="http://purl.org/dc/elements/1.1/" xmlns:rdf="http://www.w3.org/1999/02/22-rdf-syntax-ns#">
   <cc:Work>
    <dc:type rdf:resource="http://purl.org/dc/dcmitype/StillImage"/>
    <dc:date>2021-10-14T14:37:09.974274</dc:date>
    <dc:format>image/svg+xml</dc:format>
    <dc:creator>
     <cc:Agent>
      <dc:title>Matplotlib v3.4.3, https://matplotlib.org/</dc:title>
     </cc:Agent>
    </dc:creator>
   </cc:Work>
  </rdf:RDF>
 </metadata>
 <defs>
  <style type="text/css">*{stroke-linecap:butt;stroke-linejoin:round;}</style>
 </defs>
 <g id="figure_1">
  <g id="patch_1">
   <path d="M 0 319.68 
L 648 319.68 
L 648 0 
L 0 0 
z
" style="fill:#ffffff;"/>
  </g>
  <g id="axes_1">
   <g id="patch_2">
    <path d="M 81 150.2496 
L 583.2 150.2496 
L 583.2 38.3616 
L 81 38.3616 
z
" style="fill:#ffffff;"/>
   </g>
   <g id="matplotlib.axis_1">
    <g id="xtick_1">
     <g id="line2d_1">
      <defs>
       <path d="M 0 0 
L 0 3.5 
" id="m955a0fad37" style="stroke:#000000;stroke-width:0.8;"/>
      </defs>
      <g>
       <use style="stroke:#000000;stroke-width:0.8;" x="103.827273" xlink:href="#m955a0fad37" y="150.2496"/>
      </g>
     </g>
     <g id="text_1">
      <!-- 0 -->
      <g transform="translate(100.646023 164.848037)scale(0.1 -0.1)">
       <defs>
        <path d="M 2034 4250 
Q 1547 4250 1301 3770 
Q 1056 3291 1056 2328 
Q 1056 1369 1301 889 
Q 1547 409 2034 409 
Q 2525 409 2770 889 
Q 3016 1369 3016 2328 
Q 3016 3291 2770 3770 
Q 2525 4250 2034 4250 
z
M 2034 4750 
Q 2819 4750 3233 4129 
Q 3647 3509 3647 2328 
Q 3647 1150 3233 529 
Q 2819 -91 2034 -91 
Q 1250 -91 836 529 
Q 422 1150 422 2328 
Q 422 3509 836 4129 
Q 1250 4750 2034 4750 
z
" id="DejaVuSans-30" transform="scale(0.015625)"/>
       </defs>
       <use xlink:href="#DejaVuSans-30"/>
      </g>
     </g>
    </g>
    <g id="xtick_2">
     <g id="line2d_2">
      <g>
       <use style="stroke:#000000;stroke-width:0.8;" x="185.52832" xlink:href="#m955a0fad37" y="150.2496"/>
      </g>
     </g>
     <g id="text_2">
      <!-- 500 -->
      <g transform="translate(175.98457 164.848037)scale(0.1 -0.1)">
       <defs>
        <path d="M 691 4666 
L 3169 4666 
L 3169 4134 
L 1269 4134 
L 1269 2991 
Q 1406 3038 1543 3061 
Q 1681 3084 1819 3084 
Q 2600 3084 3056 2656 
Q 3513 2228 3513 1497 
Q 3513 744 3044 326 
Q 2575 -91 1722 -91 
Q 1428 -91 1123 -41 
Q 819 9 494 109 
L 494 744 
Q 775 591 1075 516 
Q 1375 441 1709 441 
Q 2250 441 2565 725 
Q 2881 1009 2881 1497 
Q 2881 1984 2565 2268 
Q 2250 2553 1709 2553 
Q 1456 2553 1204 2497 
Q 953 2441 691 2322 
L 691 4666 
z
" id="DejaVuSans-35" transform="scale(0.015625)"/>
       </defs>
       <use xlink:href="#DejaVuSans-35"/>
       <use x="63.623047" xlink:href="#DejaVuSans-30"/>
       <use x="127.246094" xlink:href="#DejaVuSans-30"/>
      </g>
     </g>
    </g>
    <g id="xtick_3">
     <g id="line2d_3">
      <g>
       <use style="stroke:#000000;stroke-width:0.8;" x="267.229368" xlink:href="#m955a0fad37" y="150.2496"/>
      </g>
     </g>
     <g id="text_3">
      <!-- 1000 -->
      <g transform="translate(254.504368 164.848037)scale(0.1 -0.1)">
       <defs>
        <path d="M 794 531 
L 1825 531 
L 1825 4091 
L 703 3866 
L 703 4441 
L 1819 4666 
L 2450 4666 
L 2450 531 
L 3481 531 
L 3481 0 
L 794 0 
L 794 531 
z
" id="DejaVuSans-31" transform="scale(0.015625)"/>
       </defs>
       <use xlink:href="#DejaVuSans-31"/>
       <use x="63.623047" xlink:href="#DejaVuSans-30"/>
       <use x="127.246094" xlink:href="#DejaVuSans-30"/>
       <use x="190.869141" xlink:href="#DejaVuSans-30"/>
      </g>
     </g>
    </g>
    <g id="xtick_4">
     <g id="line2d_4">
      <g>
       <use style="stroke:#000000;stroke-width:0.8;" x="348.930416" xlink:href="#m955a0fad37" y="150.2496"/>
      </g>
     </g>
     <g id="text_4">
      <!-- 1500 -->
      <g transform="translate(336.205416 164.848037)scale(0.1 -0.1)">
       <use xlink:href="#DejaVuSans-31"/>
       <use x="63.623047" xlink:href="#DejaVuSans-35"/>
       <use x="127.246094" xlink:href="#DejaVuSans-30"/>
       <use x="190.869141" xlink:href="#DejaVuSans-30"/>
      </g>
     </g>
    </g>
    <g id="xtick_5">
     <g id="line2d_5">
      <g>
       <use style="stroke:#000000;stroke-width:0.8;" x="430.631464" xlink:href="#m955a0fad37" y="150.2496"/>
      </g>
     </g>
     <g id="text_5">
      <!-- 2000 -->
      <g transform="translate(417.906464 164.848037)scale(0.1 -0.1)">
       <defs>
        <path d="M 1228 531 
L 3431 531 
L 3431 0 
L 469 0 
L 469 531 
Q 828 903 1448 1529 
Q 2069 2156 2228 2338 
Q 2531 2678 2651 2914 
Q 2772 3150 2772 3378 
Q 2772 3750 2511 3984 
Q 2250 4219 1831 4219 
Q 1534 4219 1204 4116 
Q 875 4013 500 3803 
L 500 4441 
Q 881 4594 1212 4672 
Q 1544 4750 1819 4750 
Q 2544 4750 2975 4387 
Q 3406 4025 3406 3419 
Q 3406 3131 3298 2873 
Q 3191 2616 2906 2266 
Q 2828 2175 2409 1742 
Q 1991 1309 1228 531 
z
" id="DejaVuSans-32" transform="scale(0.015625)"/>
       </defs>
       <use xlink:href="#DejaVuSans-32"/>
       <use x="63.623047" xlink:href="#DejaVuSans-30"/>
       <use x="127.246094" xlink:href="#DejaVuSans-30"/>
       <use x="190.869141" xlink:href="#DejaVuSans-30"/>
      </g>
     </g>
    </g>
    <g id="xtick_6">
     <g id="line2d_6">
      <g>
       <use style="stroke:#000000;stroke-width:0.8;" x="512.332511" xlink:href="#m955a0fad37" y="150.2496"/>
      </g>
     </g>
     <g id="text_6">
      <!-- 2500 -->
      <g transform="translate(499.607511 164.848037)scale(0.1 -0.1)">
       <use xlink:href="#DejaVuSans-32"/>
       <use x="63.623047" xlink:href="#DejaVuSans-35"/>
       <use x="127.246094" xlink:href="#DejaVuSans-30"/>
       <use x="190.869141" xlink:href="#DejaVuSans-30"/>
      </g>
     </g>
    </g>
   </g>
   <g id="matplotlib.axis_2">
    <g id="ytick_1">
     <g id="line2d_7">
      <path clip-path="url(#pdc8ab3210f)" d="M 81 128.348715 
L 583.2 128.348715 
" style="fill:none;stroke:#b0b0b0;stroke-linecap:square;stroke-width:0.8;"/>
     </g>
     <g id="line2d_8">
      <defs>
       <path d="M 0 0 
L -3.5 0 
" id="m73db998b69" style="stroke:#000000;stroke-width:0.8;"/>
      </defs>
      <g>
       <use style="stroke:#000000;stroke-width:0.8;" x="81" xlink:href="#m73db998b69" y="128.348715"/>
      </g>
     </g>
     <g id="text_7">
      <!-- 0.00 -->
      <g transform="translate(51.734375 132.147934)scale(0.1 -0.1)">
       <defs>
        <path d="M 684 794 
L 1344 794 
L 1344 0 
L 684 0 
L 684 794 
z
" id="DejaVuSans-2e" transform="scale(0.015625)"/>
       </defs>
       <use xlink:href="#DejaVuSans-30"/>
       <use x="63.623047" xlink:href="#DejaVuSans-2e"/>
       <use x="95.410156" xlink:href="#DejaVuSans-30"/>
       <use x="159.033203" xlink:href="#DejaVuSans-30"/>
      </g>
     </g>
    </g>
    <g id="ytick_2">
     <g id="line2d_9">
      <path clip-path="url(#pdc8ab3210f)" d="M 81 102.845387 
L 583.2 102.845387 
" style="fill:none;stroke:#b0b0b0;stroke-linecap:square;stroke-width:0.8;"/>
     </g>
     <g id="line2d_10">
      <g>
       <use style="stroke:#000000;stroke-width:0.8;" x="81" xlink:href="#m73db998b69" y="102.845387"/>
      </g>
     </g>
     <g id="text_8">
      <!-- 0.01 -->
      <g transform="translate(51.734375 106.644605)scale(0.1 -0.1)">
       <use xlink:href="#DejaVuSans-30"/>
       <use x="63.623047" xlink:href="#DejaVuSans-2e"/>
       <use x="95.410156" xlink:href="#DejaVuSans-30"/>
       <use x="159.033203" xlink:href="#DejaVuSans-31"/>
      </g>
     </g>
    </g>
    <g id="ytick_3">
     <g id="line2d_11">
      <path clip-path="url(#pdc8ab3210f)" d="M 81 77.342058 
L 583.2 77.342058 
" style="fill:none;stroke:#b0b0b0;stroke-linecap:square;stroke-width:0.8;"/>
     </g>
     <g id="line2d_12">
      <g>
       <use style="stroke:#000000;stroke-width:0.8;" x="81" xlink:href="#m73db998b69" y="77.342058"/>
      </g>
     </g>
     <g id="text_9">
      <!-- 0.02 -->
      <g transform="translate(51.734375 81.141277)scale(0.1 -0.1)">
       <use xlink:href="#DejaVuSans-30"/>
       <use x="63.623047" xlink:href="#DejaVuSans-2e"/>
       <use x="95.410156" xlink:href="#DejaVuSans-30"/>
       <use x="159.033203" xlink:href="#DejaVuSans-32"/>
      </g>
     </g>
    </g>
    <g id="ytick_4">
     <g id="line2d_13">
      <path clip-path="url(#pdc8ab3210f)" d="M 81 51.83873 
L 583.2 51.83873 
" style="fill:none;stroke:#b0b0b0;stroke-linecap:square;stroke-width:0.8;"/>
     </g>
     <g id="line2d_14">
      <g>
       <use style="stroke:#000000;stroke-width:0.8;" x="81" xlink:href="#m73db998b69" y="51.83873"/>
      </g>
     </g>
     <g id="text_10">
      <!-- 0.03 -->
      <g transform="translate(51.734375 55.637948)scale(0.1 -0.1)">
       <defs>
        <path d="M 2597 2516 
Q 3050 2419 3304 2112 
Q 3559 1806 3559 1356 
Q 3559 666 3084 287 
Q 2609 -91 1734 -91 
Q 1441 -91 1130 -33 
Q 819 25 488 141 
L 488 750 
Q 750 597 1062 519 
Q 1375 441 1716 441 
Q 2309 441 2620 675 
Q 2931 909 2931 1356 
Q 2931 1769 2642 2001 
Q 2353 2234 1838 2234 
L 1294 2234 
L 1294 2753 
L 1863 2753 
Q 2328 2753 2575 2939 
Q 2822 3125 2822 3475 
Q 2822 3834 2567 4026 
Q 2313 4219 1838 4219 
Q 1578 4219 1281 4162 
Q 984 4106 628 3988 
L 628 4550 
Q 988 4650 1302 4700 
Q 1616 4750 1894 4750 
Q 2613 4750 3031 4423 
Q 3450 4097 3450 3541 
Q 3450 3153 3228 2886 
Q 3006 2619 2597 2516 
z
" id="DejaVuSans-33" transform="scale(0.015625)"/>
       </defs>
       <use xlink:href="#DejaVuSans-30"/>
       <use x="63.623047" xlink:href="#DejaVuSans-2e"/>
       <use x="95.410156" xlink:href="#DejaVuSans-30"/>
       <use x="159.033203" xlink:href="#DejaVuSans-33"/>
      </g>
     </g>
    </g>
   </g>
   <g id="line2d_15">
    <path clip-path="url(#pdc8ab3210f)" d="M 103.827273 127.256404 
L 104.154077 128.265338 
L 104.480881 128.266006 
L 105.297892 127.901651 
L 108.239129 126.209807 
L 109.05614 126.117599 
L 110.853563 126.396661 
L 111.180367 126.602859 
L 114.121605 129.762524 
L 114.938615 130.234308 
L 115.755626 130.351076 
L 116.736038 130.215083 
L 118.860266 129.683063 
L 121.311297 129.229205 
L 123.435524 129.061 
L 124.906143 129.111517 
L 130.625216 129.607736 
L 131.769031 129.384755 
L 132.586042 128.993991 
L 133.566454 128.226466 
L 134.710269 127.199268 
L 135.363877 127.201374 
L 140.102538 128.160056 
L 140.429342 127.797662 
L 141.08295 126.445515 
L 141.246353 126.470054 
L 141.573157 127.219101 
L 142.226765 129.159357 
L 142.553569 129.525334 
L 143.043776 129.576324 
L 144.18759 129.22263 
L 145.658209 128.653563 
L 145.985013 128.22312 
L 146.638622 127.136272 
L 146.802024 127.126286 
L 147.128828 127.572308 
L 147.945838 129.090509 
L 148.926251 129.170527 
L 150.887076 128.616812 
L 151.704087 128.200532 
L 153.174706 127.274146 
L 153.828314 126.980184 
L 155.462335 126.182689 
L 156.279345 126.010244 
L 157.259758 126.049811 
L 165.756667 127.460378 
L 170.005121 128.119403 
L 172.619555 128.319194 
L 172.946359 128.246451 
L 173.76337 127.601107 
L 174.090174 127.811507 
L 174.907184 128.697904 
L 175.397391 128.845116 
L 176.377803 128.798009 
L 177.031411 128.620944 
L 177.848422 128.029332 
L 178.175226 128.130457 
L 179.155639 128.766427 
L 179.972649 128.753954 
L 180.626258 128.557234 
L 181.443268 128.095109 
L 181.770072 128.215685 
L 182.750485 128.755409 
L 183.404093 128.749481 
L 184.057702 128.578669 
L 184.874712 128.097161 
L 185.201516 128.172781 
L 186.345331 128.758519 
L 187.162341 128.71679 
L 187.652548 128.579453 
L 188.63296 128.100061 
L 189.123167 128.377044 
L 189.776775 128.732772 
L 190.593785 128.744949 
L 191.247394 128.61018 
L 192.227806 128.09984 
L 192.554611 128.233249 
L 193.371621 128.72369 
L 194.025229 128.764375 
L 194.84224 128.634475 
L 195.495848 128.2172 
L 195.822652 128.098804 
L 196.149457 128.199126 
L 197.129869 128.747646 
L 197.94688 128.741117 
L 198.600488 128.541928 
L 199.417499 128.10238 
L 199.744303 128.239758 
L 200.561313 128.747774 
L 201.214922 128.782539 
L 201.705128 128.63625 
L 202.522138 128.135592 
L 202.848943 128.244734 
L 203.829355 128.815737 
L 204.482963 128.795109 
L 204.97317 128.575684 
L 205.626778 128.189007 
L 205.953582 128.261404 
L 206.933995 128.798133 
L 207.587603 128.797232 
L 208.07781 128.651213 
L 208.89482 128.178593 
L 209.221624 128.248435 
L 210.365439 128.807365 
L 211.182449 128.764877 
L 211.836058 128.561638 
L 212.653068 128.118007 
L 212.979872 128.225425 
L 213.960285 128.776477 
L 214.450491 128.722224 
L 215.430904 128.103152 
L 216.411316 128.681003 
L 218.698946 127.721989 
L 219.352554 127.413233 
L 219.84276 127.3987 
L 220.332967 127.620334 
L 220.823173 128.105467 
L 221.313379 128.861216 
L 221.966988 130.213959 
L 223.601009 133.970928 
L 223.927813 133.859086 
L 224.418019 134.33114 
L 225.071628 136.885185 
L 225.398432 137.361094 
L 225.561834 137.364497 
L 225.888638 138.111271 
L 226.05204 137.89569 
L 226.378844 136.849784 
L 227.359257 130.5282 
L 228.339669 118.408957 
L 228.503072 117.986463 
L 228.666474 117.943866 
L 228.829876 118.228693 
L 229.646886 121.505424 
L 230.137092 123.477125 
L 230.954103 125.904045 
L 231.444309 126.919367 
L 232.26132 127.770617 
L 232.914928 128.073922 
L 233.241732 128.16776 
L 233.568536 128.176347 
L 233.895341 128.156368 
L 234.222145 128.159425 
L 234.548949 128.07616 
L 234.875753 128.104825 
L 235.202557 127.971351 
L 235.529362 128.003655 
L 235.856166 127.854583 
L 236.346372 128.0768 
L 236.509774 128.283506 
L 236.99998 129.461953 
L 237.163383 129.456117 
L 237.326785 129.252906 
L 237.653589 128.266957 
L 237.980393 127.028749 
L 238.307197 126.496223 
L 238.470599 126.412657 
L 239.124208 127.924387 
L 239.28761 127.931797 
L 239.777816 127.59553 
L 240.10462 127.751852 
L 240.921631 126.90781 
L 241.085033 126.912375 
L 241.248435 126.780079 
L 241.738641 126.012174 
L 242.228848 125.663218 
L 242.555652 125.137702 
L 242.882456 124.665788 
L 243.372662 124.128809 
L 243.862868 123.497952 
L 244.189673 123.484464 
L 244.679879 123.612548 
L 245.006683 123.899121 
L 245.333487 124.416282 
L 245.987096 125.972844 
L 246.477302 127.167939 
L 246.804106 127.657462 
L 247.621117 128.116918 
L 247.947921 128.094651 
L 248.438127 127.950438 
L 249.745344 127.760106 
L 250.562354 128.004277 
L 251.542767 128.412002 
L 252.196375 128.509151 
L 253.176788 128.654142 
L 253.993798 129.073491 
L 254.484005 129.492822 
L 255.301015 130.514211 
L 256.281428 131.79737 
L 256.608232 131.984703 
L 256.935036 131.99172 
L 257.26184 131.737569 
L 257.752047 130.517895 
L 258.078851 129.660479 
L 258.732459 128.981913 
L 259.222665 128.725608 
L 259.54947 128.969905 
L 260.529882 129.876991 
L 261.020089 130.83997 
L 261.673697 131.53176 
L 262.327305 132.153598 
L 262.817512 131.571302 
L 263.144316 131.348856 
L 263.307718 131.344106 
L 263.961326 130.762708 
L 264.28813 130.944859 
L 264.614935 131.155237 
L 264.941739 131.051032 
L 265.268543 131.348318 
L 265.758749 131.992834 
L 266.412358 132.152536 
L 267.065966 132.623129 
L 267.556172 132.540607 
L 267.882977 132.680142 
L 268.209781 132.835494 
L 268.863389 132.700413 
L 269.6804 132.926733 
L 270.170606 132.88683 
L 270.824214 133.158452 
L 271.477823 133.129254 
L 272.131431 133.33788 
L 272.948441 133.273717 
L 273.438648 133.399077 
L 273.765452 133.2788 
L 274.582462 132.747445 
L 275.236071 132.432054 
L 275.562875 132.543024 
L 277.196896 133.777426 
L 277.687102 133.971488 
L 278.177309 134.137315 
L 278.667515 134.318095 
L 278.994319 134.097021 
L 279.647927 133.398753 
L 280.138134 133.21135 
L 280.464938 132.600967 
L 281.281948 130.15952 
L 281.608753 130.085234 
L 282.262361 130.36009 
L 282.589165 130.169276 
L 283.079371 129.625837 
L 283.406176 129.071485 
L 284.386588 126.917541 
L 284.54999 127.009092 
L 285.040197 128.030825 
L 285.530403 128.879623 
L 285.857207 129.047822 
L 286.184011 128.998991 
L 286.510815 128.762241 
L 286.83762 128.173374 
L 287.491228 126.748136 
L 287.65463 126.715956 
L 287.818032 126.855324 
L 288.635043 128.347868 
L 288.961847 128.503653 
L 289.452053 127.987017 
L 289.942259 127.172072 
L 290.922672 124.864018 
L 294.027312 116.745326 
L 294.68092 115.682036 
L 295.334529 115.106994 
L 295.661333 114.99508 
L 296.151539 115.142487 
L 296.641745 116.481983 
L 299.419581 123.929012 
L 300.726798 126.245095 
L 301.543808 127.227445 
L 302.034014 127.544759 
L 302.197417 127.566785 
L 302.524221 127.10339 
L 303.014427 126.483071 
L 303.177829 126.536137 
L 303.504633 127.23336 
L 304.158242 128.779455 
L 304.485046 128.994318 
L 304.975252 129.085661 
L 306.609273 128.656176 
L 309.713913 128.094651 
L 310.530923 127.054997 
L 310.694326 127.107672 
L 311.02113 127.638779 
L 311.674738 128.804081 
L 312.001542 129.019183 
L 312.655151 129.036253 
L 314.452574 128.571251 
L 314.779378 128.18269 
L 315.269584 127.501567 
L 315.432986 127.439064 
L 315.596388 127.499386 
L 316.086595 128.201909 
L 316.576801 128.81549 
L 317.067007 128.942328 
L 317.720616 128.868232 
L 318.86443 128.607193 
L 319.191234 128.384111 
L 320.008245 127.450557 
L 320.171647 127.479442 
L 320.498451 127.850728 
L 321.15206 128.720114 
L 321.478864 128.880505 
L 322.295874 128.820554 
L 323.439689 128.520453 
L 323.766493 128.205969 
L 324.420102 127.446223 
L 324.583504 127.441664 
L 324.910308 127.748667 
L 325.563916 128.553773 
L 325.89072 128.64598 
L 326.380927 128.450361 
L 326.871133 128.028894 
L 329.158762 125.510704 
L 329.648969 125.400049 
L 330.139175 125.548992 
L 330.629381 125.980457 
L 331.28299 126.983245 
L 332.1 128.796082 
L 334.060825 133.651474 
L 334.714434 134.504733 
L 335.368042 134.809946 
L 336.02165 134.640497 
L 336.675259 134.083479 
L 337.492269 133.009321 
L 338.636084 131.200958 
L 339.943301 129.610621 
L 341.250517 128.843314 
L 342.23093 128.584894 
L 342.884538 128.426739 
L 343.211342 128.424425 
L 343.374745 128.573371 
L 343.701549 129.34183 
L 344.191755 130.652168 
L 344.355157 130.553449 
L 344.681961 129.55202 
L 345.33557 127.125197 
L 345.662374 126.727591 
L 345.989178 126.663705 
L 346.806189 127.013767 
L 348.603612 128.030001 
L 349.584024 128.591775 
L 352.198458 130.304593 
L 355.139695 131.254265 
L 355.956706 131.229729 
L 356.937119 130.962882 
L 358.407737 130.303863 
L 363.473202 127.62833 
L 363.800007 127.729623 
L 364.126811 128.365987 
L 364.617017 129.869919 
L 364.780419 130.124618 
L 364.943821 130.120336 
L 365.760832 129.354762 
L 366.251038 130.168478 
L 368.048461 134.710933 
L 368.702069 135.966802 
L 369.355678 136.783631 
L 369.682482 136.522109 
L 370.009286 136.25571 
L 370.33609 135.745797 
L 373.277328 130.140037 
L 374.094339 129.261671 
L 375.401555 128.469096 
L 377.852587 128.10983 
L 378.342793 128.1784 
L 379.159803 128.547502 
L 379.813412 128.158163 
L 380.303618 127.915845 
L 381.447433 127.860962 
L 386.186094 128.050501 
L 390.107744 127.961818 
L 390.59795 128.218329 
L 391.088156 128.121297 
L 391.905167 127.926844 
L 392.395373 129.138627 
L 392.558775 129.109413 
L 393.212384 128.428985 
L 394.029394 127.808264 
L 394.5196 126.059861 
L 396.480426 120.140729 
L 397.62424 117.219805 
L 398.768055 114.894984 
L 399.094859 114.451949 
L 399.585065 113.673557 
L 400.075272 113.159536 
L 400.565478 112.684444 
L 401.055684 112.373459 
L 401.219086 112.281871 
L 401.545891 113.258348 
L 401.872695 115.003046 
L 402.526303 118.378725 
L 403.016509 121.06941 
L 403.670118 125.973705 
L 404.323726 127.929094 
L 404.487128 128.051367 
L 404.65053 127.971975 
L 404.813932 127.731133 
L 405.630943 124.429328 
L 406.611356 119.39136 
L 406.774758 119.282311 
L 407.101562 119.712896 
L 407.428366 120.469233 
L 408.408779 123.283079 
L 409.552593 125.683669 
L 410.0428 126.272351 
L 410.533006 126.676896 
L 411.186614 127.005688 
L 411.350016 127.11566 
L 411.67682 127.911397 
L 412.167027 129.136901 
L 412.330429 129.214451 
L 412.493831 128.92983 
L 413.474244 125.854523 
L 413.801048 125.670682 
L 414.127852 125.631203 
L 415.598471 126.223598 
L 416.742285 127.195581 
L 417.06909 127.027012 
L 417.8861 126.31326 
L 418.376306 126.287979 
L 420.500534 126.487552 
L 422.134555 126.60535 
L 422.624761 127.213791 
L 423.114967 128.290124 
L 425.075792 133.570471 
L 426.383009 136.959206 
L 427.20002 138.58583 
L 427.853628 139.359726 
L 428.343834 139.571215 
L 428.670638 139.455007 
L 429.324247 138.908471 
L 432.428887 131.376331 
L 432.919093 130.568952 
L 433.736103 129.461177 
L 434.22631 128.974021 
L 435.04332 128.427523 
L 435.533526 128.229045 
L 437.330949 128.010983 
L 446.808271 128.148818 
L 452.037138 128.28501 
L 462.821676 128.683438 
L 465.272708 128.925947 
L 466.743327 129.097985 
L 467.070131 128.902633 
L 467.560337 128.55081 
L 467.887141 128.622566 
L 468.377348 128.828681 
L 468.867554 129.100385 
L 469.847966 130.060351 
L 470.338173 129.946694 
L 472.4624 129.160949 
L 473.769617 128.976576 
L 475.403638 129.034502 
L 479.652092 129.247982 
L 480.469103 129.180879 
L 482.266526 129.519701 
L 483.573742 129.515463 
L 483.900547 129.284669 
L 484.390753 128.819245 
L 484.554155 128.798366 
L 484.880959 129.101624 
L 485.534568 129.899501 
L 485.861372 129.983086 
L 486.841784 129.899043 
L 487.495393 129.870946 
L 490.763435 129.321816 
L 492.560858 129.461244 
L 493.377868 129.475177 
L 493.704672 129.186563 
L 494.194879 128.675123 
L 494.358281 128.712595 
L 494.685085 129.133678 
L 495.175291 129.727282 
L 495.502095 129.701498 
L 495.8289 129.677614 
L 496.155704 130.034979 
L 496.64591 130.593406 
L 496.972714 130.382192 
L 497.462921 129.929131 
L 498.770137 130.087343 
L 499.096941 130.330196 
L 500.894365 130.391599 
L 501.384571 130.298742 
L 502.201581 130.102432 
L 504.162406 129.073501 
L 506.450036 128.587602 
L 506.940242 128.702098 
L 507.757253 128.781353 
L 509.554676 129.247588 
L 510.69849 128.875684 
L 511.678903 128.540726 
L 513.149522 128.368833 
L 513.966532 128.156231 
L 514.783543 127.66538 
L 515.437151 127.248539 
L 515.763955 127.219128 
L 516.744368 127.351556 
L 517.397976 127.337524 
L 518.214987 127.436241 
L 519.195399 127.168454 
L 519.685606 127.461741 
L 521.319626 128.866995 
L 521.809833 129.057336 
L 522.300039 129.03874 
L 522.790245 128.781913 
L 523.280452 128.268524 
L 523.93406 127.219303 
L 525.077875 124.818059 
L 526.058287 122.922318 
L 527.0387 121.290105 
L 527.202102 121.093496 
L 527.365504 121.254051 
L 527.528906 121.874931 
L 527.692308 121.489366 
L 527.85571 120.773775 
L 528.019112 120.692185 
L 528.345917 119.489948 
L 528.999525 118.765878 
L 529.326329 118.594967 
L 529.653133 118.252588 
L 529.816535 118.872909 
L 530.306742 123.948534 
L 530.96035 134.416915 
L 531.450556 143.497916 
L 531.613958 145.163782 
L 533.411382 141.967108 
L 534.555196 139.105923 
L 535.862413 135.186536 
L 536.842826 132.068929 
L 538.476846 126.776891 
L 539.293857 124.03396 
L 540.437672 120.759473 
L 542.071693 116.914927 
L 542.561899 118.092239 
L 544.19592 124.447642 
L 544.522724 125.083995 
L 545.666539 126.437378 
L 546.483549 126.797521 
L 546.810353 126.808323 
L 547.137158 126.946491 
L 547.627364 126.984823 
L 547.954168 127.031233 
L 548.280972 127.054176 
L 548.607776 127.118081 
L 549.914993 126.96053 
L 550.405199 126.721782 
L 550.732004 126.679925 
L 551.058808 126.980084 
L 551.385612 126.975484 
L 551.549014 126.759836 
L 551.712416 126.336241 
L 552.366025 131.381057 
L 552.529427 130.931733 
L 552.692829 118.563359 
L 552.856231 134.727766 
L 553.019633 138.177549 
L 553.183035 132.842528 
L 553.346437 131.168121 
L 553.509839 131.598888 
L 553.673241 133.252199 
L 554.490252 112.397054 
L 554.980458 110.067729 
L 555.14386 110.286871 
L 556.614479 105.510985 
L 556.941283 103.332658 
L 557.43149 98.125061 
L 558.738706 81.662341 
L 559.065511 77.047764 
L 560.209325 47.036302 
L 560.372727 43.447418 
L 560.372727 43.447418 
" style="fill:none;stroke:#1f77b4;stroke-linecap:square;stroke-width:1.5;"/>
   </g>
   <g id="patch_3">
    <path d="M 81 150.2496 
L 81 38.3616 
" style="fill:none;stroke:#000000;stroke-linecap:square;stroke-linejoin:miter;stroke-width:0.8;"/>
   </g>
   <g id="patch_4">
    <path d="M 583.2 150.2496 
L 583.2 38.3616 
" style="fill:none;stroke:#000000;stroke-linecap:square;stroke-linejoin:miter;stroke-width:0.8;"/>
   </g>
   <g id="patch_5">
    <path d="M 81 150.2496 
L 583.2 150.2496 
" style="fill:none;stroke:#000000;stroke-linecap:square;stroke-linejoin:miter;stroke-width:0.8;"/>
   </g>
   <g id="patch_6">
    <path d="M 81 38.3616 
L 583.2 38.3616 
" style="fill:none;stroke:#000000;stroke-linecap:square;stroke-linejoin:miter;stroke-width:0.8;"/>
   </g>
   <g id="legend_1">
    <g id="patch_7">
     <path d="M 88 61.31785 
L 177.417188 61.31785 
Q 179.417188 61.31785 179.417188 59.31785 
L 179.417188 45.3616 
Q 179.417188 43.3616 177.417188 43.3616 
L 88 43.3616 
Q 86 43.3616 86 45.3616 
L 86 59.31785 
Q 86 61.31785 88 61.31785 
z
" style="fill:#ffffff;opacity:0.8;stroke:#cccccc;stroke-linejoin:miter;"/>
    </g>
    <g id="line2d_16">
     <path d="M 90 51.460037 
L 110 51.460037 
" style="fill:none;stroke:#1f77b4;stroke-linecap:square;stroke-width:1.5;"/>
    </g>
    <g id="line2d_17"/>
    <g id="text_11">
     <!-- state_diff_x -->
     <g transform="translate(118 54.960037)scale(0.1 -0.1)">
      <defs>
       <path d="M 2834 3397 
L 2834 2853 
Q 2591 2978 2328 3040 
Q 2066 3103 1784 3103 
Q 1356 3103 1142 2972 
Q 928 2841 928 2578 
Q 928 2378 1081 2264 
Q 1234 2150 1697 2047 
L 1894 2003 
Q 2506 1872 2764 1633 
Q 3022 1394 3022 966 
Q 3022 478 2636 193 
Q 2250 -91 1575 -91 
Q 1294 -91 989 -36 
Q 684 19 347 128 
L 347 722 
Q 666 556 975 473 
Q 1284 391 1588 391 
Q 1994 391 2212 530 
Q 2431 669 2431 922 
Q 2431 1156 2273 1281 
Q 2116 1406 1581 1522 
L 1381 1569 
Q 847 1681 609 1914 
Q 372 2147 372 2553 
Q 372 3047 722 3315 
Q 1072 3584 1716 3584 
Q 2034 3584 2315 3537 
Q 2597 3491 2834 3397 
z
" id="DejaVuSans-73" transform="scale(0.015625)"/>
       <path d="M 1172 4494 
L 1172 3500 
L 2356 3500 
L 2356 3053 
L 1172 3053 
L 1172 1153 
Q 1172 725 1289 603 
Q 1406 481 1766 481 
L 2356 481 
L 2356 0 
L 1766 0 
Q 1100 0 847 248 
Q 594 497 594 1153 
L 594 3053 
L 172 3053 
L 172 3500 
L 594 3500 
L 594 4494 
L 1172 4494 
z
" id="DejaVuSans-74" transform="scale(0.015625)"/>
       <path d="M 2194 1759 
Q 1497 1759 1228 1600 
Q 959 1441 959 1056 
Q 959 750 1161 570 
Q 1363 391 1709 391 
Q 2188 391 2477 730 
Q 2766 1069 2766 1631 
L 2766 1759 
L 2194 1759 
z
M 3341 1997 
L 3341 0 
L 2766 0 
L 2766 531 
Q 2569 213 2275 61 
Q 1981 -91 1556 -91 
Q 1019 -91 701 211 
Q 384 513 384 1019 
Q 384 1609 779 1909 
Q 1175 2209 1959 2209 
L 2766 2209 
L 2766 2266 
Q 2766 2663 2505 2880 
Q 2244 3097 1772 3097 
Q 1472 3097 1187 3025 
Q 903 2953 641 2809 
L 641 3341 
Q 956 3463 1253 3523 
Q 1550 3584 1831 3584 
Q 2591 3584 2966 3190 
Q 3341 2797 3341 1997 
z
" id="DejaVuSans-61" transform="scale(0.015625)"/>
       <path d="M 3597 1894 
L 3597 1613 
L 953 1613 
Q 991 1019 1311 708 
Q 1631 397 2203 397 
Q 2534 397 2845 478 
Q 3156 559 3463 722 
L 3463 178 
Q 3153 47 2828 -22 
Q 2503 -91 2169 -91 
Q 1331 -91 842 396 
Q 353 884 353 1716 
Q 353 2575 817 3079 
Q 1281 3584 2069 3584 
Q 2775 3584 3186 3129 
Q 3597 2675 3597 1894 
z
M 3022 2063 
Q 3016 2534 2758 2815 
Q 2500 3097 2075 3097 
Q 1594 3097 1305 2825 
Q 1016 2553 972 2059 
L 3022 2063 
z
" id="DejaVuSans-65" transform="scale(0.015625)"/>
       <path d="M 3263 -1063 
L 3263 -1509 
L -63 -1509 
L -63 -1063 
L 3263 -1063 
z
" id="DejaVuSans-5f" transform="scale(0.015625)"/>
       <path d="M 2906 2969 
L 2906 4863 
L 3481 4863 
L 3481 0 
L 2906 0 
L 2906 525 
Q 2725 213 2448 61 
Q 2172 -91 1784 -91 
Q 1150 -91 751 415 
Q 353 922 353 1747 
Q 353 2572 751 3078 
Q 1150 3584 1784 3584 
Q 2172 3584 2448 3432 
Q 2725 3281 2906 2969 
z
M 947 1747 
Q 947 1113 1208 752 
Q 1469 391 1925 391 
Q 2381 391 2643 752 
Q 2906 1113 2906 1747 
Q 2906 2381 2643 2742 
Q 2381 3103 1925 3103 
Q 1469 3103 1208 2742 
Q 947 2381 947 1747 
z
" id="DejaVuSans-64" transform="scale(0.015625)"/>
       <path d="M 603 3500 
L 1178 3500 
L 1178 0 
L 603 0 
L 603 3500 
z
M 603 4863 
L 1178 4863 
L 1178 4134 
L 603 4134 
L 603 4863 
z
" id="DejaVuSans-69" transform="scale(0.015625)"/>
       <path d="M 2375 4863 
L 2375 4384 
L 1825 4384 
Q 1516 4384 1395 4259 
Q 1275 4134 1275 3809 
L 1275 3500 
L 2222 3500 
L 2222 3053 
L 1275 3053 
L 1275 0 
L 697 0 
L 697 3053 
L 147 3053 
L 147 3500 
L 697 3500 
L 697 3744 
Q 697 4328 969 4595 
Q 1241 4863 1831 4863 
L 2375 4863 
z
" id="DejaVuSans-66" transform="scale(0.015625)"/>
       <path d="M 3513 3500 
L 2247 1797 
L 3578 0 
L 2900 0 
L 1881 1375 
L 863 0 
L 184 0 
L 1544 1831 
L 300 3500 
L 978 3500 
L 1906 2253 
L 2834 3500 
L 3513 3500 
z
" id="DejaVuSans-78" transform="scale(0.015625)"/>
      </defs>
      <use xlink:href="#DejaVuSans-73"/>
      <use x="52.099609" xlink:href="#DejaVuSans-74"/>
      <use x="91.308594" xlink:href="#DejaVuSans-61"/>
      <use x="152.587891" xlink:href="#DejaVuSans-74"/>
      <use x="191.796875" xlink:href="#DejaVuSans-65"/>
      <use x="253.320312" xlink:href="#DejaVuSans-5f"/>
      <use x="303.320312" xlink:href="#DejaVuSans-64"/>
      <use x="366.796875" xlink:href="#DejaVuSans-69"/>
      <use x="394.580078" xlink:href="#DejaVuSans-66"/>
      <use x="429.785156" xlink:href="#DejaVuSans-66"/>
      <use x="464.990234" xlink:href="#DejaVuSans-5f"/>
      <use x="514.990234" xlink:href="#DejaVuSans-78"/>
     </g>
    </g>
   </g>
  </g>
  <g id="axes_2">
   <g id="patch_8">
    <path d="M 81 284.5152 
L 583.2 284.5152 
L 583.2 172.6272 
L 81 172.6272 
z
" style="fill:#ffffff;"/>
   </g>
   <g id="matplotlib.axis_3">
    <g id="xtick_7">
     <g id="line2d_18">
      <g>
       <use style="stroke:#000000;stroke-width:0.8;" x="103.827273" xlink:href="#m955a0fad37" y="284.5152"/>
      </g>
     </g>
     <g id="text_12">
      <!-- 0 -->
      <g transform="translate(100.646023 299.113637)scale(0.1 -0.1)">
       <use xlink:href="#DejaVuSans-30"/>
      </g>
     </g>
    </g>
    <g id="xtick_8">
     <g id="line2d_19">
      <g>
       <use style="stroke:#000000;stroke-width:0.8;" x="185.52832" xlink:href="#m955a0fad37" y="284.5152"/>
      </g>
     </g>
     <g id="text_13">
      <!-- 500 -->
      <g transform="translate(175.98457 299.113637)scale(0.1 -0.1)">
       <use xlink:href="#DejaVuSans-35"/>
       <use x="63.623047" xlink:href="#DejaVuSans-30"/>
       <use x="127.246094" xlink:href="#DejaVuSans-30"/>
      </g>
     </g>
    </g>
    <g id="xtick_9">
     <g id="line2d_20">
      <g>
       <use style="stroke:#000000;stroke-width:0.8;" x="267.229368" xlink:href="#m955a0fad37" y="284.5152"/>
      </g>
     </g>
     <g id="text_14">
      <!-- 1000 -->
      <g transform="translate(254.504368 299.113637)scale(0.1 -0.1)">
       <use xlink:href="#DejaVuSans-31"/>
       <use x="63.623047" xlink:href="#DejaVuSans-30"/>
       <use x="127.246094" xlink:href="#DejaVuSans-30"/>
       <use x="190.869141" xlink:href="#DejaVuSans-30"/>
      </g>
     </g>
    </g>
    <g id="xtick_10">
     <g id="line2d_21">
      <g>
       <use style="stroke:#000000;stroke-width:0.8;" x="348.930416" xlink:href="#m955a0fad37" y="284.5152"/>
      </g>
     </g>
     <g id="text_15">
      <!-- 1500 -->
      <g transform="translate(336.205416 299.113637)scale(0.1 -0.1)">
       <use xlink:href="#DejaVuSans-31"/>
       <use x="63.623047" xlink:href="#DejaVuSans-35"/>
       <use x="127.246094" xlink:href="#DejaVuSans-30"/>
       <use x="190.869141" xlink:href="#DejaVuSans-30"/>
      </g>
     </g>
    </g>
    <g id="xtick_11">
     <g id="line2d_22">
      <g>
       <use style="stroke:#000000;stroke-width:0.8;" x="430.631464" xlink:href="#m955a0fad37" y="284.5152"/>
      </g>
     </g>
     <g id="text_16">
      <!-- 2000 -->
      <g transform="translate(417.906464 299.113637)scale(0.1 -0.1)">
       <use xlink:href="#DejaVuSans-32"/>
       <use x="63.623047" xlink:href="#DejaVuSans-30"/>
       <use x="127.246094" xlink:href="#DejaVuSans-30"/>
       <use x="190.869141" xlink:href="#DejaVuSans-30"/>
      </g>
     </g>
    </g>
    <g id="xtick_12">
     <g id="line2d_23">
      <g>
       <use style="stroke:#000000;stroke-width:0.8;" x="512.332511" xlink:href="#m955a0fad37" y="284.5152"/>
      </g>
     </g>
     <g id="text_17">
      <!-- 2500 -->
      <g transform="translate(499.607511 299.113637)scale(0.1 -0.1)">
       <use xlink:href="#DejaVuSans-32"/>
       <use x="63.623047" xlink:href="#DejaVuSans-35"/>
       <use x="127.246094" xlink:href="#DejaVuSans-30"/>
       <use x="190.869141" xlink:href="#DejaVuSans-30"/>
      </g>
     </g>
    </g>
   </g>
   <g id="matplotlib.axis_4">
    <g id="ytick_5">
     <g id="line2d_24">
      <path clip-path="url(#p838c4dc09e)" d="M 81 259.666483 
L 583.2 259.666483 
" style="fill:none;stroke:#b0b0b0;stroke-linecap:square;stroke-width:0.8;"/>
     </g>
     <g id="line2d_25">
      <g>
       <use style="stroke:#000000;stroke-width:0.8;" x="81" xlink:href="#m73db998b69" y="259.666483"/>
      </g>
     </g>
     <g id="text_18">
      <!-- 0.00 -->
      <g transform="translate(51.734375 263.465702)scale(0.1 -0.1)">
       <use xlink:href="#DejaVuSans-30"/>
       <use x="63.623047" xlink:href="#DejaVuSans-2e"/>
       <use x="95.410156" xlink:href="#DejaVuSans-30"/>
       <use x="159.033203" xlink:href="#DejaVuSans-30"/>
      </g>
     </g>
    </g>
    <g id="ytick_6">
     <g id="line2d_26">
      <path clip-path="url(#p838c4dc09e)" d="M 81 229.634564 
L 583.2 229.634564 
" style="fill:none;stroke:#b0b0b0;stroke-linecap:square;stroke-width:0.8;"/>
     </g>
     <g id="line2d_27">
      <g>
       <use style="stroke:#000000;stroke-width:0.8;" x="81" xlink:href="#m73db998b69" y="229.634564"/>
      </g>
     </g>
     <g id="text_19">
      <!-- 0.01 -->
      <g transform="translate(51.734375 233.433783)scale(0.1 -0.1)">
       <use xlink:href="#DejaVuSans-30"/>
       <use x="63.623047" xlink:href="#DejaVuSans-2e"/>
       <use x="95.410156" xlink:href="#DejaVuSans-30"/>
       <use x="159.033203" xlink:href="#DejaVuSans-31"/>
      </g>
     </g>
    </g>
    <g id="ytick_7">
     <g id="line2d_28">
      <path clip-path="url(#p838c4dc09e)" d="M 81 199.602646 
L 583.2 199.602646 
" style="fill:none;stroke:#b0b0b0;stroke-linecap:square;stroke-width:0.8;"/>
     </g>
     <g id="line2d_29">
      <g>
       <use style="stroke:#000000;stroke-width:0.8;" x="81" xlink:href="#m73db998b69" y="199.602646"/>
      </g>
     </g>
     <g id="text_20">
      <!-- 0.02 -->
      <g transform="translate(51.734375 203.401864)scale(0.1 -0.1)">
       <use xlink:href="#DejaVuSans-30"/>
       <use x="63.623047" xlink:href="#DejaVuSans-2e"/>
       <use x="95.410156" xlink:href="#DejaVuSans-30"/>
       <use x="159.033203" xlink:href="#DejaVuSans-32"/>
      </g>
     </g>
    </g>
   </g>
   <g id="line2d_30">
    <path clip-path="url(#p838c4dc09e)" d="M 103.827273 260.458903 
L 104.154077 259.72782 
L 104.644283 259.770574 
L 105.461294 260.103073 
L 107.422119 261.289766 
L 108.239129 261.65103 
L 109.382944 261.854602 
L 111.016965 261.798815 
L 111.670573 261.1665 
L 113.631398 258.523368 
L 114.285007 257.961568 
L 114.775213 257.735133 
L 115.102017 257.638635 
L 116.409234 257.81652 
L 117.062842 258.028482 
L 118.206657 258.403178 
L 120.984493 258.992693 
L 124.089133 259.210778 
L 130.788618 258.994057 
L 133.403052 259.633471 
L 134.873671 260.323127 
L 135.690681 260.298361 
L 140.102538 259.786143 
L 140.429342 260.045909 
L 141.08295 261.067335 
L 141.246353 261.067406 
L 141.573157 260.522223 
L 142.226765 259.019089 
L 142.553569 258.739668 
L 143.043776 258.714154 
L 145.004601 259.20889 
L 145.658209 259.428944 
L 145.985013 259.743341 
L 146.638622 260.559025 
L 146.802024 260.575631 
L 147.128828 260.247618 
L 147.945838 259.076833 
L 148.926251 259.027096 
L 151.050478 259.509134 
L 152.030891 259.957393 
L 153.011303 260.448736 
L 153.991716 260.854327 
L 156.115943 261.912668 
L 157.096356 262.135509 
L 158.24017 262.152941 
L 161.671614 262.225571 
L 163.142233 262.236243 
L 164.612852 262.042538 
L 166.573677 261.512949 
L 172.619555 259.743252 
L 172.782957 259.795409 
L 172.946359 260.002073 
L 173.273163 261.062015 
L 173.599967 262.340107 
L 173.76337 262.635251 
L 173.926772 262.479375 
L 174.253576 261.100772 
L 174.907184 258.099346 
L 175.233988 257.572266 
L 175.560793 257.485646 
L 176.050999 257.644139 
L 176.704607 258.052053 
L 177.031411 258.53804 
L 177.848422 260.934173 
L 178.011824 260.883639 
L 178.338628 260.041702 
L 178.992237 258.023048 
L 179.319041 257.773375 
L 179.645845 257.797172 
L 180.136051 258.058021 
L 180.462855 258.429543 
L 180.78966 259.228358 
L 181.279866 260.595999 
L 181.443268 260.680087 
L 181.60667 260.553805 
L 181.933474 259.723112 
L 182.423681 258.276014 
L 182.750485 257.874271 
L 183.077289 257.823013 
L 183.567495 258.054304 
L 183.894299 258.380753 
L 184.221104 259.089544 
L 184.874712 260.689081 
L 185.038114 260.634723 
L 185.364918 259.957047 
L 186.018527 258.127537 
L 186.345331 257.84443 
L 186.672135 257.850569 
L 187.162341 258.084897 
L 187.489146 258.388897 
L 187.81595 259.059289 
L 188.469558 260.717454 
L 188.63296 260.696395 
L 188.959764 260.041971 
L 189.613373 258.136203 
L 189.940177 257.817724 
L 190.266981 257.806504 
L 190.757187 258.022286 
L 191.083992 258.28379 
L 191.410796 258.879888 
L 192.064404 260.63972 
L 192.227806 260.702401 
L 192.391208 260.5316 
L 192.881415 259.089221 
L 193.371621 257.938714 
L 193.698425 257.759252 
L 194.188631 257.879015 
L 194.678838 258.20606 
L 195.005642 258.727274 
L 195.822652 260.70843 
L 195.986055 260.619452 
L 196.312859 259.815707 
L 196.966467 258.017476 
L 197.293271 257.745238 
L 197.620075 257.770339 
L 198.110282 258.031071 
L 198.437086 258.42296 
L 198.927292 259.811233 
L 199.254096 260.649929 
L 199.417499 260.704896 
L 199.580901 260.526173 
L 200.071107 259.003789 
L 200.561313 257.804878 
L 200.888117 257.618785 
L 201.214922 257.716349 
L 201.541726 258.042814 
L 201.86853 258.86211 
L 202.358736 260.376775 
L 202.522138 260.556154 
L 202.68554 260.436591 
L 203.012345 259.558343 
L 203.502551 257.972392 
L 203.829355 257.527571 
L 204.156159 257.495207 
L 204.482963 257.70233 
L 204.809768 258.222718 
L 205.626778 260.301844 
L 205.79018 260.254086 
L 206.116984 259.55856 
L 206.770593 257.825966 
L 207.097397 257.589792 
L 207.424201 257.644723 
L 207.751005 257.872246 
L 208.07781 258.37675 
L 208.89482 260.327075 
L 209.058222 260.281713 
L 209.385026 259.649933 
L 210.038635 257.939282 
L 210.365439 257.681518 
L 210.692243 257.701892 
L 211.345851 258.050812 
L 211.672656 258.437755 
L 212.162862 259.693547 
L 212.489666 260.479423 
L 212.653068 260.558553 
L 212.81647 260.448312 
L 213.143275 259.699146 
L 213.796883 257.98731 
L 214.123687 257.781392 
L 214.287089 257.846286 
L 214.450491 258.089707 
L 214.777296 259.134273 
L 215.267502 260.65918 
L 215.430904 260.653707 
L 215.757708 259.729348 
L 216.247914 258.253997 
L 216.411316 258.282746 
L 216.738121 258.97748 
L 217.064925 259.704811 
L 217.228327 259.856719 
L 217.391729 259.832667 
L 217.881935 260.227145 
L 218.372142 261.595364 
L 220.823173 270.706283 
L 221.803586 273.169637 
L 222.457194 273.933009 
L 222.783998 274.075392 
L 223.110802 273.925209 
L 223.437607 273.427669 
L 223.601009 272.845959 
L 223.927813 270.950901 
L 224.254617 269.979236 
L 224.418019 269.885352 
L 224.908225 271.131577 
L 225.071628 270.999851 
L 225.23503 270.710166 
L 225.725236 269.47999 
L 225.888638 269.119405 
L 226.378844 266.538126 
L 226.869051 263.78845 
L 227.032453 263.252196 
L 227.359257 261.04721 
L 228.012865 255.057814 
L 228.339669 252.498321 
L 228.666474 251.249896 
L 228.829876 250.988233 
L 228.993278 251.058431 
L 229.483484 251.805541 
L 230.300495 254.386771 
L 230.790701 256.086733 
L 231.934516 258.634719 
L 232.588124 259.233339 
L 232.914928 259.313244 
L 233.07833 259.319542 
L 233.405134 259.508721 
L 233.895341 259.427852 
L 234.222145 259.434807 
L 234.548949 259.325728 
L 234.875753 259.368737 
L 235.202557 259.194862 
L 235.529362 259.240669 
L 235.856166 259.046227 
L 236.346372 259.336877 
L 236.509774 259.606134 
L 236.99998 261.103509 
L 237.163383 261.081139 
L 237.490187 260.328149 
L 238.143795 257.685669 
L 238.470599 257.271318 
L 239.124208 259.166983 
L 239.28761 259.176104 
L 239.777816 258.752788 
L 240.10462 258.955354 
L 240.921631 257.808016 
L 241.085033 257.797487 
L 241.248435 257.604664 
L 241.902043 256.296791 
L 242.228848 255.83752 
L 242.555652 254.923267 
L 242.882456 253.958778 
L 243.372662 252.537705 
L 244.516477 248.619922 
L 245.006683 247.360126 
L 245.170085 247.12343 
L 245.333487 247.091336 
L 245.496889 247.301186 
L 245.823694 248.160199 
L 246.3139 251.941874 
L 246.804106 255.695916 
L 247.13091 256.930721 
L 247.457715 258.055457 
L 247.784519 258.372172 
L 247.947921 258.119949 
L 248.274725 257.089585 
L 248.438127 257.003568 
L 248.601529 256.761876 
L 249.581942 253.655116 
L 249.745344 253.641011 
L 250.398952 252.683517 
L 250.562354 252.278562 
L 250.725756 252.230925 
L 251.052561 253.054129 
L 251.215963 253.20273 
L 251.542767 254.063719 
L 251.706169 254.246899 
L 252.032973 255.343094 
L 252.52318 255.950497 
L 252.849984 255.679115 
L 253.013386 255.673888 
L 253.503592 254.518512 
L 255.137613 249.92265 
L 255.791221 249.113961 
L 256.118026 249.114782 
L 256.281428 249.229341 
L 256.608232 249.853312 
L 257.098438 251.314453 
L 257.588644 254.103305 
L 258.078851 257.040844 
L 258.405655 257.697961 
L 259.059263 258.823056 
L 259.222665 258.920576 
L 259.386068 258.778627 
L 259.712872 258.228331 
L 260.039676 258.012585 
L 260.529882 256.865281 
L 261.020089 255.354596 
L 261.673697 254.627934 
L 262.163903 254.038551 
L 262.327305 254.259931 
L 262.817512 255.391565 
L 263.144316 255.833936 
L 263.307718 255.924332 
L 263.961326 256.833565 
L 264.28813 256.713339 
L 264.614935 256.58924 
L 264.941739 256.793879 
L 265.268543 256.58631 
L 265.758749 256.142882 
L 266.412358 256.293064 
L 267.065966 256.226375 
L 267.556172 256.533486 
L 268.536585 256.873828 
L 269.026791 257.067652 
L 269.516997 257.184781 
L 270.334008 257.53665 
L 270.824214 257.679289 
L 271.804627 258.062726 
L 273.111844 258.614634 
L 277.5237 260.446779 
L 279.321123 261.390522 
L 280.464938 261.507067 
L 280.955144 260.865207 
L 281.281948 260.537035 
L 281.608753 260.523249 
L 282.425763 260.695115 
L 282.915969 260.484667 
L 283.406176 260.066593 
L 284.386588 258.838261 
L 284.713392 259.056048 
L 285.530403 259.949804 
L 286.020609 260.056917 
L 286.510815 259.895258 
L 286.83762 259.554553 
L 287.491228 258.742801 
L 287.818032 258.825353 
L 288.635043 259.67413 
L 288.961847 259.752143 
L 289.615455 259.335955 
L 290.595868 258.287434 
L 291.412878 257.431706 
L 291.903085 257.124307 
L 292.393291 257.039582 
L 292.883497 257.222203 
L 293.373703 257.699189 
L 293.86391 258.477842 
L 294.517518 259.953776 
L 295.497931 262.83347 
L 296.478343 265.642549 
L 297.131952 266.57606 
L 297.78556 266.844747 
L 298.60257 266.325101 
L 299.909787 264.4039 
L 300.8902 262.533283 
L 302.034014 260.997983 
L 302.197417 260.968399 
L 302.360819 261.264571 
L 303.014427 263.017793 
L 303.177829 262.977112 
L 303.504633 261.771767 
L 304.158242 258.833749 
L 304.485046 258.403828 
L 304.975252 258.25169 
L 305.465458 258.476766 
L 305.792263 258.655461 
L 306.282469 258.86394 
L 306.936077 259.163738 
L 308.079892 259.610319 
L 309.223707 259.802183 
L 309.713913 260.115526 
L 310.530923 262.160502 
L 310.694326 262.096854 
L 311.02113 261.075334 
L 311.674738 258.713815 
L 312.001542 258.287082 
L 312.491749 258.216689 
L 314.289172 259.066529 
L 314.615976 259.51909 
L 315.432986 261.408381 
L 315.596388 261.306997 
L 315.923193 260.449742 
L 316.576801 258.711381 
L 316.903605 258.547432 
L 317.230409 258.46956 
L 318.374224 258.897666 
L 318.86443 259.154745 
L 319.191234 259.575681 
L 320.008245 261.374633 
L 320.171647 261.334323 
L 320.498451 260.626208 
L 321.15206 258.904894 
L 321.315462 258.644526 
L 321.805668 258.59439 
L 322.459276 258.799822 
L 323.276287 259.178827 
L 323.603091 259.560084 
L 324.583504 261.412455 
L 324.910308 260.837214 
L 325.563916 259.260326 
L 325.89072 259.081748 
L 326.380927 259.465375 
L 326.871133 260.308642 
L 327.524741 262.04401 
L 328.99536 266.784852 
L 330.792783 272.553304 
L 331.609794 274.417244 
L 332.1 275.134229 
L 332.590206 275.491017 
L 332.91701 275.383961 
L 333.734021 274.738809 
L 334.224227 273.370489 
L 337.492269 263.960102 
L 337.982475 262.952844 
L 338.962888 261.437496 
L 339.453094 260.93372 
L 340.106703 260.459525 
L 340.923713 260.099745 
L 341.577322 259.944896 
L 342.557734 259.754344 
L 343.211342 259.723288 
L 343.538147 260.004561 
L 344.191755 260.949984 
L 344.355157 260.87098 
L 344.681961 260.308288 
L 345.33557 259.04481 
L 345.662374 258.833638 
L 346.15258 258.806773 
L 347.786601 259.252825 
L 349.747426 259.849118 
L 351.381447 260.390818 
L 352.688664 260.518264 
L 354.486087 260.442628 
L 356.120108 260.129964 
L 358.571139 259.678613 
L 360.041758 259.596563 
L 364.126811 259.662923 
L 364.943821 259.282733 
L 365.924234 259.338489 
L 366.41444 258.995535 
L 366.904646 258.46541 
L 367.394853 257.768373 
L 367.885059 256.889472 
L 368.538667 255.455738 
L 369.682482 252.538584 
L 370.172688 251.723323 
L 370.826297 251.333135 
L 371.316503 251.581917 
L 371.643307 251.90976 
L 372.950524 254.228091 
L 374.747947 258.082295 
L 375.728359 259.480107 
L 376.381968 260.11739 
L 377.035576 260.54068 
L 377.852587 260.897574 
L 378.179391 260.880286 
L 378.506195 260.201235 
L 378.996401 258.624953 
L 379.159803 258.492958 
L 379.323206 258.808452 
L 379.813412 261.05463 
L 380.140216 262.423015 
L 380.46702 263.003426 
L 380.793824 263.177457 
L 381.447433 263.032202 
L 384.061866 262.055154 
L 385.042279 261.902215 
L 385.695887 262.010869 
L 386.6763 262.373818 
L 389.290733 263.602296 
L 389.617538 263.641688 
L 389.78094 263.576222 
L 389.944342 263.227694 
L 390.59795 260.836134 
L 390.761352 260.88723 
L 391.251559 262.251972 
L 391.414961 262.736825 
L 391.578363 262.847631 
L 391.741765 262.037137 
L 391.905167 262.119689 
L 392.558775 253.453349 
L 392.722177 252.337697 
L 392.885579 252.794929 
L 393.212384 256.925137 
L 394.356198 278.87845 
L 394.5196 279.262784 
L 394.683003 279.196651 
L 395.336611 278.443191 
L 395.663415 278.021059 
L 396.643828 276.240911 
L 397.951044 273.003381 
L 399.748467 267.260169 
L 402.036097 259.332141 
L 402.526303 258.651764 
L 402.853107 258.462138 
L 403.179911 258.682579 
L 404.160324 259.481119 
L 404.323726 259.608207 
L 404.977335 259.483992 
L 405.794345 258.826285 
L 406.93816 257.09724 
L 407.428366 256.914892 
L 408.245376 257.344659 
L 409.879397 258.609163 
L 411.350016 259.090431 
L 411.67682 259.4765 
L 412.167027 260.034684 
L 412.330429 260.063317 
L 412.657233 259.674269 
L 413.310841 258.751747 
L 413.637646 258.580772 
L 414.291254 258.534602 
L 415.761873 258.801798 
L 416.742285 259.173002 
L 417.232492 259.032454 
L 417.722698 258.821592 
L 418.539708 258.787638 
L 422.134555 258.900644 
L 422.624761 259.164395 
L 423.441771 259.996059 
L 424.422184 260.846796 
L 425.075792 261.081926 
L 425.565999 261.003396 
L 426.056205 260.663677 
L 426.546411 260.043302 
L 427.20002 258.793009 
L 428.01703 256.733084 
L 429.324247 253.293133 
L 430.304659 252.497812 
L 431.12167 252.845464 
L 431.93868 253.894922 
L 432.428887 254.70544 
L 434.062908 258.028636 
L 435.206722 259.710754 
L 435.696928 260.078779 
L 436.187135 260.368431 
L 437.494352 260.608933 
L 438.474764 260.627132 
L 439.291775 260.617028 
L 440.762393 260.512265 
L 441.906208 260.400935 
L 444.030435 260.604451 
L 447.298477 261.503594 
L 448.605694 261.787753 
L 450.239715 261.979927 
L 456.448995 262.534951 
L 458.736624 262.87759 
L 459.717037 262.746637 
L 463.311883 261.973387 
L 464.128893 262.136354 
L 464.945904 262.467645 
L 466.743327 263.342387 
L 466.906729 262.974492 
L 467.560337 260.556685 
L 467.723739 260.489669 
L 468.377348 261.5681 
L 468.704152 262.126982 
L 469.030956 263.246777 
L 469.684564 266.29406 
L 470.011369 266.75219 
L 470.174771 266.740218 
L 470.828379 265.991676 
L 471.972194 264.243486 
L 473.442813 262.715108 
L 474.096421 262.433089 
L 475.076833 262.381341 
L 475.893844 262.5254 
L 477.037659 262.785621 
L 479.325288 262.82318 
L 479.652092 262.695794 
L 480.142298 262.341367 
L 480.469103 262.349259 
L 480.795907 262.646147 
L 481.286113 263.09091 
L 481.776319 263.243826 
L 483.41034 263.333969 
L 483.573742 263.257233 
L 483.737145 262.99732 
L 484.390753 261.045354 
L 484.554155 260.957036 
L 484.717557 261.260859 
L 485.69797 264.269855 
L 486.024774 264.254466 
L 486.51498 264.07999 
L 487.495393 264.192072 
L 488.149001 263.775234 
L 490.109826 262.613004 
L 490.926837 262.479439 
L 492.070651 262.61688 
L 493.214466 262.845333 
L 493.377868 262.746269 
L 493.704672 261.919103 
L 494.194879 260.493583 
L 494.358281 260.568723 
L 494.685085 261.624101 
L 495.011889 262.797698 
L 495.175291 263.095789 
L 495.338693 263.161719 
L 495.665497 262.908385 
L 495.8289 262.963093 
L 496.155704 263.871201 
L 496.64591 265.44273 
L 496.809312 265.388822 
L 497.462921 263.916146 
L 497.626323 263.964484 
L 497.953127 264.282433 
L 498.279931 264.120801 
L 498.606735 264.348603 
L 498.933539 265.050901 
L 499.260344 265.582709 
L 499.587148 265.729462 
L 500.077354 266.274972 
L 500.404158 266.899599 
L 501.547973 267.702916 
L 501.874777 268.085894 
L 502.201581 268.193938 
L 502.528386 268.000993 
L 503.181994 266.817275 
L 503.999004 265.332056 
L 504.489211 264.763057 
L 505.306221 263.798194 
L 506.123232 260.979809 
L 506.286634 261.046229 
L 506.77684 262.156508 
L 507.103644 262.139068 
L 507.430448 261.923904 
L 507.59385 262.138454 
L 507.920655 262.885123 
L 508.247459 263.187469 
L 508.574263 263.959901 
L 509.064469 266.085747 
L 509.391274 267.054995 
L 509.718078 267.377927 
L 510.208284 267.410373 
L 510.535088 267.749744 
L 510.861892 267.325659 
L 511.188697 266.6322 
L 511.515501 265.846922 
L 511.678903 265.704702 
L 512.169109 264.848636 
L 512.495913 264.707702 
L 512.659315 264.864956 
L 512.98612 265.375051 
L 513.149522 265.466028 
L 513.476326 266.155418 
L 514.783543 269.35009 
L 514.946945 269.549221 
L 515.273749 269.48834 
L 515.437151 269.290664 
L 515.763955 268.121001 
L 516.254162 266.150862 
L 516.580966 265.566211 
L 517.071172 265.495129 
L 517.397976 265.07602 
L 517.888182 264.081063 
L 518.051585 264.028806 
L 518.378389 264.404799 
L 518.868595 265.1116 
L 519.031997 265.163231 
L 519.358801 264.539146 
L 520.01241 262.20404 
L 522.626843 251.988824 
L 523.607256 249.168857 
L 524.260864 248.024068 
L 524.75107 247.596345 
L 525.077875 247.521812 
L 525.404679 247.655469 
L 526.058287 248.386725 
L 527.0387 249.915141 
L 527.202102 250.308556 
L 527.528906 252.219191 
L 527.692308 252.260554 
L 527.85571 252.005141 
L 528.019112 252.238461 
L 528.182514 251.971757 
L 528.345917 252.155994 
L 529.816535 255.741428 
L 530.633546 259.769606 
L 530.96035 261.406761 
L 531.940763 267.435873 
L 533.084577 271.485383 
L 534.228392 274.758967 
L 535.045402 276.597418 
L 535.699011 277.704386 
L 536.025815 278.12507 
L 536.189217 277.856329 
L 536.352619 278.14568 
L 536.516021 278.82579 
L 536.679423 278.81601 
L 536.842826 279.19073 
L 537.006228 279.155204 
L 537.333032 279.372072 
L 538.150042 279.155352 
L 538.313444 278.986372 
L 538.476846 279.021542 
L 538.640249 279.429382 
L 539.457259 278.785046 
L 539.947465 277.883022 
L 540.601074 276.272842 
L 541.90829 273.506956 
L 542.398497 270.567998 
L 543.215507 265.657455 
L 543.869116 263.210668 
L 544.359322 262.160986 
L 545.339734 261.213942 
L 546.156745 260.876067 
L 546.483549 260.75362 
L 547.463962 260.678354 
L 548.11757 260.625323 
L 549.261385 260.56277 
L 550.241797 260.876625 
L 550.732004 260.934883 
L 551.058808 260.715471 
L 551.549014 260.766079 
L 551.712416 261.005269 
L 552.202623 257.298907 
L 552.366025 257.336029 
L 552.692829 262.988622 
L 552.856231 258.874779 
L 553.019633 249.776415 
L 553.183035 255.664708 
L 553.346437 256.752887 
L 553.509839 256.357367 
L 553.673241 254.041662 
L 554.490252 275.083337 
L 554.653654 274.856375 
L 554.980458 273.862255 
L 555.307262 272.654914 
L 555.960871 269.676772 
L 557.104685 262.886599 
L 558.085098 252.806385 
L 558.738706 242.074513 
L 559.065511 234.024632 
L 560.372727 177.713018 
L 560.372727 177.713018 
" style="fill:none;stroke:#1f77b4;stroke-linecap:square;stroke-width:1.5;"/>
   </g>
   <g id="patch_9">
    <path d="M 81 284.5152 
L 81 172.6272 
" style="fill:none;stroke:#000000;stroke-linecap:square;stroke-linejoin:miter;stroke-width:0.8;"/>
   </g>
   <g id="patch_10">
    <path d="M 583.2 284.5152 
L 583.2 172.6272 
" style="fill:none;stroke:#000000;stroke-linecap:square;stroke-linejoin:miter;stroke-width:0.8;"/>
   </g>
   <g id="patch_11">
    <path d="M 81 284.5152 
L 583.2 284.5152 
" style="fill:none;stroke:#000000;stroke-linecap:square;stroke-linejoin:miter;stroke-width:0.8;"/>
   </g>
   <g id="patch_12">
    <path d="M 81 172.6272 
L 583.2 172.6272 
" style="fill:none;stroke:#000000;stroke-linecap:square;stroke-linejoin:miter;stroke-width:0.8;"/>
   </g>
   <g id="legend_2">
    <g id="patch_13">
     <path d="M 88 195.58345 
L 177.417188 195.58345 
Q 179.417188 195.58345 179.417188 193.58345 
L 179.417188 179.6272 
Q 179.417188 177.6272 177.417188 177.6272 
L 88 177.6272 
Q 86 177.6272 86 179.6272 
L 86 193.58345 
Q 86 195.58345 88 195.58345 
z
" style="fill:#ffffff;opacity:0.8;stroke:#cccccc;stroke-linejoin:miter;"/>
    </g>
    <g id="line2d_31">
     <path d="M 90 185.725637 
L 110 185.725637 
" style="fill:none;stroke:#1f77b4;stroke-linecap:square;stroke-width:1.5;"/>
    </g>
    <g id="line2d_32"/>
    <g id="text_21">
     <!-- state_diff_y -->
     <g transform="translate(118 189.225637)scale(0.1 -0.1)">
      <defs>
       <path d="M 2059 -325 
Q 1816 -950 1584 -1140 
Q 1353 -1331 966 -1331 
L 506 -1331 
L 506 -850 
L 844 -850 
Q 1081 -850 1212 -737 
Q 1344 -625 1503 -206 
L 1606 56 
L 191 3500 
L 800 3500 
L 1894 763 
L 2988 3500 
L 3597 3500 
L 2059 -325 
z
" id="DejaVuSans-79" transform="scale(0.015625)"/>
      </defs>
      <use xlink:href="#DejaVuSans-73"/>
      <use x="52.099609" xlink:href="#DejaVuSans-74"/>
      <use x="91.308594" xlink:href="#DejaVuSans-61"/>
      <use x="152.587891" xlink:href="#DejaVuSans-74"/>
      <use x="191.796875" xlink:href="#DejaVuSans-65"/>
      <use x="253.320312" xlink:href="#DejaVuSans-5f"/>
      <use x="303.320312" xlink:href="#DejaVuSans-64"/>
      <use x="366.796875" xlink:href="#DejaVuSans-69"/>
      <use x="394.580078" xlink:href="#DejaVuSans-66"/>
      <use x="429.785156" xlink:href="#DejaVuSans-66"/>
      <use x="464.990234" xlink:href="#DejaVuSans-5f"/>
      <use x="514.990234" xlink:href="#DejaVuSans-79"/>
     </g>
    </g>
   </g>
  </g>
 </g>
 <defs>
  <clipPath id="pdc8ab3210f">
   <rect height="111.888" width="502.2" x="81" y="38.3616"/>
  </clipPath>
  <clipPath id="p838c4dc09e">
   <rect height="111.888" width="502.2" x="81" y="172.6272"/>
  </clipPath>
 </defs>
</svg>
