<?xml version="1.0" encoding="utf-8" standalone="no"?>
<!DOCTYPE svg PUBLIC "-//W3C//DTD SVG 1.1//EN"
  "http://www.w3.org/Graphics/SVG/1.1/DTD/svg11.dtd">
<svg height="852.48pt" version="1.1" viewBox="0 0 255.6 852.48" width="255.6pt" xmlns="http://www.w3.org/2000/svg" xmlns:xlink="http://www.w3.org/1999/xlink">
 <metadata>
  <rdf:RDF xmlns:cc="http://creativecommons.org/ns#" xmlns:dc="http://purl.org/dc/elements/1.1/" xmlns:rdf="http://www.w3.org/1999/02/22-rdf-syntax-ns#">
   <cc:Work>
    <dc:type rdf:resource="http://purl.org/dc/dcmitype/StillImage"/>
    <dc:date>2021-10-14T14:36:53.007180</dc:date>
    <dc:format>image/svg+xml</dc:format>
    <dc:creator>
     <cc:Agent>
      <dc:title>Matplotlib v3.4.3, https://matplotlib.org/</dc:title>
     </cc:Agent>
    </dc:creator>
   </cc:Work>
  </rdf:RDF>
 </metadata>
 <defs>
  <style type="text/css">*{stroke-linecap:butt;stroke-linejoin:round;}</style>
 </defs>
 <g id="figure_1">
  <g id="patch_1">
   <path d="M 0 852.48 
L 255.6 852.48 
L 255.6 0 
L 0 0 
z
" style="fill:#ffffff;"/>
  </g>
  <g id="axes_1">
   <g id="patch_2">
    <path d="M 31.95 758.7072 
L 230.04 758.7072 
L 230.04 102.2976 
L 31.95 102.2976 
z
" style="fill:#ffffff;"/>
   </g>
   <g id="matplotlib.axis_1">
    <g id="xtick_1">
     <g id="line2d_1">
      <path clip-path="url(#pf18c88fd8c)" d="M 74.349273 758.7072 
L 74.349273 102.2976 
" style="fill:none;stroke:#b0b0b0;stroke-linecap:square;stroke-width:0.8;"/>
     </g>
     <g id="line2d_2">
      <defs>
       <path d="M 0 0 
L 0 3.5 
" id="m7574a132bd" style="stroke:#000000;stroke-width:0.8;"/>
      </defs>
      <g>
       <use style="stroke:#000000;stroke-width:0.8;" x="74.349273" xlink:href="#m7574a132bd" y="758.7072"/>
      </g>
     </g>
     <g id="text_1">
      <!-- −2 -->
      <g transform="translate(66.978179 773.305637)scale(0.1 -0.1)">
       <defs>
        <path d="M 678 2272 
L 4684 2272 
L 4684 1741 
L 678 1741 
L 678 2272 
z
" id="DejaVuSans-2212" transform="scale(0.015625)"/>
        <path d="M 1228 531 
L 3431 531 
L 3431 0 
L 469 0 
L 469 531 
Q 828 903 1448 1529 
Q 2069 2156 2228 2338 
Q 2531 2678 2651 2914 
Q 2772 3150 2772 3378 
Q 2772 3750 2511 3984 
Q 2250 4219 1831 4219 
Q 1534 4219 1204 4116 
Q 875 4013 500 3803 
L 500 4441 
Q 881 4594 1212 4672 
Q 1544 4750 1819 4750 
Q 2544 4750 2975 4387 
Q 3406 4025 3406 3419 
Q 3406 3131 3298 2873 
Q 3191 2616 2906 2266 
Q 2828 2175 2409 1742 
Q 1991 1309 1228 531 
z
" id="DejaVuSans-32" transform="scale(0.015625)"/>
       </defs>
       <use xlink:href="#DejaVuSans-2212"/>
       <use x="83.789062" xlink:href="#DejaVuSans-32"/>
      </g>
     </g>
    </g>
    <g id="xtick_2">
     <g id="line2d_3">
      <path clip-path="url(#pf18c88fd8c)" d="M 130.679998 758.7072 
L 130.679998 102.2976 
" style="fill:none;stroke:#b0b0b0;stroke-linecap:square;stroke-width:0.8;"/>
     </g>
     <g id="line2d_4">
      <g>
       <use style="stroke:#000000;stroke-width:0.8;" x="130.679998" xlink:href="#m7574a132bd" y="758.7072"/>
      </g>
     </g>
     <g id="text_2">
      <!-- 0 -->
      <g transform="translate(127.498748 773.305637)scale(0.1 -0.1)">
       <defs>
        <path d="M 2034 4250 
Q 1547 4250 1301 3770 
Q 1056 3291 1056 2328 
Q 1056 1369 1301 889 
Q 1547 409 2034 409 
Q 2525 409 2770 889 
Q 3016 1369 3016 2328 
Q 3016 3291 2770 3770 
Q 2525 4250 2034 4250 
z
M 2034 4750 
Q 2819 4750 3233 4129 
Q 3647 3509 3647 2328 
Q 3647 1150 3233 529 
Q 2819 -91 2034 -91 
Q 1250 -91 836 529 
Q 422 1150 422 2328 
Q 422 3509 836 4129 
Q 1250 4750 2034 4750 
z
" id="DejaVuSans-30" transform="scale(0.015625)"/>
       </defs>
       <use xlink:href="#DejaVuSans-30"/>
      </g>
     </g>
    </g>
    <g id="xtick_3">
     <g id="line2d_5">
      <path clip-path="url(#pf18c88fd8c)" d="M 187.010723 758.7072 
L 187.010723 102.2976 
" style="fill:none;stroke:#b0b0b0;stroke-linecap:square;stroke-width:0.8;"/>
     </g>
     <g id="line2d_6">
      <g>
       <use style="stroke:#000000;stroke-width:0.8;" x="187.010723" xlink:href="#m7574a132bd" y="758.7072"/>
      </g>
     </g>
     <g id="text_3">
      <!-- 2 -->
      <g transform="translate(183.829473 773.305637)scale(0.1 -0.1)">
       <use xlink:href="#DejaVuSans-32"/>
      </g>
     </g>
    </g>
   </g>
   <g id="matplotlib.axis_2">
    <g id="ytick_1">
     <g id="line2d_7">
      <defs>
       <path d="M 0 0 
L -3.5 0 
" id="me3bec3fdc8" style="stroke:#000000;stroke-width:0.8;"/>
      </defs>
      <g>
       <use style="stroke:#000000;stroke-width:0.8;" x="31.95" xlink:href="#me3bec3fdc8" y="728.8704"/>
      </g>
     </g>
     <g id="text_4">
      <!-- 0 -->
      <g transform="translate(18.5875 732.669619)scale(0.1 -0.1)">
       <use xlink:href="#DejaVuSans-30"/>
      </g>
     </g>
    </g>
    <g id="ytick_2">
     <g id="line2d_8">
      <g>
       <use style="stroke:#000000;stroke-width:0.8;" x="31.95" xlink:href="#me3bec3fdc8" y="622.081567"/>
      </g>
     </g>
     <g id="text_5">
      <!-- 500 -->
      <g transform="translate(5.8625 625.880786)scale(0.1 -0.1)">
       <defs>
        <path d="M 691 4666 
L 3169 4666 
L 3169 4134 
L 1269 4134 
L 1269 2991 
Q 1406 3038 1543 3061 
Q 1681 3084 1819 3084 
Q 2600 3084 3056 2656 
Q 3513 2228 3513 1497 
Q 3513 744 3044 326 
Q 2575 -91 1722 -91 
Q 1428 -91 1123 -41 
Q 819 9 494 109 
L 494 744 
Q 775 591 1075 516 
Q 1375 441 1709 441 
Q 2250 441 2565 725 
Q 2881 1009 2881 1497 
Q 2881 1984 2565 2268 
Q 2250 2553 1709 2553 
Q 1456 2553 1204 2497 
Q 953 2441 691 2322 
L 691 4666 
z
" id="DejaVuSans-35" transform="scale(0.015625)"/>
       </defs>
       <use xlink:href="#DejaVuSans-35"/>
       <use x="63.623047" xlink:href="#DejaVuSans-30"/>
       <use x="127.246094" xlink:href="#DejaVuSans-30"/>
      </g>
     </g>
    </g>
    <g id="ytick_3">
     <g id="line2d_9">
      <g>
       <use style="stroke:#000000;stroke-width:0.8;" x="31.95" xlink:href="#me3bec3fdc8" y="515.292734"/>
      </g>
     </g>
     <g id="text_6">
      <!-- 1000 -->
      <g transform="translate(-0.5 519.091952)scale(0.1 -0.1)">
       <defs>
        <path d="M 794 531 
L 1825 531 
L 1825 4091 
L 703 3866 
L 703 4441 
L 1819 4666 
L 2450 4666 
L 2450 531 
L 3481 531 
L 3481 0 
L 794 0 
L 794 531 
z
" id="DejaVuSans-31" transform="scale(0.015625)"/>
       </defs>
       <use xlink:href="#DejaVuSans-31"/>
       <use x="63.623047" xlink:href="#DejaVuSans-30"/>
       <use x="127.246094" xlink:href="#DejaVuSans-30"/>
       <use x="190.869141" xlink:href="#DejaVuSans-30"/>
      </g>
     </g>
    </g>
    <g id="ytick_4">
     <g id="line2d_10">
      <g>
       <use style="stroke:#000000;stroke-width:0.8;" x="31.95" xlink:href="#me3bec3fdc8" y="408.5039"/>
      </g>
     </g>
     <g id="text_7">
      <!-- 1500 -->
      <g transform="translate(-0.5 412.303119)scale(0.1 -0.1)">
       <use xlink:href="#DejaVuSans-31"/>
       <use x="63.623047" xlink:href="#DejaVuSans-35"/>
       <use x="127.246094" xlink:href="#DejaVuSans-30"/>
       <use x="190.869141" xlink:href="#DejaVuSans-30"/>
      </g>
     </g>
    </g>
    <g id="ytick_5">
     <g id="line2d_11">
      <g>
       <use style="stroke:#000000;stroke-width:0.8;" x="31.95" xlink:href="#me3bec3fdc8" y="301.715067"/>
      </g>
     </g>
     <g id="text_8">
      <!-- 2000 -->
      <g transform="translate(-0.5 305.514286)scale(0.1 -0.1)">
       <use xlink:href="#DejaVuSans-32"/>
       <use x="63.623047" xlink:href="#DejaVuSans-30"/>
       <use x="127.246094" xlink:href="#DejaVuSans-30"/>
       <use x="190.869141" xlink:href="#DejaVuSans-30"/>
      </g>
     </g>
    </g>
    <g id="ytick_6">
     <g id="line2d_12">
      <g>
       <use style="stroke:#000000;stroke-width:0.8;" x="31.95" xlink:href="#me3bec3fdc8" y="194.926234"/>
      </g>
     </g>
     <g id="text_9">
      <!-- 2500 -->
      <g transform="translate(-0.5 198.725453)scale(0.1 -0.1)">
       <use xlink:href="#DejaVuSans-32"/>
       <use x="63.623047" xlink:href="#DejaVuSans-35"/>
       <use x="127.246094" xlink:href="#DejaVuSans-30"/>
       <use x="190.869141" xlink:href="#DejaVuSans-30"/>
      </g>
     </g>
    </g>
   </g>
   <g id="line2d_13">
    <path clip-path="url(#pf18c88fd8c)" d="M 130.679998 728.8704 
L 129.361915 728.016089 
L 128.444883 727.161779 
L 127.880621 726.307468 
L 127.622148 725.453157 
L 127.607745 724.598847 
L 127.822417 723.530958 
L 128.496081 721.608759 
L 129.601924 718.83225 
L 131.159727 716.269318 
L 131.467508 715.201429 
L 131.572454 714.133541 
L 131.474937 712.42492 
L 130.958218 706.444745 
L 130.82978 700.891726 
L 130.638918 690.42642 
L 130.418074 687.64991 
L 130.533389 681.029003 
L 130.299641 679.961114 
L 130.511612 679.320381 
L 130.78898 678.466071 
L 130.819886 677.398182 
L 130.614743 673.767362 
L 130.421311 672.699474 
L 130.615356 671.845163 
L 130.7697 670.990852 
L 130.74879 669.282231 
L 130.510301 665.224255 
L 130.220543 660.739124 
L 130.218585 657.535459 
L 130.489487 638.313469 
L 130.208652 637.459159 
L 130.297264 637.032003 
L 130.811888 635.750537 
L 130.838846 634.682649 
L 130.668648 632.974028 
L 130.419296 632.119717 
L 130.528305 631.478984 
L 130.803259 630.411096 
L 130.769281 628.916052 
L 130.574088 628.061741 
L 130.450976 627.421008 
L 130.567539 626.780275 
L 130.800958 625.712387 
L 130.747658 624.217343 
L 130.486075 622.508722 
L 130.807169 620.800101 
L 130.712361 619.305057 
L 130.475611 617.810013 
L 130.810794 616.101392 
L 130.684712 614.392771 
L 130.446881 613.324882 
L 130.576504 612.684149 
L 130.807123 611.616261 
L 130.766192 610.121217 
L 130.581867 609.266907 
L 130.4467 608.626174 
L 130.554225 607.985441 
L 130.804903 606.917552 
L 130.770132 605.422509 
L 130.562626 604.568198 
L 130.446179 603.927465 
L 130.584051 603.286732 
L 130.824896 602.218844 
L 130.789306 601.150955 
L 130.522946 599.442334 
L 130.844009 598.160868 
L 130.807456 597.09298 
L 130.535506 595.384358 
L 130.838798 593.889315 
L 130.751221 592.607849 
L 130.501555 591.326383 
L 130.755517 590.258494 
L 130.831331 589.404184 
L 130.704051 587.695562 
L 130.484235 586.414096 
L 130.791533 584.27832 
L 130.460706 582.996854 
L 130.717733 581.50181 
L 130.559149 580.647499 
L 130.461985 579.579611 
L 130.030634 578.298145 
L 129.024917 575.09448 
L 128.736887 573.385859 
L 128.719731 572.531548 
L 129.042909 571.250082 
L 128.70932 570.395772 
L 128.822937 569.114306 
L 129.257102 568.473573 
L 130.175884 567.405684 
L 132.181222 566.124218 
L 132.321851 565.697063 
L 132.23679 565.269908 
L 130.819367 561.852665 
L 130.626797 560.571199 
L 130.590344 558.649 
L 130.637863 555.658913 
L 130.380668 554.377447 
L 130.724151 553.736714 
L 130.971199 553.095981 
L 130.888045 552.668825 
L 130.664922 552.028092 
L 130.804986 550.319471 
L 131.385611 547.329384 
L 131.799906 546.047918 
L 132.023131 545.193607 
L 132.213661 544.125719 
L 132.114496 543.484986 
L 131.890751 543.05783 
L 131.090698 541.989942 
L 130.746603 540.708476 
L 131.223571 538.786277 
L 131.314497 538.359122 
L 131.415135 537.504811 
L 131.479176 536.864078 
L 131.043255 534.728301 
L 131.109147 533.660413 
L 131.962814 529.816015 
L 131.862344 528.961704 
L 131.661091 528.320971 
L 130.941216 527.039505 
L 130.759666 525.544462 
L 131.49033 521.700064 
L 131.291894 520.632175 
L 131.195475 518.069243 
L 131.326789 516.5742 
L 131.405148 514.011268 
L 131.369746 511.448336 
L 131.409465 509.098981 
L 131.441037 502.478074 
L 131.559206 500.128719 
L 131.188826 497.565787 
L 130.985099 496.925054 
L 131.022541 495.857166 
L 130.91985 494.5757 
L 130.695398 493.721389 
L 130.488078 492.867079 
L 130.601412 492.226346 
L 130.81396 491.158457 
L 130.790806 490.090569 
L 130.527163 488.16837 
L 130.722025 487.100482 
L 130.649787 486.246171 
L 130.295037 484.751127 
L 129.129156 480.693152 
L 128.750024 478.343797 
L 128.722673 477.275909 
L 129.429899 474.285822 
L 130.086908 471.72289 
L 130.387378 470.227846 
L 130.399382 469.373535 
L 130.150473 468.519225 
L 130.230862 468.092069 
L 130.788922 466.810603 
L 130.80676 465.529137 
L 130.588029 459.76254 
L 130.300979 458.481074 
L 130.625751 457.626764 
L 130.831093 456.772453 
L 130.815126 455.277409 
L 130.617276 453.141633 
L 130.405016 452.287322 
L 130.537381 451.646589 
L 130.804774 450.578701 
L 130.784868 448.870079 
L 130.629047 447.161458 
L 130.419128 446.307147 
L 130.522338 445.666414 
L 130.793655 444.598526 
L 130.79558 443.31706 
L 130.642358 441.394861 
L 130.423353 440.326973 
L 130.624782 439.472662 
L 130.74691 438.618351 
L 130.622112 437.550463 
L 130.197314 436.055419 
L 129.068509 432.211021 
L 128.752793 430.288822 
L 128.707238 428.793779 
L 128.793666 427.72589 
L 129.435617 424.735803 
L 130.431015 419.609939 
L 130.574937 415.979119 
L 130.425838 415.338386 
L 130.219607 414.697653 
L 130.295708 414.270497 
L 130.803992 412.989031 
L 130.823743 411.921143 
L 130.514764 407.436012 
L 130.184568 402.950881 
L 130.087234 398.892905 
L 130.322115 393.767041 
L 130.527118 389.068333 
L 130.351533 388.4276 
L 130.173974 387.786867 
L 130.09896 385.65109 
L 128.966796 381.165959 
L 129.01903 380.098071 
L 129.238907 378.816605 
L 129.984514 375.61294 
L 130.381122 372.83643 
L 130.459486 370.05992 
L 130.227298 368.778454 
L 130.748011 367.069833 
L 130.699913 365.147634 
L 130.595414 360.662503 
L 130.677901 354.682328 
L 130.463204 354.041595 
L 130.594243 353.400862 
L 130.746177 352.760129 
L 130.613225 352.332974 
L 130.102756 351.905819 
L 129.436712 351.478663 
L 129.359596 351.265086 
L 129.674512 350.83793 
L 131.341849 349.770042 
L 132.616064 349.129309 
L 132.669007 348.488576 
L 132.615313 339.945469 
L 132.279655 339.304736 
L 131.705858 338.236848 
L 131.427364 337.809693 
L 130.735532 336.955382 
L 130.430292 335.673916 
L 130.56531 335.246761 
L 131.689368 333.110984 
L 131.659882 332.470251 
L 131.363797 331.402363 
L 130.802426 329.266586 
L 130.644143 327.771542 
L 130.469549 326.490076 
L 130.266312 325.635766 
L 130.486247 324.995033 
L 130.77183 324.140722 
L 130.793188 322.859256 
L 130.657614 320.723479 
L 130.585489 319.655591 
L 130.709974 316.879081 
L 130.530232 311.966795 
L 128.746732 304.918732 
L 128.707743 303.423688 
L 128.89359 302.3558 
L 130.338585 295.734892 
L 130.437329 293.599116 
L 130.458686 279.930145 
L 130.487919 273.949971 
L 130.528419 256.223024 
L 130.564786 254.300825 
L 130.25857 253.446515 
L 130.353979 252.805782 
L 130.598704 251.524316 
L 130.980188 250.670005 
L 131.033325 250.029272 
L 130.498303 243.408364 
L 130.567862 237.855345 
L 130.579283 235.933146 
L 130.646813 234.010947 
L 130.617725 232.302326 
L 130.351018 231.234437 
L 130.546826 230.593704 
L 130.790267 229.739394 
L 130.758338 226.962884 
L 130.573039 222.904908 
L 130.514911 219.274088 
L 130.323167 218.633355 
L 130.397137 218.2062 
L 130.682903 217.351889 
L 130.783664 216.070423 
L 130.998438 215.42969 
L 130.867488 214.788957 
L 130.803644 214.148224 
L 130.811676 213.293913 
L 130.941155 212.439603 
L 131.016554 211.585292 
L 131.270646 207.740894 
L 130.522472 203.469341 
L 130.409293 203.042185 
L 130.718185 200.052098 
L 131.04432 199.197787 
L 131.178916 198.557054 
L 131.189846 196.848433 
L 130.870017 194.712656 
L 131.156892 193.004035 
L 131.444428 191.722569 
L 131.454256 190.868258 
L 131.017486 188.946059 
L 130.864803 187.878171 
L 130.847046 187.237438 
L 130.946418 185.955972 
L 130.609975 184.888084 
L 129.237902 181.043686 
L 128.85599 179.335064 
L 128.707464 177.840021 
L 128.732997 175.490666 
L 128.968921 175.063511 
L 128.710937 173.35489 
L 128.705412 172.287001 
L 129.044748 171.859846 
L 129.907668 171.219113 
L 130.599561 170.791958 
L 132.412599 169.937647 
L 132.670371 169.724069 
L 132.597664 156.055099 
L 131.909162 154.98721 
L 131.250337 153.919322 
L 130.90564 152.851434 
L 130.666272 150.929235 
L 130.582616 147.72557 
L 130.655669 143.881172 
L 130.741957 143.454016 
L 129.774849 142.386128 
L 130.195144 142.17255 
L 128.819196 141.745395 
L 129.32544 141.531817 
L 129.449705 141.31824 
L 128.838107 140.891084 
L 132.713079 139.823196 
L 132.893513 133.415866 
L 132.92905 132.347978 
L 132.899416 132.1344 
L 132.899416 132.1344 
" style="fill:none;stroke:#1f77b4;stroke-linecap:square;stroke-width:1.5;"/>
   </g>
   <g id="line2d_14">
    <path clip-path="url(#pf18c88fd8c)" d="M 92.35525 728.8704 
L 99.569445 728.443245 
L 119.666279 726.521046 
L 128.290754 725.453157 
L 132.183255 724.812424 
L 135.055641 724.171691 
L 137.026436 723.530958 
L 137.899258 723.103803 
L 138.428319 722.676648 
L 138.646857 722.249492 
L 138.557789 721.822337 
L 138.168468 721.395182 
L 137.119197 720.754449 
L 135.921263 720.113716 
L 136.739367 719.900138 
L 145.154802 719.472983 
L 145.309193 719.259405 
L 143.597113 719.045827 
L 144.468337 718.83225 
L 147.509411 718.618672 
L 147.207029 718.405094 
L 144.618947 718.191517 
L 144.185685 717.977939 
L 145.718623 717.764361 
L 144.761435 717.550784 
L 142.116163 717.337206 
L 141.664494 717.123628 
L 142.500865 716.910051 
L 138.527668 716.482895 
L 138.534495 716.05574 
L 135.212933 715.628585 
L 135.495867 715.415007 
L 134.485937 715.201429 
L 132.781265 714.987852 
L 132.810122 714.774274 
L 132.696515 714.560696 
L 131.120735 714.347119 
L 130.582957 714.133541 
L 130.924023 713.919963 
L 129.045051 713.492808 
L 129.431178 713.27923 
L 129.136992 713.065653 
L 128.200657 712.852075 
L 128.427457 712.638497 
L 128.440085 712.42492 
L 127.804811 712.211342 
L 128.03083 711.784187 
L 127.939965 711.570609 
L 128.265187 711.143454 
L 128.331403 710.716298 
L 128.94195 709.434832 
L 129.981022 705.376857 
L 130.409351 701.959614 
L 130.894028 696.193017 
L 130.708921 695.552284 
L 130.605984 695.338706 
L 130.654111 694.911551 
L 130.444837 694.697973 
L 130.503563 694.270818 
L 130.239884 693.843663 
L 130.057917 693.20293 
L 129.794656 692.775774 
L 129.761568 692.562197 
L 128.714709 691.067153 
L 128.435892 690.639998 
L 128.134977 690.212842 
L 127.935817 689.358532 
L 128.494803 688.931376 
L 129.155053 688.717799 
L 130.250078 688.504221 
L 131.276413 687.64991 
L 131.463188 687.222755 
L 131.25778 684.446245 
L 131.22132 683.805512 
L 131.093403 681.883313 
L 130.538573 681.669736 
L 126.664582 681.24258 
L 123.38207 680.815425 
L 124.233714 680.601847 
L 126.888383 680.38827 
L 138.239516 679.747537 
L 139.856437 679.533959 
L 139.965629 679.320381 
L 138.841028 679.106804 
L 131.857897 678.252493 
L 130.448452 677.825338 
L 130.103239 677.61176 
L 129.692778 676.757449 
L 129.771658 676.116716 
L 129.77271 675.689561 
L 129.88372 675.262406 
L 129.830706 674.621673 
L 129.229975 674.408095 
L 125.415694 673.767362 
L 124.994915 673.553784 
L 125.641152 673.340207 
L 130.339455 672.913051 
L 135.301268 672.485896 
L 136.615507 672.272318 
L 137.031678 672.058741 
L 136.500095 671.845163 
L 130.950409 670.777275 
L 130.22067 670.350119 
L 130.073848 669.922964 
L 129.907259 669.495809 
L 130.024042 669.068653 
L 130.032115 668.641498 
L 130.109363 668.42792 
L 129.695745 667.787187 
L 129.723005 667.57361 
L 129.17715 666.505721 
L 128.550639 666.078566 
L 128.557185 665.437833 
L 129.162955 665.010678 
L 129.503116 664.7971 
L 129.621918 664.583522 
L 129.488006 664.156367 
L 129.023573 663.302056 
L 129.089175 662.874901 
L 129.073705 662.447746 
L 129.550221 661.379857 
L 130.932695 658.816925 
L 131.090173 658.176192 
L 131.066639 657.535459 
L 130.5749 653.477484 
L 131.257278 648.138042 
L 131.386807 645.147955 
L 131.075202 639.16778 
L 130.392289 638.954202 
L 121.690906 638.099892 
L 123.301246 637.886314 
L 132.631106 637.459159 
L 140.707613 637.032003 
L 141.800682 636.818426 
L 141.348177 636.604848 
L 137.241777 636.177693 
L 132.976792 635.750537 
L 131.005102 635.323382 
L 129.942301 634.896227 
L 129.489033 633.828338 
L 128.721557 633.614761 
L 123.268389 632.974028 
L 123.039884 632.76045 
L 124.279612 632.546872 
L 131.146674 632.119717 
L 137.085203 631.692562 
L 138.117604 631.478984 
L 137.983239 631.265406 
L 136.802519 631.051829 
L 131.703322 630.411096 
L 130.266162 629.98394 
L 129.86851 629.770363 
L 129.711813 629.343207 
L 129.202338 629.12963 
L 124.038442 628.275319 
L 124.435926 628.061741 
L 126.17591 627.848164 
L 136.557617 626.993853 
L 137.314015 626.780275 
L 136.968056 626.566698 
L 130.060259 625.285232 
L 129.36322 624.644499 
L 126.995387 624.217343 
L 124.333327 623.790188 
L 124.215982 623.57661 
L 125.489847 623.363033 
L 137.121339 622.295144 
L 137.174735 622.081567 
L 136.272679 621.867989 
L 130.967327 621.013678 
L 129.977868 620.586523 
L 129.443706 619.94579 
L 128.68709 619.732212 
L 124.341637 619.091479 
L 124.078477 618.877902 
L 125.257268 618.664324 
L 130.624144 618.237169 
L 135.931827 617.810013 
L 137.214546 617.596436 
L 137.343283 617.382858 
L 136.557754 617.16928 
L 131.086874 616.31497 
L 130.055612 615.887814 
L 129.739956 615.460659 
L 129.624673 615.247081 
L 129.084854 615.033504 
L 126.192467 614.606348 
L 124.692959 614.392771 
L 123.99085 614.179193 
L 124.705455 613.965615 
L 126.601169 613.752038 
L 135.348401 613.111305 
L 136.935106 612.897727 
L 137.447845 612.684149 
L 136.924026 612.470572 
L 130.58513 611.402683 
L 129.870724 610.975528 
L 129.675865 610.548373 
L 129.312675 610.334795 
L 128.317873 610.121217 
L 124.049847 609.480484 
L 124.233912 609.266907 
L 125.808622 609.053329 
L 136.546724 608.199018 
L 137.463632 607.985441 
L 137.25127 607.771863 
L 134.59474 607.344708 
L 131.694874 606.917552 
L 130.26946 606.490397 
L 129.800337 606.063242 
L 129.659269 605.849664 
L 129.08686 605.636086 
L 126.047134 605.208931 
L 123.659959 604.781776 
L 124.357817 604.568198 
L 129.585789 604.141043 
L 135.652501 603.713887 
L 137.291367 603.50031 
L 137.790686 603.286732 
L 137.194392 603.073154 
L 130.588459 602.005266 
L 129.503894 601.578111 
L 128.318824 601.364533 
L 123.434217 600.7238 
L 123.525155 600.510222 
L 125.379541 600.296645 
L 137.190377 599.442334 
L 137.992773 599.228756 
L 137.574368 599.015179 
L 134.456061 598.588023 
L 131.41699 598.160868 
L 130.016687 597.733713 
L 129.399891 597.520135 
L 126.765319 597.09298 
L 123.986413 596.665824 
L 123.998836 596.452247 
L 125.480313 596.238669 
L 137.033403 595.170781 
L 136.955344 594.957203 
L 136.025343 594.743625 
L 130.721555 593.889315 
L 128.368741 593.035004 
L 124.437689 592.394271 
L 124.554584 592.180693 
L 125.739838 591.967116 
L 136.727383 590.899227 
L 136.797849 590.68565 
L 136.006479 590.472072 
L 130.872234 589.617761 
L 129.947176 589.190606 
L 129.554216 588.549873 
L 129.015452 588.336295 
L 126.482182 587.90914 
L 124.405582 587.481985 
L 124.933249 587.268407 
L 126.51569 587.054829 
L 136.16306 586.200519 
L 136.935082 585.986941 
L 136.751943 585.773363 
L 134.525014 585.346208 
L 130.161224 584.705475 
L 122.82557 584.064742 
L 122.188994 583.851164 
L 123.557108 583.637587 
L 130.931636 583.210431 
L 137.859081 582.783276 
L 138.988342 582.569698 
L 137.576106 582.356121 
L 125.116659 581.50181 
L 125.185707 581.288232 
L 130.504782 580.647499 
L 129.812507 580.433922 
L 129.604758 580.220344 
L 125.241886 579.579611 
L 123.019536 579.152456 
L 123.434137 578.938878 
L 122.752681 578.725301 
L 122.634116 578.511723 
L 123.305732 578.298145 
L 122.69584 578.084568 
L 122.989093 577.87099 
L 123.541632 577.657412 
L 122.937637 577.443835 
L 123.850037 577.016679 
L 123.381615 576.803102 
L 124.245463 576.589524 
L 124.244005 576.375946 
L 124.054114 576.162369 
L 125.039678 575.948791 
L 124.847825 575.735213 
L 124.964989 575.521636 
L 125.964576 575.308058 
L 125.682533 575.09448 
L 126.023357 574.880903 
L 126.973014 574.667325 
L 126.693993 574.453747 
L 127.108558 574.24017 
L 128.01337 574.026592 
L 127.894292 573.813014 
L 128.247799 573.599437 
L 131.935579 572.745126 
L 141.492005 572.317971 
L 135.66986 571.890815 
L 135.622666 571.677238 
L 119.36534 571.250082 
L 122.18374 571.036505 
L 120.842533 570.822927 
L 131.265276 570.395772 
L 134.019683 570.182194 
L 132.501855 569.968616 
L 126.601951 569.755039 
L 131.487653 569.541461 
L 139.56529 569.327883 
L 144.868425 568.900728 
L 148.562652 568.68715 
L 146.990898 568.473573 
L 141.682098 568.259995 
L 142.756193 568.046417 
L 161.241732 567.619262 
L 169.730189 566.978529 
L 170.211524 566.764951 
L 162.784913 566.551374 
L 140.585164 566.124218 
L 123.535514 565.483485 
L 121.202525 565.269908 
L 122.025271 565.05633 
L 122.039276 564.842752 
L 119.314818 564.629175 
L 118.096425 564.415597 
L 121.591159 563.988442 
L 118.908779 563.561286 
L 120.49858 563.347709 
L 123.409151 563.134131 
L 123.850713 562.920553 
L 122.579669 562.706976 
L 123.202263 562.493398 
L 125.563551 562.27982 
L 126.684853 562.066243 
L 125.821214 561.852665 
L 125.620086 561.639087 
L 129.494759 561.211932 
L 127.561341 560.784777 
L 131.062156 560.357621 
L 130.442771 560.144044 
L 128.936865 559.930466 
L 129.627977 559.716888 
L 131.659323 559.503311 
L 131.787447 559.289733 
L 129.989422 559.076155 
L 129.827658 558.862578 
L 131.612601 558.649 
L 132.368325 558.435422 
L 129.749711 558.008267 
L 132.660397 557.581112 
L 130.009051 557.153956 
L 130.870002 556.940379 
L 132.646781 556.726801 
L 132.177407 556.513223 
L 130.211098 556.299646 
L 129.08413 555.87249 
L 120.834697 555.445335 
L 120.435923 555.231757 
L 142.929006 554.163869 
L 144.601998 553.950291 
L 136.097624 553.309558 
L 130.810803 553.095981 
L 122.233803 552.882403 
L 119.027472 552.668825 
L 133.929784 551.814515 
L 133.72955 551.600937 
L 127.813116 551.173782 
L 136.560037 550.533049 
L 132.72435 550.105893 
L 131.568192 549.892316 
L 131.241662 549.678738 
L 137.203423 549.251583 
L 137.094978 549.038005 
L 133.278843 548.61085 
L 133.318843 548.397272 
L 134.570386 548.183694 
L 138.862863 547.756539 
L 138.297192 547.542961 
L 135.758378 547.329384 
L 135.666615 547.115806 
L 139.047275 546.475073 
L 140.099989 546.261495 
L 138.768177 546.047918 
L 136.039868 545.83434 
L 134.769962 545.620762 
L 136.145557 545.193607 
L 135.592775 544.980029 
L 132.26408 544.339296 
L 127.008313 543.912141 
L 125.628571 543.698563 
L 123.058818 543.484986 
L 115.926691 543.271408 
L 112.956901 543.05783 
L 113.862567 542.844253 
L 112.541676 542.630675 
L 113.875023 542.417097 
L 123.520196 541.989942 
L 120.973639 541.776364 
L 121.668826 541.562787 
L 126.176431 541.349209 
L 129.525025 540.922054 
L 137.898763 540.494898 
L 131.749324 540.067743 
L 136.70132 539.640588 
L 136.325426 539.42701 
L 137.618125 539.213432 
L 139.906175 538.999855 
L 137.905683 538.786277 
L 132.546901 538.572699 
L 131.101639 538.359122 
L 133.709845 538.145544 
L 134.567904 537.931966 
L 133.404436 537.718389 
L 134.758162 537.291233 
L 125.250893 536.864078 
L 127.287582 536.6505 
L 127.840114 536.436923 
L 125.181782 536.223345 
L 126.746202 536.009767 
L 126.773987 535.79619 
L 123.405502 535.582612 
L 127.664551 535.155457 
L 127.622782 534.941879 
L 132.348353 534.514724 
L 131.376904 534.301146 
L 131.629291 534.087568 
L 134.750365 533.873991 
L 135.879923 533.660413 
L 135.675397 533.446835 
L 136.997947 533.233258 
L 136.775283 533.01968 
L 135.094089 532.806102 
L 135.79656 532.592525 
L 137.358668 532.378947 
L 137.579567 532.165369 
L 137.399615 531.951792 
L 137.504473 531.738214 
L 136.621113 531.524636 
L 134.799106 531.311059 
L 134.166614 531.097481 
L 134.509085 530.883903 
L 134.426072 530.670326 
L 126.614526 529.175282 
L 126.01472 528.961704 
L 124.59987 528.748127 
L 116.290476 528.107394 
L 115.372417 527.893816 
L 116.487464 527.680238 
L 127.194081 527.039505 
L 125.556534 526.825928 
L 125.422243 526.61235 
L 135.105477 525.544462 
L 131.662116 525.117306 
L 133.077584 524.903729 
L 135.435312 524.690151 
L 136.300185 524.476573 
L 139.551784 524.049418 
L 139.200766 523.83584 
L 133.110668 523.408685 
L 133.220042 523.195107 
L 134.611244 522.98153 
L 135.090806 522.554374 
L 135.845742 522.340797 
L 133.450812 522.127219 
L 124.615684 521.700064 
L 129.207275 520.632175 
L 124.875187 520.20502 
L 131.943345 519.564287 
L 133.069025 519.350709 
L 133.068119 519.137132 
L 128.904973 518.709976 
L 129.937094 518.496399 
L 134.02537 518.069243 
L 134.740212 517.855666 
L 134.794928 517.642088 
L 129.889925 517.001355 
L 132.902434 516.360622 
L 133.229952 516.147044 
L 132.340109 515.933467 
L 129.203707 515.506311 
L 129.562266 515.292734 
L 131.978795 514.652001 
L 131.907634 514.438423 
L 129.467119 514.011268 
L 129.192833 513.79769 
L 129.655575 513.584112 
L 131.994846 512.943379 
L 131.457341 512.729802 
L 129.72353 512.302646 
L 129.581131 512.089069 
L 130.021837 511.875491 
L 131.925602 511.448336 
L 131.996168 511.234758 
L 129.921856 510.594025 
L 129.851521 510.380447 
L 130.374316 510.16687 
L 131.690037 509.739714 
L 131.661659 509.526137 
L 130.002681 508.885404 
L 129.96987 508.671826 
L 130.120373 508.458248 
L 131.489385 507.817515 
L 131.301651 507.603938 
L 129.250969 506.963205 
L 128.608004 506.749627 
L 128.577818 506.536049 
L 129.600723 506.108894 
L 129.391115 505.681739 
L 129.282389 505.468161 
L 129.337161 505.254583 
L 129.925454 505.041006 
L 132.102298 504.61385 
L 132.675531 504.400273 
L 132.831861 504.186695 
L 131.965443 503.545962 
L 132.173308 503.332384 
L 132.847381 502.905229 
L 132.616163 502.478074 
L 132.264279 502.264496 
L 131.265716 501.837341 
L 131.467085 501.623763 
L 132.077489 501.196608 
L 132.155797 500.769452 
L 131.66176 500.555875 
L 128.478636 500.128719 
L 127.80014 499.915142 
L 128.052786 499.701564 
L 128.496811 499.487986 
L 130.519851 499.060831 
L 130.743393 498.847253 
L 129.736788 498.633676 
L 121.67949 497.779365 
L 121.588414 497.565787 
L 126.499883 497.138632 
L 131.213217 496.711477 
L 132.281647 496.497899 
L 132.493962 496.284321 
L 131.917721 496.070744 
L 128.949144 495.430011 
L 127.102374 494.5757 
L 122.75088 493.721389 
L 124.00467 493.507812 
L 129.089684 493.080656 
L 134.871677 492.653501 
L 136.295583 492.439923 
L 136.655996 492.226346 
L 136.192155 492.012768 
L 133.945782 491.585613 
L 131.534896 491.158457 
L 128.660041 490.304147 
L 123.936035 489.663414 
L 123.774919 489.449836 
L 124.674167 489.236258 
L 136.074485 488.16837 
L 136.10129 487.954792 
L 135.143043 487.741215 
L 129.384628 486.886904 
L 127.285704 486.459749 
L 126.458421 486.032593 
L 125.25249 485.605438 
L 125.082695 485.178283 
L 124.008894 484.751127 
L 124.275036 484.53755 
L 123.788596 484.110394 
L 124.228792 483.896817 
L 123.899419 483.469661 
L 124.40002 483.256084 
L 124.133585 482.828928 
L 124.668102 482.615351 
L 124.487632 482.401773 
L 124.483869 482.188195 
L 125.060415 481.974618 
L 124.872577 481.76104 
L 125.000549 481.547462 
L 125.593172 481.333885 
L 125.390529 481.120307 
L 125.676673 480.906729 
L 126.245079 480.693152 
L 126.023635 480.479574 
L 126.939669 480.052419 
L 126.721839 479.838841 
L 127.669721 479.411686 
L 127.503418 479.198108 
L 128.439681 478.770953 
L 128.394822 478.557375 
L 128.68664 478.343797 
L 129.86051 477.916642 
L 130.688776 477.703064 
L 132.185349 477.489487 
L 136.261307 477.062331 
L 134.50159 476.848754 
L 133.769187 476.635176 
L 136.955111 476.208021 
L 136.012814 475.994443 
L 134.450124 475.780865 
L 137.344733 475.35371 
L 136.628742 475.140132 
L 135.142356 474.926555 
L 135.781732 474.712977 
L 137.274097 474.499399 
L 137.070697 474.285822 
L 135.468377 474.072244 
L 135.663939 473.858666 
L 136.974952 473.645089 
L 137.153992 473.431511 
L 135.786703 473.217933 
L 135.479409 473.004356 
L 137.010688 472.5772 
L 135.11318 472.150045 
L 136.409403 471.72289 
L 134.475236 471.295734 
L 134.780577 471.082157 
L 135.397565 470.868579 
L 134.721642 470.655001 
L 133.519223 470.441424 
L 133.42289 470.227846 
L 133.666283 470.014268 
L 130.954167 469.800691 
L 123.10437 469.373535 
L 123.338039 469.159958 
L 124.532446 468.94638 
L 126.854182 468.732802 
L 141.129038 468.092069 
L 141.794288 467.878492 
L 141.486946 467.664914 
L 140.946691 467.451336 
L 139.042415 467.237759 
L 132.782427 466.810603 
L 131.979879 466.597026 
L 131.726546 466.383448 
L 129.313266 465.956293 
L 129.580394 465.742715 
L 130.272617 465.529137 
L 129.857071 465.31556 
L 128.991182 465.101982 
L 129.196225 464.888404 
L 130.004086 464.674827 
L 130.006067 464.461249 
L 129.225731 464.247671 
L 129.19327 464.034094 
L 129.938962 463.820516 
L 130.226044 463.606938 
L 129.556831 463.393361 
L 129.320637 463.179783 
L 130.381701 462.752628 
L 129.513868 462.325472 
L 130.512841 461.898317 
L 130.254839 461.684739 
L 129.799574 461.471162 
L 130.095478 461.257584 
L 130.726935 461.044006 
L 130.7064 460.830429 
L 130.257155 460.616851 
L 130.305638 460.403273 
L 130.129098 460.189696 
L 128.227044 459.976118 
L 123.141662 459.548963 
L 123.176443 459.335385 
L 124.833086 459.121807 
L 127.490679 458.90823 
L 139.22397 458.267497 
L 140.101111 458.053919 
L 139.690873 457.840341 
L 138.685881 457.626764 
L 134.779912 457.199608 
L 132.710506 456.986031 
L 131.733364 456.772453 
L 131.299093 456.558875 
L 129.826446 456.13172 
L 129.750507 455.918142 
L 130.039888 455.704565 
L 129.94459 455.490987 
L 129.505971 455.277409 
L 129.477198 455.063832 
L 129.850692 454.850254 
L 129.975768 454.636676 
L 129.631065 454.423099 
L 129.499107 454.209521 
L 129.547395 453.995943 
L 128.654501 453.782366 
L 124.372821 453.35521 
L 123.48062 453.141633 
L 124.06234 452.928055 
L 125.552156 452.714477 
L 132.150317 452.287322 
L 137.493355 451.860167 
L 137.896839 451.646589 
L 137.589481 451.433011 
L 136.65623 451.219434 
L 131.774367 450.578701 
L 129.800963 449.72439 
L 130.062451 449.297235 
L 129.604847 448.870079 
L 130.033926 448.442924 
L 129.855809 448.229346 
L 129.372264 448.015769 
L 128.578056 447.802191 
L 125.361625 447.375036 
L 123.838771 447.161458 
L 123.979916 446.94788 
L 125.598907 446.734303 
L 137.796471 445.666414 
L 137.520149 445.452837 
L 133.682004 444.812104 
L 131.161218 444.384948 
L 130.371403 443.957793 
L 129.810466 443.530638 
L 129.726822 442.249172 
L 128.973787 442.035594 
L 124.53442 441.394861 
L 124.355125 441.181283 
L 125.07364 440.967706 
L 130.311528 440.54055 
L 135.658257 440.113395 
L 136.760674 439.899817 
L 136.942612 439.68624 
L 136.253918 439.472662 
L 132.866349 439.045507 
L 129.729442 438.618351 
L 126.728276 437.764041 
L 124.234521 436.90973 
L 123.702608 436.268997 
L 123.77878 435.841842 
L 123.671895 435.628264 
L 123.846046 435.414686 
L 123.821829 434.987531 
L 124.041182 434.773953 
L 124.073136 434.346798 
L 124.333873 434.13322 
L 124.447777 433.706065 
L 124.765297 433.492487 
L 124.997709 433.065332 
L 125.37755 432.851754 
L 125.726573 432.424599 
L 126.142711 432.211021 
L 126.545558 431.783866 
L 126.971952 431.570288 
L 127.397572 431.143133 
L 128.033123 430.715978 
L 128.229824 430.5024 
L 129.105596 430.075245 
L 130.691476 429.648089 
L 130.68466 428.580201 
L 131.686352 428.366623 
L 135.292071 427.939468 
L 133.30222 427.512313 
L 135.981617 427.085157 
L 135.601899 426.87158 
L 134.215371 426.658002 
L 134.850435 426.444424 
L 136.231249 426.230847 
L 136.235088 426.017269 
L 134.915067 425.803691 
L 135.046601 425.590114 
L 136.30034 425.376536 
L 136.592133 425.162958 
L 135.436165 424.949381 
L 135.202985 424.735803 
L 136.274069 424.522225 
L 136.758953 424.308648 
L 135.250617 423.881492 
L 136.637209 423.454337 
L 135.077789 423.027182 
L 136.127323 422.600026 
L 134.588942 422.172871 
L 134.793087 421.959293 
L 135.257275 421.745716 
L 134.772169 421.532138 
L 133.791236 421.31856 
L 133.710812 421.104983 
L 134.06253 420.891405 
L 133.705567 420.677827 
L 132.761179 420.46425 
L 132.515033 420.250672 
L 132.911626 420.037094 
L 132.874635 419.823517 
L 131.790575 419.396361 
L 132.102052 419.182784 
L 132.18838 418.969206 
L 131.202947 418.542051 
L 131.785246 418.114895 
L 131.088461 417.68774 
L 131.693749 417.260585 
L 131.041347 416.833429 
L 131.49295 416.406274 
L 130.826102 416.192696 
L 122.107796 415.338386 
L 122.853751 415.124808 
L 126.455325 414.91123 
L 136.985248 414.484075 
L 140.039174 414.270497 
L 141.398996 414.05692 
L 141.409611 413.843342 
L 139.98733 413.629764 
L 132.970959 412.989031 
L 129.959115 412.348298 
L 129.684645 412.134721 
L 129.73335 411.921143 
L 129.553196 411.707565 
L 129.209899 411.493988 
L 129.163491 411.28041 
L 129.346078 411.066832 
L 129.355829 410.853255 
L 129.135523 410.639677 
L 129.085658 410.426099 
L 129.335852 409.998944 
L 129.120704 409.571789 
L 129.372067 409.144633 
L 129.213934 408.5039 
L 128.784185 407.863167 
L 128.462222 406.581701 
L 129.30527 405.086658 
L 129.341243 404.659502 
L 129.658088 404.232347 
L 129.608056 403.591614 
L 129.72196 403.378036 
L 129.65406 402.737303 
L 129.806264 402.310148 
L 129.744946 401.882993 
L 129.951359 401.455837 
L 129.847235 401.028682 
L 130.382802 400.387949 
L 130.390969 400.174371 
L 130.908471 399.320061 
L 130.992362 399.106483 
L 131.299878 398.679328 
L 131.260197 398.252172 
L 131.515969 397.825017 
L 131.435188 397.397862 
L 131.669739 396.970706 
L 131.679469 396.329973 
L 131.807264 396.116396 
L 131.7808 395.475663 
L 131.957281 395.048507 
L 131.904762 394.621352 
L 132.06064 394.194197 
L 131.949824 393.767041 
L 132.066231 393.339886 
L 131.901682 392.912731 
L 131.967397 392.485575 
L 131.801096 391.844842 
L 131.828306 391.631265 
L 131.643597 391.204109 
L 131.706511 390.990532 
L 131.920156 390.776954 
L 131.913516 390.563376 
L 131.224402 390.136221 
L 131.11392 389.709066 
L 130.689659 389.495488 
L 129.645728 389.28191 
L 122.647483 388.641177 
L 122.657824 388.4276 
L 124.319287 388.214022 
L 133.406347 387.573289 
L 134.179067 387.359711 
L 133.077216 387.146134 
L 132.614305 386.932556 
L 125.535765 386.078245 
L 124.315601 385.864668 
L 124.797246 385.65109 
L 123.635044 385.223935 
L 124.434408 385.010357 
L 123.704533 384.796779 
L 123.758915 384.583202 
L 124.533309 384.369624 
L 123.75031 384.156046 
L 124.797936 383.728891 
L 124.019701 383.515313 
L 125.177705 383.088158 
L 124.489445 382.87458 
L 125.445893 382.661003 
L 125.693872 382.447425 
L 125.156628 382.233847 
L 127.509527 381.806692 
L 130.21548 381.593114 
L 130.714363 381.379537 
L 129.939527 381.165959 
L 130.432738 380.952381 
L 132.39681 380.738804 
L 133.275149 380.525226 
L 132.579104 380.311648 
L 132.532415 380.098071 
L 135.240777 379.670915 
L 134.173035 379.24376 
L 136.348343 378.816605 
L 135.780998 378.603027 
L 134.849762 378.389449 
L 135.419273 378.175872 
L 136.377304 377.962294 
L 136.111303 377.748716 
L 135.107007 377.535139 
L 135.321558 377.321561 
L 136.234743 377.107983 
L 136.192246 376.894406 
L 135.207018 376.680828 
L 135.0878 376.46725 
L 135.841491 376.253673 
L 135.916672 376.040095 
L 134.965167 375.826517 
L 134.54389 375.61294 
L 135.096712 375.399362 
L 135.244058 375.185784 
L 133.703364 374.758629 
L 134.245808 374.331474 
L 132.71927 373.904318 
L 132.914009 373.690741 
L 133.280223 373.477163 
L 132.107302 372.83643 
L 132.479156 372.622852 
L 132.173251 372.409275 
L 131.491009 372.195697 
L 131.438973 371.982119 
L 131.867705 371.768542 
L 131.826681 371.554964 
L 131.268391 371.341386 
L 131.204343 371.127809 
L 131.648056 370.914231 
L 131.554373 370.700653 
L 130.064025 370.487076 
L 123.695801 369.846343 
L 122.982862 369.632765 
L 124.85977 369.419187 
L 138.150107 368.778454 
L 140.065806 368.564877 
L 140.717707 368.351299 
L 139.981602 368.137721 
L 132.234458 367.283411 
L 130.424053 366.856255 
L 130.12449 366.642678 
L 130.194666 366.4291 
L 130.066805 366.215522 
L 129.71688 366.001945 
L 129.657034 365.788367 
L 129.893228 365.574789 
L 129.949758 365.361212 
L 129.717245 365.147634 
L 129.656741 364.934056 
L 130.009982 364.506901 
L 129.752063 364.079746 
L 130.097176 363.65259 
L 129.871548 363.225435 
L 130.196836 362.79828 
L 130.023784 362.371124 
L 130.18084 362.157547 
L 130.479874 361.943969 
L 130.580857 361.730391 
L 130.556473 361.516814 
L 130.719522 361.303236 
L 131.168241 360.876081 
L 131.119217 360.662503 
L 131.188664 360.448925 
L 131.52929 360.02177 
L 131.414238 359.594615 
L 131.700142 359.167459 
L 131.532271 358.740304 
L 131.75693 358.313149 
L 131.590864 357.885993 
L 131.757041 357.458838 
L 131.625121 356.818105 
L 131.703956 356.604527 
L 131.410838 355.536639 
L 129.930602 355.323061 
L 122.358261 354.895906 
L 121.108888 354.682328 
L 122.784016 354.468751 
L 137.647267 353.61444 
L 138.442164 353.400862 
L 137.4543 353.187285 
L 124.183281 352.760129 
L 123.88149 352.546552 
L 108.215658 352.332974 
L 93.063885 351.905819 
L 101.69177 351.692241 
L 142.309257 351.265086 
L 170.063233 350.624353 
L 158.083494 350.197197 
L 179.263393 349.770042 
L 177.140615 349.556464 
L 163.057445 349.342887 
L 135.98572 349.129309 
L 130.66908 348.915731 
L 130.6732 346.566377 
L 130.725716 344.217023 
L 130.285435 344.003445 
L 130.79575 343.789867 
L 130.957793 343.57629 
L 130.635601 343.149134 
L 130.718892 342.935557 
L 130.575147 342.721979 
L 130.713512 342.294824 
L 130.792218 342.081246 
L 130.612571 341.867668 
L 130.685029 341.654091 
L 130.21802 341.440513 
L 131.224166 341.226935 
L 130.511843 340.79978 
L 130.535721 340.586202 
L 131.077815 340.372625 
L 125.052852 340.159047 
L 119.461607 339.731892 
L 116.402254 339.518314 
L 117.007589 339.304736 
L 119.611308 339.091159 
L 120.126243 338.877581 
L 119.028758 338.664003 
L 120.93443 338.236848 
L 112.576161 338.02327 
L 110.892355 337.809693 
L 113.791411 337.596115 
L 112.736665 337.382537 
L 116.116289 337.16896 
L 123.942279 336.955382 
L 126.115285 336.741804 
L 121.763531 336.528227 
L 122.396864 336.314649 
L 131.361676 335.887494 
L 142.36685 335.246761 
L 140.855592 335.033183 
L 137.807915 334.819605 
L 139.177992 334.606028 
L 146.453563 334.178872 
L 143.885091 333.751717 
L 141.725951 333.538139 
L 127.703009 332.683829 
L 126.553735 332.470251 
L 124.463842 332.256673 
L 123.579458 332.043096 
L 124.865415 331.61594 
L 123.477719 331.188785 
L 125.313748 330.76163 
L 124.427081 330.334474 
L 126.386596 329.907319 
L 126.409061 329.693741 
L 126.116992 329.480164 
L 128.365135 328.839431 
L 127.964325 328.625853 
L 128.494903 328.412275 
L 129.413976 328.198698 
L 129.727701 327.98512 
L 129.284855 327.771542 
L 129.51801 327.557965 
L 130.093338 327.344387 
L 128.981945 327.130809 
L 123.104017 326.703654 
L 122.933511 326.490076 
L 123.820358 326.276499 
L 125.721371 326.062921 
L 138.866079 325.422188 
L 139.973136 325.20861 
L 139.805628 324.995033 
L 139.099458 324.781455 
L 137.496143 324.567877 
L 132.644342 324.140722 
L 131.798309 323.927144 
L 131.436361 323.713567 
L 129.818563 323.286411 
L 129.927767 323.072834 
L 130.273539 322.859256 
L 130.001623 322.645678 
L 129.507144 322.432101 
L 129.651932 322.218523 
L 130.064982 322.004945 
L 129.814964 321.791368 
L 128.502202 321.364212 
L 128.406187 321.150635 
L 127.578992 320.723479 
L 127.84759 320.509902 
L 133.525339 319.442013 
L 133.993597 319.228436 
L 131.313237 318.374125 
L 130.348172 317.94697 
L 130.430387 317.733392 
L 130.63993 317.519814 
L 130.51911 317.306237 
L 130.260768 317.092659 
L 130.353151 316.879081 
L 130.603076 316.665504 
L 130.588189 316.451926 
L 130.348486 316.238348 
L 130.367452 316.024771 
L 130.599953 315.811193 
L 130.656685 315.597615 
L 130.436516 315.384038 
L 130.393624 315.17046 
L 130.692342 314.743305 
L 130.44055 314.316149 
L 130.945593 313.675416 
L 130.827356 313.461839 
L 124.962661 311.966795 
L 124.816154 311.753217 
L 124.180078 311.326062 
L 124.333448 311.112484 
L 124.10614 310.898907 
L 124.048435 310.685329 
L 124.287286 310.471751 
L 124.089475 310.258174 
L 124.114845 310.044596 
L 124.36293 309.831018 
L 124.175408 309.617441 
L 124.525132 309.190285 
L 124.339399 308.976708 
L 124.762348 308.549552 
L 124.612735 308.335975 
L 125.097048 307.908819 
L 125.009075 307.695242 
L 125.412684 307.481664 
L 125.563494 307.268086 
L 125.563632 307.054509 
L 126.043419 306.840931 
L 126.283372 306.413776 
L 126.823347 306.200198 
L 127.178723 305.773043 
L 128.049181 305.345887 
L 128.250087 305.13231 
L 129.325907 304.705154 
L 130.679348 304.277999 
L 130.680141 303.637266 
L 136.128832 302.996533 
L 133.910735 302.782955 
L 133.797284 302.569378 
L 136.650947 302.142222 
L 134.211486 301.715067 
L 136.889651 301.287912 
L 134.606931 300.860756 
L 136.969849 300.433601 
L 136.31435 300.220023 
L 134.993229 300.006446 
L 135.681844 299.792868 
L 136.894651 299.57929 
L 136.577198 299.365713 
L 135.21867 299.152135 
L 135.472556 298.938557 
L 136.56395 298.72498 
L 136.455824 298.511402 
L 135.107499 298.297824 
L 134.949832 298.084247 
L 135.831632 297.870669 
L 135.869034 297.657091 
L 134.623596 297.443514 
L 134.113011 297.229936 
L 134.76907 297.016358 
L 134.905026 296.802781 
L 133.003791 296.375625 
L 133.592619 295.94847 
L 131.782785 295.521315 
L 132.029474 295.307737 
L 132.459036 295.094159 
L 131.109898 294.667004 
L 131.18099 294.453426 
L 131.62611 294.239849 
L 131.314427 294.026271 
L 130.576778 293.812693 
L 130.548292 293.599116 
L 131.081939 293.385538 
L 131.089884 293.17196 
L 130.4604 292.958383 
L 130.376075 292.744805 
L 130.914989 292.531227 
L 130.98032 292.31765 
L 130.449411 292.104072 
L 130.225227 291.890494 
L 130.667383 291.676917 
L 130.851639 291.463339 
L 130.113729 291.036184 
L 130.724143 290.609028 
L 130.073398 290.181873 
L 130.623421 289.754718 
L 130.449162 289.54114 
L 130.07782 289.327562 
L 130.230982 289.113985 
L 130.548287 288.900407 
L 130.478968 288.686829 
L 130.115776 288.473252 
L 130.17986 288.259674 
L 130.477731 288.046096 
L 130.459551 287.832519 
L 130.162026 287.618941 
L 130.215344 287.405363 
L 130.546794 287.191786 
L 130.644047 286.978208 
L 130.392015 286.76463 
L 130.361917 286.551053 
L 130.82851 286.123897 
L 130.52571 285.696742 
L 130.973776 285.269587 
L 130.688059 284.842431 
L 131.086146 284.415276 
L 130.828405 283.988121 
L 131.119208 283.347388 
L 130.942319 283.13381 
L 130.983531 282.920232 
L 131.197589 282.706655 
L 131.205606 282.493077 
L 131.033652 282.279499 
L 131.014583 282.065922 
L 131.244937 281.638766 
L 131.031346 281.211611 
L 131.262973 280.784456 
L 131.007131 280.357301 
L 131.170648 279.930145 
L 130.957267 279.289412 
L 131.04432 279.075835 
L 130.829706 278.435102 
L 130.923218 278.221524 
L 130.732841 276.512903 
L 130.761508 276.299325 
L 130.612002 275.87217 
L 130.719455 275.445014 
L 130.580588 275.017859 
L 130.63239 274.377126 
L 130.603649 273.949971 
L 130.642735 273.522815 
L 130.584675 273.09566 
L 130.614861 272.668505 
L 130.650068 272.241349 
L 130.723494 271.814194 
L 130.75509 271.387039 
L 130.834398 270.959883 
L 130.838686 270.532728 
L 130.92221 270.105573 
L 130.953042 269.46484 
L 131.014673 268.396951 
L 131.006663 267.115485 
L 131.148023 266.68833 
L 130.800759 266.047597 
L 130.838997 265.834019 
L 130.509001 264.979709 
L 130.455407 264.766131 
L 130.18039 264.338976 
L 130.224291 263.91182 
L 129.932556 263.484665 
L 130.046953 262.843932 
L 129.955478 262.630354 
L 130.047801 261.776044 
L 130.128328 260.921733 
L 130.059197 260.708155 
L 130.46867 260.067422 
L 130.438917 259.853845 
L 130.893047 259.213112 
L 130.860343 258.999534 
L 131.642098 257.50449 
L 131.624755 257.077335 
L 131.883783 256.65018 
L 131.811571 256.223024 
L 132.031458 255.795869 
L 131.93958 255.155136 
L 131.798718 254.941558 
L 130.572518 254.727981 
L 122.042168 254.300825 
L 121.888771 254.087248 
L 122.908268 253.87367 
L 125.25917 253.660092 
L 135.103473 253.232937 
L 135.798538 253.019359 
L 131.853759 252.592204 
L 132.9126 252.378626 
L 136.398656 251.951471 
L 142.187774 251.524316 
L 142.241074 251.310738 
L 130.231122 250.24285 
L 128.618077 250.029272 
L 128.322766 249.815694 
L 128.370485 249.602117 
L 127.087305 249.174961 
L 127.350469 248.961384 
L 127.917463 248.747806 
L 127.779589 248.534228 
L 127.291882 248.320651 
L 127.535514 248.107073 
L 128.171256 247.893495 
L 128.252659 247.679918 
L 127.834085 247.46634 
L 127.9778 247.252762 
L 128.585282 247.039185 
L 128.814766 246.825607 
L 128.502287 246.612029 
L 128.580287 246.398452 
L 129.611907 245.971296 
L 129.447172 245.757719 
L 129.473511 245.544141 
L 130.454689 245.116986 
L 130.187768 244.68983 
L 130.992278 244.262675 
L 130.669314 243.83552 
L 131.317801 243.408364 
L 131.231236 243.194787 
L 130.95489 242.981209 
L 131.113495 242.767631 
L 131.425872 242.554054 
L 131.366038 242.340476 
L 131.02528 242.126898 
L 131.043343 241.913321 
L 131.286697 241.699743 
L 131.281209 241.486165 
L 130.963973 241.272588 
L 130.896369 241.05901 
L 131.132185 240.631855 
L 130.744965 240.204699 
L 131.012627 239.777544 
L 130.634937 239.350389 
L 130.903013 238.923233 
L 130.244731 238.068923 
L 129.023437 237.641767 
L 128.959839 237.42819 
L 129.421891 237.214612 
L 131.223717 236.787457 
L 133.206561 236.360301 
L 133.217997 236.146724 
L 131.700093 235.505991 
L 130.956542 234.865258 
L 131.021432 234.438102 
L 130.904783 234.010947 
L 130.960685 233.370214 
L 130.817652 232.943059 
L 129.871349 232.729481 
L 123.010361 232.088748 
L 123.560558 231.87517 
L 125.944432 231.661593 
L 137.866357 231.02086 
L 139.137438 230.807282 
L 139.032672 230.593704 
L 138.104135 230.380127 
L 133.647668 229.952971 
L 129.845804 229.525816 
L 129.637501 229.312238 
L 129.820981 229.098661 
L 130.232128 228.885083 
L 131.759486 228.457928 
L 131.596122 228.24435 
L 130.386482 227.817195 
L 129.168422 226.962884 
L 129.332378 226.535729 
L 129.160939 226.108573 
L 129.472367 225.681418 
L 129.397852 225.254263 
L 129.705474 224.827107 
L 129.708151 224.399952 
L 130.257668 223.759219 
L 130.306301 223.545641 
L 130.832315 222.904908 
L 130.816636 222.691331 
L 131.152206 222.050598 
L 131.149731 221.623442 
L 131.344258 221.196287 
L 131.302166 220.769132 
L 131.440994 220.341976 
L 131.1525 220.128399 
L 129.471876 219.914821 
L 123.630693 219.487666 
L 122.597544 219.274088 
L 123.414605 219.06051 
L 132.007561 218.633355 
L 139.490826 218.2062 
L 139.70832 217.992622 
L 137.676336 217.779044 
L 128.596509 217.138311 
L 128.838765 216.924734 
L 139.528894 216.070423 
L 138.927513 215.856845 
L 124.240331 215.002535 
L 125.421307 214.788957 
L 133.322981 214.148224 
L 129.216551 213.721069 
L 129.953857 213.507491 
L 136.574282 212.65318 
L 135.135844 212.439603 
L 131.900729 212.226025 
L 131.09371 212.012447 
L 132.129538 211.79887 
L 132.721321 211.371714 
L 134.975161 210.944559 
L 133.814577 210.730981 
L 131.71655 210.517404 
L 131.155218 210.303826 
L 131.566844 210.090248 
L 131.554112 209.663093 
L 133.371438 209.235938 
L 133.223943 209.02236 
L 131.457895 208.595205 
L 130.954145 208.381627 
L 128.478614 207.954472 
L 127.405129 207.740894 
L 126.319547 206.886583 
L 127.312576 206.459428 
L 127.332522 206.032273 
L 128.557018 205.605117 
L 128.6485 205.39154 
L 128.618212 205.177962 
L 129.465943 204.750807 
L 128.896185 204.537229 
L 122.379939 203.896496 
L 121.76499 203.682918 
L 123.065976 203.469341 
L 135.88937 202.828608 
L 136.158045 202.61503 
L 130.774348 202.187875 
L 128.988547 201.760719 
L 130.429776 201.547142 
L 135.794768 201.119986 
L 132.145828 200.692831 
L 132.685617 200.479253 
L 140.312763 199.624943 
L 140.60928 199.411365 
L 132.86389 198.770632 
L 130.377657 198.129899 
L 133.3404 197.702744 
L 131.791134 197.489166 
L 128.793282 197.275588 
L 125.362439 196.634855 
L 125.275299 196.421278 
L 127.497807 196.2077 
L 128.094019 195.994122 
L 126.273894 195.780545 
L 126.756949 195.566967 
L 128.903456 195.353389 
L 130.252969 194.926234 
L 133.033884 194.712656 
L 134.216476 194.499079 
L 132.669538 194.285501 
L 132.257125 194.071923 
L 135.409539 193.644768 
L 136.517999 193.217613 
L 137.196083 193.004035 
L 136.935283 192.790457 
L 134.394572 192.363302 
L 134.404711 191.936147 
L 130.382764 191.295414 
L 128.486331 191.081836 
L 122.198603 190.654681 
L 121.690952 190.441103 
L 122.562079 190.227525 
L 126.087765 189.80037 
L 130.949185 189.373215 
L 131.055896 189.159637 
L 126.266322 188.305326 
L 125.814544 188.091749 
L 127.530165 187.878171 
L 132.517967 187.451016 
L 133.623897 187.237438 
L 134.014944 187.02386 
L 133.942976 186.810283 
L 133.134362 186.596705 
L 123.608092 185.528817 
L 122.864106 185.315239 
L 122.444379 184.888084 
L 122.245971 184.674506 
L 122.371526 184.460928 
L 122.314055 184.033773 
L 122.542146 183.820195 
L 122.466151 183.606618 
L 122.834935 183.179462 
L 122.805836 182.965885 
L 123.247092 182.538729 
L 123.321772 182.325152 
L 123.696139 182.111574 
L 124.00711 181.684419 
L 124.407524 181.470841 
L 124.501614 181.257263 
L 125.698301 180.402953 
L 127.16024 179.548642 
L 127.357864 179.335064 
L 128.463472 178.694331 
L 129.292234 178.267176 
L 130.677409 177.840021 
L 130.67723 175.917822 
L 133.226416 175.704244 
L 141.970255 175.490666 
L 142.982179 175.277089 
L 126.360085 175.063511 
L 124.768486 174.849933 
L 128.95222 174.636356 
L 118.393295 174.422778 
L 128.902509 174.2092 
L 131.621844 173.995623 
L 129.63275 173.782045 
L 131.010417 173.568467 
L 130.248938 173.35489 
L 131.057287 173.141312 
L 130.214011 172.927734 
L 130.790574 172.714157 
L 130.536653 172.500579 
L 152.976542 172.073424 
L 162.924435 171.432691 
L 162.516697 171.219113 
L 168.032572 171.005535 
L 178.434153 170.791958 
L 180.653757 170.57838 
L 169.123586 170.151225 
L 156.45724 169.937647 
L 130.66351 169.724069 
L 130.539525 169.510492 
L 130.70055 169.083336 
L 130.688062 168.015448 
L 130.686345 164.384628 
L 126.566664 163.957472 
L 132.48298 163.743895 
L 133.853771 163.530317 
L 130.609915 163.103162 
L 130.739054 162.889584 
L 130.594791 162.676006 
L 130.728974 162.462429 
L 130.623369 162.035273 
L 130.765468 161.821696 
L 130.632798 161.608118 
L 127.771975 161.39454 
L 128.2901 161.180963 
L 133.253024 160.967385 
L 133.433158 160.753807 
L 130.617072 160.54023 
L 130.690166 159.258764 
L 130.636336 158.831608 
L 130.725906 158.404453 
L 130.581582 158.190875 
L 130.749544 157.550142 
L 130.716848 157.122987 
L 130.545917 156.909409 
L 130.771809 156.482254 
L 119.245911 156.055099 
L 117.639987 155.627943 
L 115.120959 155.414366 
L 114.01551 155.200788 
L 117.864332 154.773633 
L 117.262147 154.560055 
L 117.125338 154.346477 
L 122.968094 153.705744 
L 122.753889 153.492167 
L 124.271039 153.278589 
L 126.634482 153.065011 
L 126.987057 152.851434 
L 126.122915 152.637856 
L 126.451985 152.424278 
L 128.120459 152.210701 
L 128.900654 151.997123 
L 128.006434 151.783545 
L 127.986317 151.569968 
L 130.274568 151.142812 
L 128.892758 150.715657 
L 130.806203 150.288502 
L 130.303247 150.074924 
L 129.447755 149.861346 
L 129.976872 149.647769 
L 130.960055 149.434191 
L 130.723715 149.220613 
L 129.79448 149.007036 
L 129.944547 148.793458 
L 130.869632 148.57988 
L 130.965853 148.366303 
L 130.0479 148.152725 
L 129.875201 147.939147 
L 131.04049 147.511992 
L 130.242964 147.298414 
L 130.063787 147.084837 
L 132.046344 146.657681 
L 130.966985 146.230526 
L 132.665561 145.803371 
L 132.236953 145.589793 
L 131.34752 145.376215 
L 131.284882 145.162638 
L 130.682728 144.94906 
L 128.332046 144.735482 
L 128.878584 144.521905 
L 130.764116 144.308327 
L 138.404034 143.881172 
L 131.584767 143.667594 
L 108.895193 143.454016 
L 107.655414 143.240439 
L 105.061653 143.026861 
L 117.249871 142.813283 
L 117.827053 142.599706 
L 172.709502 142.386128 
L 40.954091 142.17255 
L 82.811054 141.958973 
L 181.30447 141.745395 
L 105.765081 141.31824 
L 94.43513 141.104662 
L 215.456764 140.891084 
L 221.035909 140.677507 
L 220.799337 140.463929 
L 220.856648 140.250351 
L 130.936222 139.823196 
L 129.058093 139.609618 
L 130.480412 139.396041 
L 130.045479 139.182463 
L 130.105677 138.968885 
L 130.707137 138.54173 
L 130.609514 138.328152 
L 130.962774 138.114575 
L 130.531796 137.900997 
L 130.75956 137.687419 
L 130.577152 137.473842 
L 132.331442 135.551643 
L 132.044059 135.338065 
L 132.357204 135.124487 
L 132.19706 134.91091 
L 132.313497 134.697332 
L 132.27103 134.483754 
L 131.913256 134.270177 
L 132.602249 133.843021 
L 131.771863 133.629444 
L 133.57224 133.202288 
L 127.226817 132.988711 
L 132.496251 132.775133 
L 130.733389 132.561555 
L 127.716564 132.347978 
L 129.946679 132.1344 
L 129.946679 132.1344 
" style="fill:none;stroke:#ff7f0e;stroke-linecap:square;stroke-width:1.5;"/>
   </g>
   <g id="patch_3">
    <path d="M 31.95 758.7072 
L 31.95 102.2976 
" style="fill:none;stroke:#000000;stroke-linecap:square;stroke-linejoin:miter;stroke-width:0.8;"/>
   </g>
   <g id="patch_4">
    <path d="M 230.04 758.7072 
L 230.04 102.2976 
" style="fill:none;stroke:#000000;stroke-linecap:square;stroke-linejoin:miter;stroke-width:0.8;"/>
   </g>
   <g id="patch_5">
    <path d="M 31.95 758.7072 
L 230.04 758.7072 
" style="fill:none;stroke:#000000;stroke-linecap:square;stroke-linejoin:miter;stroke-width:0.8;"/>
   </g>
   <g id="patch_6">
    <path d="M 31.95 102.2976 
L 230.04 102.2976 
" style="fill:none;stroke:#000000;stroke-linecap:square;stroke-linejoin:miter;stroke-width:0.8;"/>
   </g>
   <g id="legend_1">
    <g id="patch_7">
     <path d="M 130.280625 753.7072 
L 223.04 753.7072 
Q 225.04 753.7072 225.04 751.7072 
L 225.04 723.072825 
Q 225.04 721.072825 223.04 721.072825 
L 130.280625 721.072825 
Q 128.280625 721.072825 128.280625 723.072825 
L 128.280625 751.7072 
Q 128.280625 753.7072 130.280625 753.7072 
z
" style="fill:#ffffff;opacity:0.8;stroke:#cccccc;stroke-linejoin:miter;"/>
    </g>
    <g id="line2d_15">
     <path d="M 132.280625 729.171263 
L 152.280625 729.171263 
" style="fill:none;stroke:#1f77b4;stroke-linecap:square;stroke-width:1.5;"/>
    </g>
    <g id="line2d_16"/>
    <g id="text_10">
     <!-- steer -->
     <g transform="translate(160.280625 732.671263)scale(0.1 -0.1)">
      <defs>
       <path d="M 2834 3397 
L 2834 2853 
Q 2591 2978 2328 3040 
Q 2066 3103 1784 3103 
Q 1356 3103 1142 2972 
Q 928 2841 928 2578 
Q 928 2378 1081 2264 
Q 1234 2150 1697 2047 
L 1894 2003 
Q 2506 1872 2764 1633 
Q 3022 1394 3022 966 
Q 3022 478 2636 193 
Q 2250 -91 1575 -91 
Q 1294 -91 989 -36 
Q 684 19 347 128 
L 347 722 
Q 666 556 975 473 
Q 1284 391 1588 391 
Q 1994 391 2212 530 
Q 2431 669 2431 922 
Q 2431 1156 2273 1281 
Q 2116 1406 1581 1522 
L 1381 1569 
Q 847 1681 609 1914 
Q 372 2147 372 2553 
Q 372 3047 722 3315 
Q 1072 3584 1716 3584 
Q 2034 3584 2315 3537 
Q 2597 3491 2834 3397 
z
" id="DejaVuSans-73" transform="scale(0.015625)"/>
       <path d="M 1172 4494 
L 1172 3500 
L 2356 3500 
L 2356 3053 
L 1172 3053 
L 1172 1153 
Q 1172 725 1289 603 
Q 1406 481 1766 481 
L 2356 481 
L 2356 0 
L 1766 0 
Q 1100 0 847 248 
Q 594 497 594 1153 
L 594 3053 
L 172 3053 
L 172 3500 
L 594 3500 
L 594 4494 
L 1172 4494 
z
" id="DejaVuSans-74" transform="scale(0.015625)"/>
       <path d="M 3597 1894 
L 3597 1613 
L 953 1613 
Q 991 1019 1311 708 
Q 1631 397 2203 397 
Q 2534 397 2845 478 
Q 3156 559 3463 722 
L 3463 178 
Q 3153 47 2828 -22 
Q 2503 -91 2169 -91 
Q 1331 -91 842 396 
Q 353 884 353 1716 
Q 353 2575 817 3079 
Q 1281 3584 2069 3584 
Q 2775 3584 3186 3129 
Q 3597 2675 3597 1894 
z
M 3022 2063 
Q 3016 2534 2758 2815 
Q 2500 3097 2075 3097 
Q 1594 3097 1305 2825 
Q 1016 2553 972 2059 
L 3022 2063 
z
" id="DejaVuSans-65" transform="scale(0.015625)"/>
       <path d="M 2631 2963 
Q 2534 3019 2420 3045 
Q 2306 3072 2169 3072 
Q 1681 3072 1420 2755 
Q 1159 2438 1159 1844 
L 1159 0 
L 581 0 
L 581 3500 
L 1159 3500 
L 1159 2956 
Q 1341 3275 1631 3429 
Q 1922 3584 2338 3584 
Q 2397 3584 2469 3576 
Q 2541 3569 2628 3553 
L 2631 2963 
z
" id="DejaVuSans-72" transform="scale(0.015625)"/>
      </defs>
      <use xlink:href="#DejaVuSans-73"/>
      <use x="52.099609" xlink:href="#DejaVuSans-74"/>
      <use x="91.308594" xlink:href="#DejaVuSans-65"/>
      <use x="152.832031" xlink:href="#DejaVuSans-65"/>
      <use x="214.355469" xlink:href="#DejaVuSans-72"/>
     </g>
    </g>
    <g id="line2d_17">
     <path d="M 132.280625 743.849388 
L 152.280625 743.849388 
" style="fill:none;stroke:#ff7f0e;stroke-linecap:square;stroke-width:1.5;"/>
    </g>
    <g id="line2d_18"/>
    <g id="text_11">
     <!-- steer_speed -->
     <g transform="translate(160.280625 747.349388)scale(0.1 -0.1)">
      <defs>
       <path d="M 3263 -1063 
L 3263 -1509 
L -63 -1509 
L -63 -1063 
L 3263 -1063 
z
" id="DejaVuSans-5f" transform="scale(0.015625)"/>
       <path d="M 1159 525 
L 1159 -1331 
L 581 -1331 
L 581 3500 
L 1159 3500 
L 1159 2969 
Q 1341 3281 1617 3432 
Q 1894 3584 2278 3584 
Q 2916 3584 3314 3078 
Q 3713 2572 3713 1747 
Q 3713 922 3314 415 
Q 2916 -91 2278 -91 
Q 1894 -91 1617 61 
Q 1341 213 1159 525 
z
M 3116 1747 
Q 3116 2381 2855 2742 
Q 2594 3103 2138 3103 
Q 1681 3103 1420 2742 
Q 1159 2381 1159 1747 
Q 1159 1113 1420 752 
Q 1681 391 2138 391 
Q 2594 391 2855 752 
Q 3116 1113 3116 1747 
z
" id="DejaVuSans-70" transform="scale(0.015625)"/>
       <path d="M 2906 2969 
L 2906 4863 
L 3481 4863 
L 3481 0 
L 2906 0 
L 2906 525 
Q 2725 213 2448 61 
Q 2172 -91 1784 -91 
Q 1150 -91 751 415 
Q 353 922 353 1747 
Q 353 2572 751 3078 
Q 1150 3584 1784 3584 
Q 2172 3584 2448 3432 
Q 2725 3281 2906 2969 
z
M 947 1747 
Q 947 1113 1208 752 
Q 1469 391 1925 391 
Q 2381 391 2643 752 
Q 2906 1113 2906 1747 
Q 2906 2381 2643 2742 
Q 2381 3103 1925 3103 
Q 1469 3103 1208 2742 
Q 947 2381 947 1747 
z
" id="DejaVuSans-64" transform="scale(0.015625)"/>
      </defs>
      <use xlink:href="#DejaVuSans-73"/>
      <use x="52.099609" xlink:href="#DejaVuSans-74"/>
      <use x="91.308594" xlink:href="#DejaVuSans-65"/>
      <use x="152.832031" xlink:href="#DejaVuSans-65"/>
      <use x="214.355469" xlink:href="#DejaVuSans-72"/>
      <use x="255.46875" xlink:href="#DejaVuSans-5f"/>
      <use x="305.46875" xlink:href="#DejaVuSans-73"/>
      <use x="357.568359" xlink:href="#DejaVuSans-70"/>
      <use x="421.044922" xlink:href="#DejaVuSans-65"/>
      <use x="482.568359" xlink:href="#DejaVuSans-65"/>
      <use x="544.091797" xlink:href="#DejaVuSans-64"/>
     </g>
    </g>
   </g>
  </g>
 </g>
 <defs>
  <clipPath id="pf18c88fd8c">
   <rect height="656.4096" width="198.09" x="31.95" y="102.2976"/>
  </clipPath>
 </defs>
</svg>
